<?xml version="1.0" encoding="utf-8"?>
<!-- Generator: Adobe Illustrator 25.2.0, SVG Export Plug-In . SVG Version: 6.00 Build 0)  -->
<!DOCTYPE svg PUBLIC "-//W3C//DTD SVG 1.1//EN" "http://www.w3.org/Graphics/SVG/1.1/DTD/svg11.dtd" [
	<!ENTITY ns_extend "http://ns.adobe.com/Extensibility/1.0/">
	<!ENTITY ns_ai "http://ns.adobe.com/AdobeIllustrator/10.0/">
	<!ENTITY ns_graphs "http://ns.adobe.com/Graphs/1.0/">
	<!ENTITY ns_vars "http://ns.adobe.com/Variables/1.0/">
	<!ENTITY ns_imrep "http://ns.adobe.com/ImageReplacement/1.0/">
	<!ENTITY ns_sfw "http://ns.adobe.com/SaveForWeb/1.0/">
	<!ENTITY ns_custom "http://ns.adobe.com/GenericCustomNamespace/1.0/">
	<!ENTITY ns_adobe_xpath "http://ns.adobe.com/XPath/1.0/">
]>
<svg version="1.1" id="Layer_1" xmlns:x="&ns_extend;" xmlns:i="&ns_ai;" xmlns:graph="&ns_graphs;"
	 xmlns="http://www.w3.org/2000/svg" xmlns:xlink="http://www.w3.org/1999/xlink" x="0px" y="0px" width="300px" height="300px"
	 viewBox="0 0 300 300" style="enable-background:new 0 0 300 300;" xml:space="preserve">
<style type="text/css">
	.st0{fill:#dee2e6;}
</style>
<metadata>
	<sfw  xmlns="&ns_sfw;">
		<slices></slices>
		<sliceSourceBounds  bottomLeftOrigin="true" height="300" width="300" x="240.6" y="-435.3"></sliceSourceBounds>
	</sfw>
</metadata>
<g>
	<path class="st0" d="M299.4,237.4c-0.1-0.3-0.2-0.7-0.2-1.2C299.2,236.8,299.3,237.2,299.4,237.4z"/>
	<path class="st0" d="M297.2,211.4l1.3,12c-0.4-1.1-0.8-0.7-0.9-3.4c-0.2,5.3,0.6,6,0.5,10.4c-1.2,1.3-0.1-7.7-1.1-5.2
		c0,0.4,0,0.9,0,1.3c-0.1-1.1-0.2-2.2,0.3-3.6c0.2-7.4-0.7-1.2-1.3-5.7c0.3-7.7,0.6-5.5,1.6-9.8c-0.3-0.2-0.5-0.6-0.6-1.2
		c0-0.2,0-0.4,0.1-0.5c0,0.1-0.1,0.2-0.1,0.3c-0.3-1.8-0.1-4.9-0.6-7.6c-0.1,0.9-0.3,6.2-0.7,2.7c0.2-9-0.8-7.2-1.1-15.6
		c1.3-4.2,0,8.4,1.1,1c0.6,5.2,0.5,9.2,1.5,12.1l0.7,5.4c-0.1,0.7-0.4,1-0.6,1.5c0.3-0.3,0.8,1.4,1,1.2c1.1-2.9-0.4-7.6-0.6-11
		c0.5-8.9,0.6,0.4,1.7-3.1c0,2.5-0.3,2.6-0.4,6c1.3-5.4,0.1-12.2-0.2-15.7c-0.1,1-0.5,1.3-0.4,3.2l-0.4-3.6c-0.5,2-0.8,3.9-0.9,6.5
		c-0.1-4.6-0.3-9.4-0.6-13.9c0.2-4.2,0.6,1.7,0.7-0.9c0.3,0.1,0.7,0,0.6,3.4c0.8,0.7,0.4-6,1-7.1c0.6,2-0.3,5.7,0.6,5.4
		c0.4-10.1-1.3-28.7-1.7-44.1l0.7,1.6c-0.5-7.9-0.6-20.6,0.7-26.9c-0.7,1.5,0.4-11.6-1.2-10.4c0.4-2,0.3-2.6,0.4-5.4l-0.5-0.8
		c0-4,0.8-3.4,0.8-8c-0.7,3-0.9-0.3-1.5-1.7c0.8-5.3,1.5-11.5,2.1-16.2c-0.2,0.4-0.5,0.8-0.8,2.4c0.2-3.2-0.4-2.7-0.7-3.5
		c0-3.1,0.9-2.8,1.3-2.6c0.3-5.7-1.4-8.2-0.9-12.5l-0.7,1.5c-0.1-2.5,0-4.9,0.2-7.3c0,0,0,0,0,0c0,0,0,0,0,0
		c0.2-3.1,0.4-6.3,0.2-9.9c1-3.1,0.8,5.3,1.3,8c0.2-1.3,0.3-4.1,0.6-5c-0.5-2.8-1.2-7.4-1.7-10.8c0.6,1.6,0.8,0.4,1-1.5
		c0.1-1,0.1-2.1,0.1-3.1c0-1.1,0.1-1.9,0-2.6c-0.1,0.1-0.2,0.3-0.3,0.6c-0.1,0.3-0.2,0.6-0.2,1c-0.1,0.9-0.1,2.1-0.1,3.8
		c-0.3-0.2-0.4-1.4-0.5-2.8c0-0.7-0.1-1.4-0.1-2.2c-0.1-0.8-0.2-1.5-0.4-2c0,2.4-0.2,2.4-0.4,1.9c0-1.2-0.1-2.5-0.3-3.8
		c-0.3-1.6-0.9-3.1-1.7-4.5c0.1,0,0.1,0.1,0.3,0.2c0.1,0.2,0.3,0.4,0.5,0.7c0.2,0.3,0.4,0.8,0.7,1.4c-0.8-1.9,0-1.4,0.5-1.4
		c-1.5-2.4-3-3.9-4.4-5.1c-1.4-1.1-2.8-1.9-4.4-2.3c-1.3-0.8-0.8-0.7-0.3-0.5c0.3,0.1,0.5,0.2,0.5,0.1c0-0.1-0.2-0.2-0.8-0.6
		c-1.5-0.4-3-0.5-4.4-0.4c-1.6-0.2-0.8-0.3-0.1-0.4c0.6-0.1,1-0.3-1.5-0.4c-0.5,0.3-4.1,0.7-7.5,0.6l1-0.2c-2.4,0.2-5.7,0-5.3,0.7
		l-1.7-0.6c-0.3,0-0.5,0-0.8,0l-0.4-0.1l0.1,0.1c-1.5,0-3,0.1-4.5,0.1c-4.2-0.5-7.4-1.2-14.3-0.6c2.2,0.2,0.2,0.6-1,0.7
		c3.9,0.5,4.8-0.5,8.5-0.6c0.2,0.2-0.5,0.5-1.2,0.7c-3.2,0.1-6.6,0.2-10,0.2c-0.5-0.2-1-0.4-1.4-0.7c-5.9-0.1-8.1,0.7-14.1,0.3
		l0.2-0.2c-1.1,1.1-4.9-0.5-9.3,0.6l2.8,0.2c-4.9,0-9.8-0.1-14.5-0.3l1.5,0.8c-4.5-0.2-8.2,0.2-11.9,0.5l-2.6-1
		c1.9,0.1,3.7-0.1,3.5,0.4c2.3-0.5,1.2-0.9-0.1-1.3c4.9-0.2,5.7,0.3,9.4-0.6c-8.1-1-6.8,0.9-16.1,0L189.3,2c-3.8-0.2,1-0.7-2.5-1
		c-3.5,0.5,2.9,1,1.4,1.7c-0.5-0.1-0.9-0.2-1.4-0.3l-1.4,0.4c-0.3,0-0.6,0-0.9,0c0-0.4-1.5-1.1,0.4-1.5c-2.4,0.3-5,0-7.5,0.2
		l1.3,0.1c-1.3,0-3.1-0.2-4.7-0.3c-0.2-0.2,0-0.5,0.6-0.7c-6.8,0.1-9.6,0.7-17.3,0.1c-1.1,0.2-1.4,0.5-1.3,0.7l-0.5,0
		c0-0.2-0.3-0.4-0.9-0.6c-2-0.4-3.7,0.1-5.8,0.2c6,0.4,0,1-0.5,1.4c-2.6-0.3-7,0.3-6-0.4l4.1-0.7C135.6,1,121.7,1,108.7,1.2
		c-2-0.4-4.2-0.8-8-0.5c-5.6,0.5,0.6,0.8,0.2,1.2c-3.1,0-6.2,0.5-8.7,0.2c0.2-0.3,0.9-0.4,1.8-0.5c-0.2,0.1-0.3,0.2-0.3,0.3
		c2.9,0.1,3.3-0.1,2.3-0.4c-0.4-0.2-0.8-0.3-1.3-0.3c0,0,0,0,0,0c0,0,0,0,0,0c-1.3,0-3,0.4-5.3-0.1c0.3,0.1,1.5,0.3,0.6,0.5
		C84,1.4,84.4,1.9,80.7,2c0.4-0.1,1-0.2,2.1-0.1c-4.3-0.9-10.6-0.3-16-0.5c-0.9,0-1.7,0.1-2.3,0.2c-0.8-0.1-1.7-0.2-3-0.3
		c0.1,0.1,0.5,0.4,1,0.6C61,2.2,61.7,2.7,60.7,3c-1.6-0.1-2.8-0.2-3.9-0.2l1.1-1.2C53,1.6,47,1.5,41.3,1.7l0.1-0.3
		C38,1.6,32.1,2.2,27.8,1.5l1-0.5c-2.2,0.2-4.4,0.3-6.7,0.4c-1.1,0-2.3,0.1-3.5,0.1c-0.6,0-1.1,0-1.7,0c-0.6,0.1-1.3,0-1.9,0.2
		C12.4,2.1,10.1,3,8.2,4.3c-1.9,1.3-3.4,3-4.5,4.8c-1,1.1-1.8,2.4-2.4,3.7C1.1,13.5,1,14.1,1,14.6c0,0.5,0,0.8-0.1,1.1
		c0,0.5,0,0.6,0.1,0.4c0.1-0.2,0.2-0.7,0.3-1.3c0.2-0.6,0.4-1.3,0.7-2.1c0.5-1.5,1.5-2.8,2-3.4c0.6-0.5,0.6-0.2,0,1.6
		C3,11,2.4,12.3,2.3,14.3c-0.1,1,0,2.1,0,3.4c0,0.1,0,0.2,0,0.3c0,0.4,0,0.7,0,1c0,0.9,0,1.7-0.1,2.7c-0.7,2.8-0.4-5.9-1.2-2.9
		c0.9,1.3,0.3,3.1,0.5,6.2c-0.9-0.7-0.1,6.5-1.1,4.6l1.7,10.9c-0.5,1.8-0.4,4.9-0.3,7.3c0-3.8,0.6-2,1.1-2.1c0,2.5-0.1,4.8-0.2,6.7
		c0,1-0.1,1.9-0.1,2.8c0-0.3-0.1-0.7-0.1-1c-0.5-1-1.7,4.6-2.1,4.8c0.4,6.5,1.3,10.3,1.8,15.3l-1-0.1c0.7,1.1,1,7.1,1.6,3.8
		c0.5,4.1-0.8,3.1-0.3,7.7c-1-0.4-1.1-3.2-1.9-3.2L1,86.8c-0.4-1.3-0.3,2.4-0.7,1.2c1.2,7.5-0.5,10.5,0.1,18.3l0.2-4.3
		c0.6,0,0.5,2.5,0.7,4.4c-0.8,2.1-0.7,3.4-1,7.4c0.4,3.4,1.4,5.3,1.4,10c-1.1-1-0.6,7.7-1.5,8.6c1.1,1,0.4,9,1,9.6
		c0.2,2.5,0.1,5.9-0.5,5.9c0-0.4-0.1-1.1-0.2-1.9l0,2.5c-0.1-0.2-0.2-0.1-0.2-0.4c0,2.2,0.7,2.2,0.2,5.1c-0.3,0-0.3-1.6-0.4-2.8
		c-0.2,5.9,1.6,10.3,0.6,15.2c0.5,1,0.5,7.8,1.7,6.3c-0.4,1.8-1.3,1.1-1.1,6.1c0.9,2.9-0.3,5.5,0.3,9.3c-1-5-0.3,0-1.2-4.4
		c-0.4,3.4,0.9,8.4,0.7,14.3c-0.2,0.6-0.5,0.6-0.7,1.2c0.3,2.2,1.1,4.7,0.3,6.8l0.7-0.3c-0.3,4-0.1,9.6-0.9,13.9l1.3,5
		c-1.4,6.7-0.1,15.8,1,21.1c0,0,0,0.1,0,0.1c-0.1,0.5-0.3,1-0.4,1.6c0.1,0.1,0.3,0.3,0.3,0.5c-0.1,2-0.3,3.9-0.5,3.9
		c-0.1-0.6-0.3-1.5-0.5-2.7c0,3.6-0.8,8.1,0.3,10.1c0.3,3.7-0.7,2.7-0.9,5.5c0.7,3.8,0.5,9.3,0.3,14.2c0,1.2-0.1,2.4-0.1,3.5
		c0,0.5,0,1.1,0,1.7c0,0.6,0.1,1.1,0.2,1.5c0.4,1.9,1.2,3.2,2,3.5c-0.6-1.4-1.2-3.7-1.1-6.3c0-1.2,0.1-2.5,0.1-3.8
		c0.2-0.4,0.6,1.4,0.7,1.2l-0.7-2.1c0-1,0-2,0-3l0.1-0.2c0.3,0.7,0.6,0.1,0.6,2c0,1.5,0,2.8-0.1,4c0,0.9-0.1,1.7-0.1,2.5
		c-0.2-0.5-0.4-0.8-0.5,0.4c0.2,0.2,0.3,0.3,0.4,0.4c0,0,0,0,0,0c0,0.7,0.1,1.3,0.2,2c0,0,0,0,0,0.1c-0.1,0.2-0.1,0.6,0.1,1.5
		c0.2,0.7,0.4,1.8,1.1,3.2c-0.2,0-0.4,0.1-0.6,0.1c1,2.5,3,4.5,5.3,5.8c2.3,1.3,4.9,1.7,7.2,1.6c4.6-0.3,8.8-0.7,12.8,0.3
		c0.3,0,0.7,0,1-0.1c2.1,0.6-2.5,1.2-6.2,1.2c-1.8-0.4,1.3-0.7,1.9-1c-1.9-0.1-3.4-0.4-5.2-0.2c2.4,0.6,0.8,1.5-3.5,1.8
		c9.5,0.7,17.1-1.4,26.6-1.2c-1,0.2-0.7,0.5-1.2,0.7c11-0.1,24.5-0.4,28.9,0.2c3.7,0.2,4.4-0.9,9-1.2l2.1,0.8
		c2.5-0.5,10.2,0.4,7.5-0.9c-0.3-0.1-2.2,0.6-4.3,0.4l0.3-0.4l-5,0.2l1.6-0.6c-6.8-0.8-4.7,1.7-13.1,1.2l0.1-1.1
		c-5.6-0.1-8.4,0.3-13.2-0.4c0,0,0,0.6,0.9,0.3c0.9,0.1,2.1,0.5,1.5,0.8c-8.4,0.9,1.3-0.7-4.6-1.1c-1.3,0.1-2.8,0.3-4.4,0.4
		c-1.3-0.1-3-0.1-3.8,0.1c0.4,0,1,0.1,1.6,0.1c-6.5,0.4-14.1,0.6-17.5,0.1c4.5-0.3,10-0.5,13.1-1.2l-0.3,0.4
		c2.5-0.2,10.6-0.9,5.3-1.7l-1.3,0.4c-5.9,0.7-4.3-0.7-8.9-1c-5.6,0.2-8.7,1.9-13.7,1.5c-2.2,0.1-1.8-0.4-1.2-0.7
		c-2.5-0.1-4.2,0.2-5.7,0.6c-0.4,0.1-0.8,0.2-1.2,0.2c-0.3,0-0.7-0.1-1-0.1c-0.5-0.1-1.1-0.2-1.6-0.4c-0.2,0.1-0.5,0.2-0.8,0.3
		c-0.1-0.3-0.3-0.6-0.6-0.9c0,0-0.1-0.1-0.2-0.1c0.5,0,0.8-0.1,0.6-0.3c-0.6-0.2-1.2-0.3-1.9-0.6c0,0,0,0-0.1,0
		c-0.9-0.6-2.1-1.3-3.3-2.2c0.3,0.2,0.5,0.4,0.8,0.5c0.5,0.3,1,0.6,1.5,0.7c0.5,0.2,1,0.3,1.4,0.3c-0.5-0.3-0.9-0.6-1.2-0.8
		c-0.3-0.2-0.6-0.4-0.8-0.6c-0.5-0.3-0.8-0.5-1.1-0.7c-0.3-0.2-0.7-0.4-1.2-0.9c-0.2-0.2-0.5-0.5-0.8-0.9c-0.1-0.2-0.3-0.4-0.4-0.6
		c-0.1-0.2-0.3-0.5-0.4-0.8l0.9-0.2c-0.9-1.3-1.5-2.7-1.9-4.3c-0.5,1.2-0.8,1.4-1.1,1.6c0,0,0-0.1,0-0.1c-0.1-0.6-0.2-1.1-0.2-1.6
		c0,0,0,0,0-0.1c0.2,0.2,0.4,0.3,0.6,0.3c-0.2-0.2-0.4-0.7-0.6-1.1c0-0.2,0-0.4,0-0.7c0.1-1.1,0.3-2.1,0.5-3
		c-0.1-2.2-0.1-4.7-0.2-7.4l0.6-3c-0.1-2.3-0.3-4.2-0.7-5.8c0.2-0.7-0.1-5.9,0.7-4.9c-0.8-0.7-0.8-3.6-0.7-7c0.3-1.9,0.8-3,1.2-2.4
		l-0.4-5.1c-0.2-0.7-0.4-0.7-0.7-0.4c-0.1-1.7-0.4-2.8-1-3.1c0.7-8-0.2-0.3,0.4-9.6c0.3,0,0.3,1.6,0.3,2.2c0-0.3,0.1-0.6,0.1-0.9
		c0.2,1.1,0.4,2.2,0.7,3l-0.8,4.9l1.3-1.7c0.4-2-1-4-0.1-5.2c0.5-0.6,0.6,1.4,0.8,2.8c-0.3-3.2,1-8.7,0.8-15.1
		c-0.1-6.8-2.1-5.2-2.7-9.6l1.3,12c-0.4-1.1-0.8-0.7-0.9-3.4c-0.2,5.3,0.6,6,0.5,10.4c-1,1.1-0.4-5.2-0.8-5.6c0,0,0,0,0-0.1
		c0.2-7.4-0.7-1.2-1.3-5.7c0.3-7.7,0.6-5.5,1.6-9.8c-0.4-0.2-0.5-0.8-0.7-1.6c0-1.1,0-1.6,0.1-1.9c-0.1,0.2-0.2,0.5-0.2,0.8
		c-0.1-1.8-0.1-4.2-0.4-6.4c-0.1,0.9-0.3,6.2-0.7,2.7c0.2-9-0.8-7.2-1.1-15.6c1.3-4.2,0,8.4,1.1,1c0.6,5.3,0.5,9.3,1.5,12.2
		c0-0.5,0-0.9,0-1.4l0.6,5c-0.1,0.7-0.4,1-0.6,1.5c0.3-0.3,0.8,1.4,1,1.2c1.1-2.9-0.4-7.6-0.6-11c0.5-8.9,0.6,0.4,1.7-3.1
		c0,2.5-0.3,2.6-0.4,6c1.3-5.4,0.1-12.2-0.2-15.7c-0.1,1-0.5,1.3-0.4,3.2L4,181.7c-0.5,2.1-0.8,4-1,6.8c-0.1-4.2-0.3-8.5-0.6-12.5
		c0.2-4.3,0.6,2.2,0.7-1.2c0-0.5,0.1-0.9,0.1-1.4c0.3,0.1,0.6,0.3,0.5,3.3c0.8,0.7,0.4-6,1-7.1c0.6,2-0.3,5.7,0.6,5.4
		C5.7,165,4,146.3,3.6,131l0.7,1.6C3.8,124.7,3.8,112,5,105.7c-0.7,1.5,0.4-11.6-1.2-10.4c0.4-2,0.3-2.6,0.4-5.4L3.7,89
		c0-4,0.8-3.4,0.8-8C3.8,84,3.5,80.9,3,79.5c0-0.2,0-0.3,0-0.5c0.7-5.2,1.4-11.2,2-15.8c-0.2,0.4-0.5,0.8-0.8,2.4
		c0.2-3.2-0.4-2.7-0.7-3.5c0-3.1,0.9-2.8,1.3-2.6c0.3-5.7-1.4-8.2-0.9-12.5l-0.7,1.5c0-1.3,0-2.6,0-3.9c0.1-0.4,0.1-1,0.2-1.7
		c0-0.4,0-0.7,0-1.1c0.2-3.3,0.4-6.6,0.2-10.5c1-3.1,0.8,5.3,1.3,8c0.2-1.3,0.3-4.1,0.6-5c-0.5-2.8-1.2-7.4-1.7-10.8
		c0.6,1.6,0.8,0.4,1-1.5C5,21,5,19.9,5,18.9c0-1,0-2,0.1-2.4c-0.1,0.1-0.2,0.2-0.3,0.4c-0.1,0.2-0.2,0.6-0.2,1
		c-0.1,0.9-0.1,2.1-0.1,3.8c-0.3-0.2-0.4-1.4-0.5-2.8c0-0.7-0.1-1.4-0.1-2.1c0-0.6-0.1-1.2-0.1-1.7c-0.4,1.8-0.5,2-0.7,1.7
		c0-0.6,0.1-1.3,0.3-1.9c0.4-1.9,1.2-3.6,2.3-5c0,0,0,0,0,0.1c-0.1,0.2-0.2,0.4-0.3,0.7c-0.1,0.3-0.3,0.7-0.5,1.2
		c0.8-1.5,1-0.6,1.3-0.3c0.7-1.9,1.7-3.2,2.7-4.1c1-0.9,2-1.6,3-2.4c1.2-0.2,0.8,0,0.5,0.2C12.2,5.3,12,5.4,12,5.4c0,0,0.2,0,0.8,0
		c0.9-0.6,2-0.9,3.1-1.3c1.2,0,0.6,0.2,0.2,0.4c-0.4,0.2-0.7,0.3,1.2,0.3c0.5-0.3,4.1-0.7,7.5-0.6l-1,0.2c2.4-0.2,5.7,0,5.3-0.7
		l1.7,0.6c0.3,0,0.5,0,0.8,0l0.4,0.1l-0.1-0.1c1.5,0,3-0.1,4.5-0.1c4.2,0.5,7.4,1.2,14.3,0.6c-2.2-0.2-0.2-0.6,1-0.7
		c-3.9-0.5-4.8,0.5-8.5,0.6C43,4.5,43.6,4.2,44.4,4c3.2-0.1,6.6-0.2,10-0.2c0.5,0.2,1,0.4,1.4,0.7c5.9,0.1,8.1-0.7,14.1-0.3
		l-0.2,0.2c1.1-1.1,4.9,0.5,9.3-0.6l-2.8-0.2c4.9,0,9.8,0.1,14.5,0.3l-1.5-0.8c4.5,0.2,8.2-0.2,11.9-0.5l2.6,1
		c-1.9-0.1-3.7,0.1-3.5-0.4c-2.3,0.5-1.2,0.9,0.1,1.3c-4.9,0.2-5.7-0.3-9.4,0.6c8.1,1,6.8-0.9,16.1,0l2.5-1.7c3.8,0.2-1,0.7,2.5,1
		c3.5-0.5-2.9-1-1.4-1.7c0.5,0.1,0.9,0.2,1.4,0.3l1.4-0.4c0.3,0,0.6,0,0.9,0c0,0.4,1.5,1.1-0.4,1.5c2.4-0.3,5,0,7.5-0.2l-1.3-0.1
		c1.3,0,3.1,0.2,4.7,0.3c0.2,0.2,0,0.5-0.6,0.7c6.8-0.1,9.6-0.7,17.3-0.1c1.1-0.2,1.4-0.5,1.3-0.7l0.5,0c0,0.2,0.3,0.4,0.9,0.6
		c2,0.4,3.7-0.1,5.8-0.2c-6-0.4,0-1,0.5-1.4c2.6,0.3,7-0.3,6,0.4L152.5,4C163.2,4.3,177.1,4.2,190,4c2,0.4,4.2,0.8,8,0.5
		c5.6-0.5-0.6-0.8-0.2-1.2c3.1,0,6.2-0.5,8.7-0.2c-0.2,0.3-0.9,0.4-1.8,0.5c0.2-0.1,0.3-0.2,0.3-0.3c-2.9-0.1-3.3,0.1-2.3,0.4
		c0.4,0.2,0.8,0.3,1.3,0.3c0,0,0,0,0,0c0,0,0,0,0,0c1.3,0,3-0.4,5.3,0.1c-0.3-0.1-1.5-0.3-0.6-0.5c6.1,0.2,5.8-0.4,9.5-0.4
		c-0.4,0.1-1,0.2-2.1,0.1c4.3,0.9,10.6,0.3,16,0.5c0.9,0,1.7-0.1,2.3-0.2c0.8,0.1,1.7,0.2,3,0.3c-0.1-0.1-0.5-0.4-1-0.6
		c1.5-0.4,0.7-0.9,1.8-1.2c1.6,0.1,2.8,0.2,3.9,0.2l-1.1,1.2c4.9-0.1,10.9,0,16.6-0.1l-0.1,0.3c3.4-0.2,9.3-0.8,13.6-0.1l-1,0.5
		c2.2-0.2,4.4-0.3,6.7-0.4c1.1,0,2.3-0.1,3.5-0.1c0.6,0,1.2,0,1.7,0c0.5,0,1,0,1.5,0.1c2,0.2,4,1,5.6,2c1.6,1,2.9,2.4,3.9,3.8
		c0.5,1.1,0.8,2.3,1,3.5c0.2,0.5,0.3,1,0.5,1.3c0.1,0.4,0.2,0.6,0.2,0.8c0.1,0.4,0.2,0.4,0.2,0.3c0-0.2,0-0.6,0-1.1
		c-0.1-0.5-0.2-1.1-0.3-1.8c-0.3-1.3-0.9-2.6-1.1-3.2c-0.2-0.5,0-0.7,0.7,0c0.2,0.3,0.4,0.6,0.6,0.9c-0.4,0.9,0.3,1.8,0.9,3.5
		c0.4,0.8,0.6,1.9,0.8,3.1c0,0,0,0,0,0.1c0,1,0,1.9,0.1,2.7c0,0.4-0.1,0.9-0.1,1.4c-0.7,2.8-0.4-5.9-1.2-2.9
		c0.9,1.3,0.3,3.1,0.5,6.2c-0.9-0.7-0.1,6.5-1.1,4.6l1.7,10.9c-0.5,1.8-0.4,4.9-0.3,7.3c0-3.8,0.6-2,1.1-2.1c0,3.1,0,6.1-0.2,8.4
		c0,0.5,0,1,0,1.4c0-0.5-0.1-1-0.2-1.4c-0.5-1-1.7,4.6-2.1,4.8c0.4,6.5,1.3,10.3,1.8,15.3l-1-0.1c0.7,1.1,1,7.1,1.6,3.8
		c0.5,4.1-0.8,3.1-0.3,7.7c-1-0.4-1.1-3.2-1.9-3.2l0.5,4.1c-0.4-1.3-0.3,2.4-0.7,1.2c1.2,7.5-0.5,10.5,0.1,18.3l0.2-4.3
		c0.6,0,0.5,2.5,0.7,4.4c-0.8,2.1-0.7,3.4-1,7.4c0.4,3.4,1.4,5.3,1.4,10c-1.1-1-0.6,7.7-1.5,8.6c1.1,1,0.4,9,1,9.6
		c0.2,2.5,0.1,5.9-0.5,5.9c0-0.4-0.1-1.1-0.2-1.9l0,2.5c-0.1-0.2-0.2-0.1-0.2-0.4c0,2.2,0.7,2.2,0.2,5.1c-0.3,0-0.3-1.6-0.4-2.8
		c-0.2,5.9,1.6,10.3,0.6,15.2c0.5,1,0.5,7.8,1.7,6.3c-0.4,1.8-1.3,1.1-1.1,6.1c0.9,2.9-0.3,5.5,0.3,9.3c-1-5-0.3,0-1.2-4.4
		c-0.4,3.4,0.9,8.4,0.7,14.3c-0.2,0.6-0.5,0.6-0.7,1.2c0.3,2.2,1.1,4.7,0.3,6.8l0.7-0.3c-0.3,4-0.1,9.6-0.9,13.9l1.3,5
		c-1.4,6.7-0.1,15.8,1,21.1c0,0.7,0,1.4-0.1,2.2c-0.1,0.4-0.2,0.8-0.3,1.3c0.1,0.1,0.2,0.2,0.2,0.3c-0.1,1.4-0.2,2.4-0.4,2.4
		c-0.1-0.6-0.3-1.5-0.5-2.7c0,3.6-0.8,8.1,0.3,10.1c0.3,3.7-0.7,2.7-0.9,5.5c0.7,3.8,0.5,9.3,0.3,14.2c0,1.2-0.1,2.4-0.1,3.5
		c0,0.6,0,1.1,0,1.5c0,0.5-0.1,0.9-0.1,1.3c-0.2,1.7-0.4,2.9-0.1,3.7c0.6-1.4,1.4-3.5,1.5-6.1c0-0.6,0-1.2,0.1-1.9
		c0.2-1,0.6,0.8,0.7,0.9c0,0.8-0.1,1.6-0.2,2.4c0,0.1-0.1,0.3-0.1,0.4c-0.1-0.3-0.3-0.2-0.4,0.7c0.1,0.1,0.1,0.2,0.2,0.4
		c-0.2,0.8-0.4,1.6-0.8,2.4c-0.2,0.2-0.4,0.5-0.8,1.1c-0.3,0.4-0.6,0.9-1.1,1.5c-0.2-0.3-0.3-0.5-0.5-0.8c-1.5,1.9-3.2,3.4-5.1,4.5
		c-1.8,1.2-3.9,2-6.1,2.3c-4.5,0.5-8.8,0.8-12.7-0.2c-0.3,0-0.7,0-1,0.1c-2.1-0.6,2.5-1.2,6.2-1.2c1.8,0.4-1.3,0.7-1.9,1
		c1.9,0.1,3.4,0.4,5.2,0.2c-2.4-0.6-0.8-1.5,3.5-1.8c-9.5-0.7-17.1,1.4-26.6,1.2c1-0.2,0.7-0.5,1.2-0.7c-11,0.1-24.5,0.4-28.9-0.2
		c-3.7-0.2-4.4,0.9-9,1.2l-2.1-0.8c-2.5,0.5-10.2-0.4-7.5,0.9c0.3,0.1,2.2-0.6,4.3-0.4l-0.3,0.4l5-0.2l-1.6,0.6
		c6.8,0.8,4.7-1.7,13.1-1.2l-0.1,1.1c5.6,0.1,8.4-0.3,13.2,0.4c0,0,0-0.6-0.9-0.3c-0.9-0.1-2.1-0.5-1.5-0.8c8.4-0.9-1.3,0.7,4.6,1.1
		c1.3-0.1,2.8-0.3,4.4-0.4c1.3,0.1,3,0.1,3.8-0.1c-0.4,0-1-0.1-1.6-0.1c6.5-0.4,14.1-0.6,17.5-0.1c-4.5,0.3-10,0.5-13.1,1.2l0.3-0.4
		c-2.5,0.2-10.6,0.9-5.3,1.7l1.3-0.4c5.9-0.7,4.3,0.7,8.9,1c5.6-0.2,8.7-1.9,13.7-1.5c2.2-0.1,1.8,0.4,1.2,0.7
		c2.5,0.1,4.2-0.2,5.7-0.6c0.4-0.1,0.8-0.2,1.2-0.3c0.3,0,0.6,0,0.9,0c0.5,0,1.1-0.1,1.6-0.1c0.3-0.3,0.5-0.6,0.8-0.9c0,0,0,0,0,0
		c0.3,0.4,0.7,0.5,1.3,0.5c-0.1,0.1-0.2,0.1-0.2,0.2c-0.5,0.4-0.7,0.6-0.4,0.7c0.7-0.3,1.5-0.7,2.3-1.2c0.2-0.1,0.3-0.1,0.5-0.2
		c0.8-0.4,1.7-0.9,2.5-1.6c-0.1,0.1-0.2,0.3-0.4,0.4c-0.5,0.5-0.9,0.9-1.4,1.3c-0.5,0.4-0.9,0.8-1.2,1.1c0.7-0.2,1.2-0.5,1.7-0.7
		c0.5-0.2,0.8-0.5,1.1-0.7c0.6-0.4,0.9-0.8,1.2-1.2c0.3-0.4,0.6-0.8,1.1-1.4c0.2-0.3,0.5-0.6,0.8-1.1c0.2-0.2,0.3-0.5,0.5-0.7
		c0.2-0.3,0.4-0.6,0.6-0.9l0.6,0.7c1-1.8,1.6-3.8,1.9-5.9c-0.6,0.8-1.1,1-1.4,1.1c-0.1,0.1-0.2,0.1-0.3,0.1c0.2-0.6,0.3-1.2,0.4-1.8
		c0-0.1,0-0.1,0-0.2c0.2,0.3,0.3,0.6,0.5,0.5c-0.1-0.3-0.2-1.2-0.4-1.7c0-0.2,0.1-0.3,0.1-0.5c0.1-0.6,0.1-1.2,0.2-1.7
		c0.1-1.1,0.3-2.1,0.5-3c-0.1-1.7-0.1-3.7-0.1-5.7l0.6-2.9c-0.1-2.9-0.5-5.1-0.9-6.8c0-0.4-0.1-0.9-0.1-1.3c0.8,3.1,0.1-5.6,1-4.3
		c-0.6-0.5-0.8-2.4-0.7-4.8c0.3-2.2,0.8-3.5,1.3-2.8l-0.4-5.1c-0.2-0.6-0.4-0.7-0.7-0.5c0-1.4-0.1-2.7-0.3-3.6l1.3-1.7
		c0.4-2-1-4-0.1-5.2c0.5-0.6,0.6,1.4,0.8,2.8c-0.3-3.2,1-8.7,0.8-15.1C299.9,214.3,297.9,215.9,297.2,211.4z M15.6,296.6
		c0,0-0.1,0-0.1,0c-0.7,0-1.5,0-2.3-0.2c0,0,0,0,0,0C14,296.6,14.8,296.6,15.6,296.6z M3.4,268.3c-0.1-1.7-0.2-3.4-0.3-5.1
		c0.3,0.6,0.4,1.9,0.3,3.5C3.5,267.3,3.5,267.8,3.4,268.3z M2.9,225.3c0,0.8,0,1.6,0.1,2.4C2.9,226.9,2.8,226.1,2.9,225.3z M2,137.9
		c1.7,0.1-0.9-10,0.3-17c-1.1,0.6-1.7-6.3-1.8-10.6c0.3-1.5,0.7-1.2,1-1.2c-0.5,6.2,0.7,6.8,1.4,10.5c0,5.9-0.1,11.9-0.2,17.9
		C2.4,138.3,2.2,138.8,2,137.9z M2.9,116.9c-0.1-4.2,0.1-8.9-0.5-11.8l0.5,0.9C2.9,109.7,3,113.3,2.9,116.9z M2.7,151.2
		c0.1,2,0.2,4.1,0.2,6C2.7,155.7,2.7,153.6,2.7,151.2z M4.3,161.5C3.1,161,4,167,3.2,169.5c-0.3-4.6-1.2-8.1-0.8-12.7l0.5,1
		c0,1.2,0,2.4-0.1,3.5C3.1,160.6,4.1,159.6,4.3,161.5z M3.9,141.1c-0.6,1.1,0,5.6-0.8,4.9c0.2-1.3,0-2.5,0-4c-0.1,0.5-0.2,1-0.2,1.5
		c0-1.8,0-3.6-0.1-5.3L3.9,141.1z M2.9,102.3c-0.5-2.3-1.3-3.4-0.7-8.1l0.6,0.7c0-2.8,0-5.7,0.1-8.6C2.9,91.6,2.9,96.9,2.9,102.3z
		 M18.9,4.1c-0.4,0-0.8,0-1.2,0c-0.2,0-0.4,0-0.7,0c-0.2,0-0.4,0-0.6,0c0.4-0.1,0.8-0.2,1.1-0.2c0.1,0.1,0.2,0.1,0.2,0.2
		c4.7-0.2,3-0.4,1.4-0.6c0,0,0.1,0,0.1,0c0.2-0.2-0.3-0.3-1-0.4c-0.1,0-0.1,0-0.2,0c2-0.1,3.7,0.1,4.7,0.4c-0.5,0.3-1.1,0.5-2,0.6
		C20.2,4.1,19.7,4.1,18.9,4.1z M181.8,1.9c-0.4,0.1-0.8,0.2-1.2,0.2c-0.1-0.1-0.2-0.3-0.3-0.3L181.8,1.9z M117,3.3
		c0.4-0.1,0.8-0.2,1.2-0.2c0.1,0.1,0.2,0.2,0.3,0.3L117,3.3z M124.6,3.7c0,0,0.1,0.1,0.1,0.1c-0.5-0.1-0.6-0.2-0.4-0.2
		C124.5,3.6,124.5,3.7,124.6,3.7c0.8-0.1,1.4-0.2,1.7-0.3c0.9-0.1,1.5-0.2,0.3-0.4c-0.1-0.1-0.4-0.2-0.8-0.2c1-0.6,6.2-0.9,8.3-0.5
		c-0.2,0.5-2.1,0.4-3.6,0.4c-1.1,0.8,2.8,0.5,4.3,1c-0.2,0-0.5,0.1-0.8,0.1C132.7,3,128.4,3.9,124.6,3.7z M143.5,3.6l-1-0.1
		c-0.2-0.1-0.4-0.2-0.6-0.3c5.7-0.4,12.4-0.7,13.4-1.5l1,0.1c0.2,0.1,0.4,0.2,0.6,0.3C151.2,2.5,144.5,2.8,143.5,3.6z M164.5,3
		c0.2-0.5,2.1-0.4,3.6-0.4c1.1-0.8-2.8-0.5-4.3-1c0.2,0,0.5-0.1,0.8-0.1c1.5,0.7,5.7-0.2,9.5,0c0,0-0.1-0.1-0.1-0.1
		c0.5,0.1,0.6,0.2,0.4,0.2c-0.1,0-0.2-0.1-0.2-0.1c-0.9,0.1-1.4,0.2-1.8,0.3c-0.9,0.1-1.5,0.2-0.3,0.4c0.1,0.1,0.4,0.2,0.8,0.2
		C171.9,3.1,166.7,3.4,164.5,3z M276,1.9c0.5-0.3,1.1-0.5,2-0.6c0.5-0.1,1.1-0.1,1.8-0.1c0.4,0,0.8,0,1.2,0c0.2,0,0.4,0,0.7,0
		c0.3,0,0.5,0.1,0.8,0.1c-0.5,0-1,0.1-1.3,0.1c-0.1-0.1-0.2-0.1-0.2-0.2c-4.7,0.2-3,0.4-1.4,0.6c0,0-0.1,0-0.1,0
		c-0.2,0.2,0.3,0.3,1,0.4c0.1,0,0.1,0,0.2,0C278.8,2.4,277.1,2.1,276,1.9z M297.9,142c-0.6,1.1,0,5.6-0.8,4.9c0.2-1.3,0-2.5,0-4
		c-0.1,0.6-0.2,1.2-0.3,1.9c0-1.9,0.1-3.8,0-5.6L297.9,142z M296.7,151c0,1.7,0.1,3.4,0.2,5C296.7,154.7,296.7,153,296.7,151z
		 M297,116.9c-0.1-4.4,0.1-9.5-0.5-12.6l0.5,1C297,109.1,297,112.9,297,116.9z M296.2,93.4l0.6,0.7c0-3.2,0-6.4,0.1-9.8
		c0,5.7,0,11.4,0,17.2C296.5,99.1,295.7,98.1,296.2,93.4z M296,137.1c1.7,0.1-0.9-10,0.3-17c-1.1,0.6-1.7-6.3-1.8-10.6
		c0.3-1.5,0.7-1.2,1-1.2c-0.5,6.2,0.8,6.8,1.4,10.6c0,5.9-0.1,11.8-0.2,17.7C296.4,137.4,296.2,138,296,137.1z M296.4,156l0.5,1
		c0,1.8,0.1,3.6,0,5.2c0.2-0.7,1.3-1.7,1.5,0.1c-1.2-0.4-0.3,5.3-1.1,7.9C297.2,164.8,296,161.1,296.4,156z M283.7,296.4
		c0.6-0.2,1.1-0.4,1.7-0.6C284.9,296.1,284.3,296.3,283.7,296.4z M297.2,279.3c0,0.3,0,0.6-0.1,1l-0.7-2.1c0-0.9,0-1.9,0-2.9
		l0.4-0.4l-0.4-0.9c0-0.4,0-0.7,0-1.1c0.3,1.6,0.7,0.3,0.8,2.5C297.3,276.8,297.3,278.1,297.2,279.3z M297.5,267.5
		c0,0.4,0,0.8,0,1.1c0-1.3-0.1-2.7-0.2-4.1C297.5,265.2,297.6,266.3,297.5,267.5z M297.2,240.2c-0.2-0.6-0.4-1.1-0.7-1.2
		c0.7-8-0.2-0.3,0.4-9.6c0.1,0,0.1,0.2,0.2,0.4c0,0.6,0.1,1.2,0.1,1.7c0,0,0,0.1,0,0.1c0,0,0,0,0,0c0.2,1.4,0.4,2.8,0.8,3.8
		L297.2,240.2z"/>
	<polygon class="st0" points="298.6,210.9 299.1,210.2 298.5,210.7 	"/>
	<path class="st0" d="M297.1,205.8c0,0,0-0.1,0.1-0.1C297.1,205.6,297.1,205.7,297.1,205.8z"/>
	<path class="st0" d="M298.7,181.1c-0.1,0.4,0,1,0,1.9C298.8,182.6,298.8,182,298.7,181.1z"/>
	<path class="st0" d="M297.3,184.7l0.1-4.4l-0.5,1.7C297,182.6,297.1,184.8,297.3,184.7z"/>
	<path class="st0" d="M299.9,34.9c-0.1-0.1-0.2,0-0.3,0.3c0.1,0.8,0.3,1.5,0.4,1.8C299.9,36.4,299.9,35.8,299.9,34.9z"/>
	<path class="st0" d="M299.1,17.1c0,0,0.1-0.1,0.1-0.2C299.1,16.2,299.1,16.4,299.1,17.1z"/>
	<path class="st0" d="M296.6,54.3c0-0.2,0-0.6,0.1-0.8c0-0.4,0-0.7,0-1.1L296.6,54.3z"/>
	<path class="st0" d="M299.1,64c0.3-0.5,0.6-1,0.8-4.9C299.6,60.3,299.3,62.1,299.1,64z"/>
	<path class="st0" d="M299,98.5c0.1,1.2,0.3,0.5,0.6,1.4C299.6,97.3,299.4,96.5,299,98.5z"/>
	<polygon class="st0" points="299.6,23.2 299.4,21.4 299.8,28.1 	"/>
	<path class="st0" d="M275,0.9c0.8-0.1,1.5-0.2,1.9-0.4L275,0.9z"/>
	<polygon class="st0" points="205,1.9 208,1.6 207,1.3 	"/>
	<path class="st0" d="M113.9,4c-0.5,0.1-0.9,0.1-1.4,0.2C113.1,4.1,113.6,4,113.9,4z"/>
	<path class="st0" d="M1.8,47.9c0,0.7,0,1.5,0,2.6C2,51.4,1.9,50,1.8,47.9z"/>
	<path class="st0" d="M124.5,3.7C124.6,3.7,124.6,3.7,124.5,3.7C124.6,3.7,124.6,3.7,124.5,3.7C124.6,3.7,124.6,3.7,124.5,3.7z"/>
	<path class="st0" d="M0.7,74.3l0.4,0C1,74.1,0.9,74,0.7,74.3z"/>
	<path class="st0" d="M0.4,145.9l0-1.6C0.4,144.8,0.4,145.4,0.4,145.9z"/>
	<path class="st0" d="M1.4,242l-0.7,4.3l0.6-0.4C1.2,244.5,1.2,243.2,1.4,242z"/>
	<path class="st0" d="M1.3,245.8c0.1,0.9,0.2,1.7,0.3,2.5c0-0.9,0-1.8-0.1-2.6L1.3,245.8z"/>
	<polygon class="st0" points="48.6,297.4 51,297.4 48.9,297.2 	"/>
	<path class="st0" d="M104.9,296.3c3.8,0.9,19.7,0.7,28.1,0c-1.4,0.2-0.5,0.7-3.4,0.6c1.2,0.2,5.6-0.2,5.6-0.8
		c5.6-0.5,12.7-0.1,17.9,0.4l-1.5-0.6c4.4-0.9,11.1,0.7,18.8,0.2l-0.2,0c2.5-0.1,4.6-1.5,9.2-1.2c-1.3,0.7-3.7,0.6-3.5,1.3l6.9-0.9
		c1.2,0.4,9-0.1,6.5,0.7c4.1-1.1,13,0,9.6-1.6c-20.1,0.5-47.8-0.4-71.1,1l3.7-0.6c-12.1,1.2-16.6-1.3-26.3,1.1l1.3-1.2
		c-5.5-0.3-10.6,1.8-16.4,0.5l0.6,0.5c-1.5,0-2.1-0.2-3.7-0.2l0.6,0.2c-4,0.5-6.5,0.4-10.5,0.1c-0.3-0.4,1.9-0.2,3.1-0.3
		c-1.8-0.4-5,0.4-8.1,0.4c-2.4-0.3,0-0.6,0.4-0.7c-9.3,0.5-13.5-0.8-20.1,1.1c-0.6,0.3,2.4,0.6-1,0.8c6.2,0.6,11.1-0.2,16.7-0.6
		h-1.6c4.4-1.8,3.4,0.4,10.5-0.4c-1.9,0.7-5,0.7-6.2,1.1c8.2,1.4,11.8-1,17.2,0.7l-0.6,0.1c1.2,0.2,3.4-0.2,5.3-0.3
		c-0.6-0.2-2.5-0.3-3.7-0.5c1.9-0.2,2.8-1,3.5-1.3c2.1,0.8,2.8-0.4,6.2,0c1.2,0.7-2.8,0.7-4.1,1.1l4-0.5c3.7,0,3.7,0.8,5.5,1.2
		C107.3,296.9,102.3,297.1,104.9,296.3z"/>
	<path class="st0" d="M206.3,294.3c-1.9,0.2-4.3-0.2-4.7,0.3c0.3,0.1,0.3,0.4,1.5,0.3l-2.5,0.8C203.4,295.8,206.9,294.8,206.3,294.3
		z"/>
	<path class="st0" d="M257.9,293.8c-1,0-1.4,0.1-1.7,0.3c1.3,0,2.6,0,3.8,0L257.9,293.8z"/>
	<path class="st0" d="M5.1,235.3c0.1,0.6,0.1,1,0.2,1.2C5.2,236.2,5.2,235.8,5.1,235.3z"/>
	<polygon class="st0" points="4.6,210.1 5.1,209.3 4.4,209.8 	"/>
	<path class="st0" d="M3.1,204.9c0,0,0-0.1,0.1-0.1C3.1,204.8,3.1,204.8,3.1,204.9z"/>
	<path class="st0" d="M4.7,180.3c-0.1,0.4,0,1,0,1.9C4.8,181.7,4.8,181.2,4.7,180.3z"/>
	<path class="st0" d="M3.3,183.8l0.1-4.4l-0.5,1.7C2.9,181.8,3,183.9,3.3,183.8z"/>
	<path class="st0" d="M5.9,34c-0.1-0.1-0.2,0-0.3,0.3c0.1,0.8,0.3,1.5,0.4,1.8C5.9,35.5,5.8,34.9,5.9,34z"/>
	<path class="st0" d="M5.1,16.5c0,0,0.1-0.1,0.1-0.1C5.2,15.8,5.1,16,5.1,16.5z"/>
	<path class="st0" d="M2.6,53.4c0-0.2,0-0.6,0.1-0.8c0-0.4,0-0.7,0-1.1L2.6,53.4z"/>
	<path class="st0" d="M5,63.2c0.3-0.5,0.6-1,0.8-4.9C5.6,59.5,5.3,61.2,5,63.2z"/>
	<path class="st0" d="M5,97.6c0.1,1.2,0.3,0.5,0.6,1.4C5.6,96.5,5.4,95.6,5,97.6z"/>
	<polygon class="st0" points="5.8,27.2 5.5,22.3 5.3,20.5 	"/>
	<path class="st0" d="M23.7,4.4c-0.8,0.1-1.5,0.2-1.9,0.4L23.7,4.4z"/>
	<polygon class="st0" points="93.7,3.3 90.7,3.6 91.8,3.9 	"/>
	<path class="st0" d="M184.8,1.3c0.5-0.1,0.9-0.1,1.4-0.2C185.6,1.1,185.2,1.2,184.8,1.3z"/>
	<path class="st0" d="M295.8,47.1c0,0.7,0,1.5,0,2.6C296.1,50.6,295.9,49.2,295.8,47.1z"/>
	<path class="st0" d="M174.2,1.5C174.2,1.5,174.1,1.5,174.2,1.5C174.1,1.5,174.1,1.5,174.2,1.5C174.2,1.5,174.2,1.5,174.2,1.5z"/>
	<path class="st0" d="M294.7,73.5l0.4,0C295,73.3,294.9,73.2,294.7,73.5z"/>
	<path class="st0" d="M294.5,145l0-1.6C294.4,144,294.4,144.5,294.5,145z"/>
	<path class="st0" d="M295.4,241.1l-0.7,4.3l0.6-0.4C295.2,243.7,295.2,242.3,295.4,241.1z"/>
	<path class="st0" d="M295.3,245c0.1,0.9,0.2,1.7,0.3,2.5c0-0.9,0-1.8-0.1-2.6L295.3,245z"/>
	<polygon class="st0" points="250.2,296 247.7,295.9 249.8,296.2 	"/>
	<path class="st0" d="M247.4,296.4c-6.2-0.6-11.1,0.2-16.7,0.6h1.6c-4.4,1.8-3.4-0.4-10.5,0.4c1.9-0.7,5-0.7,6.2-1.1
		c-8.2-1.4-11.8,1-17.2-0.7l0.6-0.1c-1.2-0.2-3.4,0.2-5.3,0.3c0.6,0.2,2.5,0.3,3.7,0.5c-1.9,0.2-2.8,1-3.5,1.3
		c-2.1-0.8-2.8,0.4-6.2,0c-1.2-0.7,2.8-0.7,4.1-1.1l-4,0.5c-3.7,0-3.7-0.8-5.5-1.2c-3.1,0.6,1.8,0.4-0.7,1.2
		c-3.8-0.9-19.7-0.7-28.1,0c1.4-0.2,0.5-0.7,3.4-0.6c-1.2-0.2-5.6,0.2-5.6,0.8c-5.6,0.5-12.7,0.1-17.9-0.4l1.5,0.6
		c-4.4,0.9-11.1-0.7-18.8-0.2l0.2,0c-2.5,0.1-4.6,1.5-9.2,1.2c1.3-0.7,3.7-0.6,3.5-1.3l-6.9,0.9c-1.2-0.4-9,0.1-6.5-0.7
		c-4.1,1.1-13,0-9.6,1.6c20.1-0.5,47.8,0.4,71.1-1l-3.7,0.6c12.1-1.2,16.6,1.3,26.3-1.1l-1.3,1.2c5.5,0.3,10.6-1.8,16.4-0.5
		l-0.6-0.5c1.5,0,2.1,0.2,3.7,0.2l-0.6-0.2c4-0.5,6.5-0.4,10.5-0.1c0.3,0.4-1.9,0.2-3.1,0.3c1.8,0.4,5-0.4,8.1-0.4
		c2.4,0.3,0,0.6-0.4,0.7c9.3-0.5,13.5,0.8,20.1-1.1C247,296.8,244,296.5,247.4,296.4z"/>
	<path class="st0" d="M92.5,299.1c1.9-0.2,4.3,0.2,4.7-0.3c-0.3-0.1-0.3-0.4-1.5-0.3l2.5-0.8C95.3,297.5,91.9,298.5,92.5,299.1z"/>
	<path class="st0" d="M40.9,299.6c1,0,1.4-0.1,1.7-0.3c-1.3,0-2.6,0-3.8,0L40.9,299.6z"/>
</g>
</svg>
