<?xml version="1.0" encoding="utf-8"?>
<!-- Generator: Adobe Illustrator 25.2.0, SVG Export Plug-In . SVG Version: 6.00 Build 0)  -->
<!DOCTYPE svg PUBLIC "-//W3C//DTD SVG 1.1//EN" "http://www.w3.org/Graphics/SVG/1.1/DTD/svg11.dtd" [
	<!ENTITY ns_extend "http://ns.adobe.com/Extensibility/1.0/">
	<!ENTITY ns_ai "http://ns.adobe.com/AdobeIllustrator/10.0/">
	<!ENTITY ns_graphs "http://ns.adobe.com/Graphs/1.0/">
	<!ENTITY ns_vars "http://ns.adobe.com/Variables/1.0/">
	<!ENTITY ns_imrep "http://ns.adobe.com/ImageReplacement/1.0/">
	<!ENTITY ns_sfw "http://ns.adobe.com/SaveForWeb/1.0/">
	<!ENTITY ns_custom "http://ns.adobe.com/GenericCustomNamespace/1.0/">
	<!ENTITY ns_adobe_xpath "http://ns.adobe.com/XPath/1.0/">
]>
<svg version="1.1" id="Layer_1" xmlns:x="&ns_extend;" xmlns:i="&ns_ai;" xmlns:graph="&ns_graphs;"
	 xmlns="http://www.w3.org/2000/svg" xmlns:xlink="http://www.w3.org/1999/xlink" x="0px" y="0px" width="300px" height="300px"
	 viewBox="0 0 300 300" style="enable-background:new 0 0 300 300;" xml:space="preserve">
<style type="text/css">
	.st0{fill:#dee2e6;}
</style>
<metadata>
	<sfw  xmlns="&ns_sfw;">
		<slices></slices>
		<sliceSourceBounds  bottomLeftOrigin="true" height="298.8" width="300" x="246" y="-457.8"></sliceSourceBounds>
	</sfw>
</metadata>
<g>
	<path class="st0" d="M3.4,229.6c0-0.3,0-0.4,0-0.6c0-0.6,0-1.4,0-2.7C3.3,227.1,3.3,223.2,3.4,229.6z"/>
	<path class="st0" d="M3.4,229C3.5,231.8,3.6,227.1,3.4,229L3.4,229z"/>
	<path class="st0" d="M3.2,216.2c-0.1-0.3,0,0.5,0.1,2.2l-0.1-4.1C3,214.8,2.9,214.9,3.2,216.2z"/>
	<polygon class="st0" points="3.6,176.8 3.8,179.2 3.5,175 	"/>
	<path class="st0" d="M3.5,166.4c0.2,1.7,0.3-2.4,0.4-0.5c0-2.8-0.2-5.3-0.3-7.5C3.7,160.7,3.7,163.2,3.5,166.4z"/>
	<path class="st0" d="M299.1,103.2l0.1,2.1C299.2,104.3,299.1,103.7,299.1,103.2z"/>
	<path class="st0" d="M299.1,88.2l-0.1-0.4C299.1,88.5,299.1,88.8,299.1,88.2z"/>
	<path class="st0" d="M112.4,4.4l-0.9-0.3c-2.1,0-3.7,0-5.1,0C109.4,4.3,112.8,4.6,112.4,4.4z"/>
	<path class="st0" d="M299.4,185.1l0.3,2.4C299.7,183.7,299.5,185.4,299.4,185.1z"/>
	<path class="st0" d="M296.4,97.3c0,1.3,0.1,1.8,0.2,1.8C296.5,97.8,296.5,97,296.4,97.3z"/>
	<path class="st0" d="M3.2,15c0,0.5,0,0.9-0.1,1.4c0,1.9,0.1,3.8,0.1,6.1C3.3,20.2,3.4,17.6,3.2,15z"/>
	<path class="st0" d="M113.4,299.2c-0.2,0-0.5,0-0.7,0C112.6,299.2,112.9,299.3,113.4,299.2z"/>
	<path class="st0" d="M3.3,86C3.3,88,3.3,86.3,3.3,86L3.3,86z"/>
	<path class="st0" d="M3.2,88.9c0-0.7,0-1.6,0.1-2.5C3.2,86.8,3.2,87.6,3.2,88.9z"/>
	<path class="st0" d="M3.3,88.5c0,0.7,0,1.2,0,1.7C3.3,90.5,3.3,90.3,3.3,88.5z"/>
	<path class="st0" d="M3.3,86c0-0.6,0-1.4,0-2.7c0,1.1,0,2.1,0,3.1C3.2,86.1,3.3,85.9,3.3,86z"/>
	<path class="st0" d="M156.9,1.4c-0.1,0-0.1,0-0.2,0C156.8,1.4,156.9,1.4,156.9,1.4L156.9,1.4z"/>
	<path class="st0" d="M126.4,299.2l0.4,0C126.7,299.2,126.6,299.2,126.4,299.2z"/>
	<path class="st0" d="M299.4,278.3c0,0.2,0,0.4,0,0.6C299.4,278.7,299.4,278.5,299.4,278.3z"/>
	<path class="st0" d="M299.3,184.7l0,0.2c0,0.1,0,0.2,0.1,0.2L299.3,184.7z"/>
	<path class="st0" d="M34.8,1.4c1.4,0,2.1,0.1,2.6,0.1C37.5,1.5,36.8,1.4,34.8,1.4z"/>
	<path class="st0" d="M3.4,105.7l0,0.4C3.4,105.9,3.4,105.8,3.4,105.7z"/>
	<path class="st0" d="M3.4,105.7l-0.1-3.8c0,2,0,2.8-0.1,3.8C3.3,105.6,3.4,105,3.4,105.7z"/>
	<path class="st0" d="M107.1,1.4c3.7-0.2,5.6-0.1,3.9-0.5c-6.1-0.1-1.4,0.4-7,0.2C102.7,1.3,108.6,1.3,107.1,1.4z"/>
	<path class="st0" d="M107.1,1.4c-0.6,0-1.2,0.1-1.9,0.1C106.3,1.5,106.8,1.5,107.1,1.4z"/>
	<path class="st0" d="M299.8,55l-0.1-0.3c-0.1,0.6-0.1,1.5-0.1,3.4L299.8,55z"/>
	<polygon class="st0" points="299.5,108.1 299.5,107.2 299.2,108.9 	"/>
	<path class="st0" d="M299.9,147c0,0.2,0,0.5,0,0.7C299.9,147.5,299.9,147.2,299.9,147z"/>
	<path class="st0" d="M299.9,152.7c0-1.6,0-3.4,0-5.1C299.9,151.2,299.5,153.2,299.9,152.7z"/>
	<path class="st0" d="M299.5,229.6c0-0.3,0-0.4,0-0.6c0-0.6,0-1.4,0-2.7C299.3,227.1,299.4,223.2,299.5,229.6z"/>
	<path class="st0" d="M299.5,229C299.5,231.8,299.6,227.1,299.5,229L299.5,229z"/>
	<path class="st0" d="M299.2,216.2c-0.1-0.3,0,0.5,0.1,2.2l-0.1-4.1C299.1,214.8,299,214.9,299.2,216.2z"/>
	<polygon class="st0" points="299.6,176.8 299.8,179.2 299.5,175 	"/>
	<path class="st0" d="M299.6,166.4c0.2,1.7,0.3-2.4,0.4-0.5c0-2.8-0.2-5.3-0.3-7.5C299.8,160.7,299.7,163.2,299.6,166.4z"/>
	<path class="st0" d="M299.6,156.9c-0.1-1.2-0.3,2.2-0.5,1.5c0-0.8,0-1.6,0-2.5c0,0.7,0,1.3,0,2c0-0.6-0.1-1.7-0.1-3.6
		c0-0.4,0-0.8,0-1.1c0-0.1,0.1-0.7,0.1-1.9c0,1.7,0.1,3.2,0.1,4.6c0-1.5,0.1-3,0.1-4.4c0,0.1,0,0.1,0,0.2l0,0l0,0
		c0,0.4-0.1,0.5,0,0.1c0,0,0-0.1,0-0.2c0-0.1-0.1-0.2-0.1-0.4c0-0.9,0-1.2,0-1.2c0,0,0,0,0,0c0,0.1,0,1.1,0.1,1.5c0,0,0,0.1,0,0.1
		c0,0,0,0,0,0l0-1.6c0,0,0.1,0,0.1,0c0,0.5,0,0.9-0.1,1.4c0-0.4,0.1-0.9,0.1-1.4c0-0.1,0.1-0.3,0.1-0.8c-0.1-1.7-0.3-4-0.3-6.7
		c0-1.7,0.1-3.1,0.3-5.5c0-0.5,0-0.9-0.1-1.2l0.1-1.7c0.4,5.9,0.2,10.2,0.6,5.6c-0.8-0.7-0.1-19-0.9-19.7l0.2-3.2c0,0.9,0,1.1,0,2
		c0.1-2.3,0.1-3.6,0-4.6c0-0.2,0-0.5,0.1-0.7c0,0.3-0.1,0.4-0.1,0.4c0-0.3-0.1-0.6-0.1-0.9c-0.1-2.9,0.1-11.7-0.3-8.3c0,0,0,0,0,0
		c0.1-0.7,0.1-1.4,0.2-2.1c0,0.1,0,0.3,0,0.6l0-0.9c0.2-2.8,0.1-5.4,0.4-9.3c-0.1,0.2-0.2,1.8-0.2-2.7c0-0.2-0.1-0.7-0.1-1
		c0-0.1,0-0.2,0-0.3c0,0.1,0,0.2,0,0.3c0-0.2,0-0.2,0,0.1c0,1-0.1,1.8-0.2,2.2l0-3.7l0,0.1c-0.1-1-0.2-2.8-0.3-4.4
		c0-0.8,0-1.6-0.1-2.3c0.1-0.7,0.1,1.8,0.1,1.3l-0.1-3.8c0.1,0.2,0.1,1.6,0.2,0.6l-0.2-2.7c0.2-0.2,0.3,3.4,0.3,6.5
		c0.2-0.9,0.2-1.7,0.3-2.3c0.1,0.1,0.1,0.2,0.1,0.6c0.2,0.9,0-2.2-0.1-3.7c-0.1-1.2-0.1-2.8-0.1-5.3c0,0.3,0.1,1,0.1,2.6l0-5.7
		c0-0.1,0-0.2,0-0.3l0.1,4.1c0.5-3.2,0.3-7.1,0.6-12.8c-0.1,0.9-0.4,5.2-0.6,6.8c0.1-3,0.1-6.4,0-8.7c0.1-2.7-0.3-6.8-0.1-4.5l0-1.7
		l0.3,0.2c-0.1-3.3-0.2-3.7-0.4-5l0-2.4l0.1-0.1c0-0.8,0-1.5,0-2.3c0.1-1.6,0.3-2.3,0.5-3c0.1-6.4-0.4,2.3-0.5-1.3
		c0-0.9,0-1.7,0-2.6c0.1-2.4,0.1-4.5,0-6.7c0.1-2.5,0.1-4.6,0.1-6.3c-0.1,1.4-0.1,2.7-0.2,3.7c0-0.8,0-1.7-0.1-2.6
		c0-2,0.1-4,0.2-6.1c0,0,0-0.1,0-0.2l0-0.1c0-0.3,0-0.6,0-0.9c-0.1-3-0.1-6.1-0.1-11l0.1-0.5l0.1-0.8c0-0.9,0-2,0-3.1
		c-1.5,0-3.2,0-4.9,0c-1.1,0-2.3,0-3.4,0c-2.2,0-4,0-4.7,0.1c-4.1-0.6-18.6-0.1-25.3-0.2L260.8,1c-4.6,0-9.1,0.1-14.8,0.2l0.2,0.1
		l0,0c-1.1,0.1-2.2,0.1-3.2,0.2c-2.5,0-5.4-0.1-8.5-0.1c0.1,0,0.4-0.1,0.6-0.1l-1.8,0.1c-2.4,0-4.9-0.1-7.4-0.1
		c0.5-0.1,2.5-0.1,3.9,0c-9.4-0.6-19.8,0.4-28.3,0c-2.1,0.1-3.7,0.1-5.1,0c0.2,0,0.4,0,0.5,0c-0.2,0-0.5,0-0.9,0
		c-0.9,0-1.9-0.1-2.9-0.1c0.9,0.1,1.7,0.1,2.5,0.1c-1.6,0-4.1,0-6.5,0.1l-1-0.3c-0.2,0-0.4,0-0.6,0c-2.4-0.1-1.9,0.1-0.6,0.3
		c-1.2,0-2.3,0.1-3.2,0.2c-1.9-0.5-6.4,0.2-9-0.3c-0.7,0.1-3.3,0.2-5.9,0.2c0.1,0,0.2-0.1,0.3-0.1l-0.7,0.1
		c-2.7,0.1-5.5,0.2-6.6,0.4c-0.2,0-0.4,0-0.6,0l3.1-0.6c-3,0.3-4.7,0.3-6.9,0.2l1.2,0.4c-1.6,0-3.1,0-4.5,0.1l-0.4-0.1
		c0.5-0.2,1.5-0.3,3.5-0.3c-2.1-0.1-4.6-0.1-8.9,0c0.7,0,1.5,0.2,2,0.3l-2.2,0.2c-2.1-0.2-2.6-0.2-4.5-0.3c0-0.1,0.7-0.2,2-0.3
		c-1.6,0.1-2.8,0.1-3.8,0.2c-0.6,0-1.3-0.1-2.1-0.1c0.6,0,0.8,0.1,0.8,0.2c-1.8,0.1-2.8,0.1-4.1,0.1c0-0.1,0.2-0.3,0.7-0.3l-5.7,0.5
		l0.3-0.2c-0.6,0-1.3,0-2,0c-0.4-0.2-1.3-0.3-2.3-0.4c0.9,0.1-7.1,0-9.3,0.1l3.5,0.2c-2.3,0-4,0-5.4,0.1c-3.7,0-8.3,0-13.2,0
		c-0.4,0-1-0.1-1.7-0.1c-0.1,0-0.3,0-0.5,0.1c-2,0-4.1,0-6.1,0c0.7-0.1,1.3-0.1,1.9-0.1c-3.5-0.2-1-0.2-6.2-0.2
		c-1.8-0.2,2.9-0.3,4.4-0.3L81.9,0.8c0.5,0.3-7.1,0.4-8.6,0.6c-1.1,0-2,0-2.1,0.2c-0.1,0-0.2,0-0.3,0c0.4-0.1,0.6-0.2,0.6-0.2
		c-0.2,0-0.8,0.1-1.5,0.1c-0.6-0.1-0.9-0.1,0.7-0.2C63,1.4,59.1,0.9,53.9,1.4c-0.9-0.2,1.6-0.2,0.9-0.3c-0.6,0-2.4,0.1-3.2,0
		C50.7,1,52.6,1,53.8,0.9c-3.1,0-5.1,0.1-6.5,0.2c-0.6,0-1,0-1.1,0.1c0.1,0,0.2,0,0.3,0c-1.3,0.2-1.6,0.4-1.9,0.7
		c-3.1-0.2-4.9-0.2-6.9-0.1c0.4-0.1,0.5-0.2-0.3-0.3c-0.1,0.1-1.9,0.2-2.7,0.3c-0.3,0-0.5,0-0.6-0.1c-0.2-0.1,0.4-0.1,2.9-0.2
		c-0.6,0-1.8,0-3.3,0c-0.2,0-0.9-0.1-2.6,0c0,0,0,0-0.1,0c-4.9,0-10.8,0-11,0.2c-0.9-0.1-3.8,0-4.5,0c-3.1,0-4.7,0-6.4,0
		c-1.8,0-3.5,0-6.7,0l2.1,0.1C4,1.9,3.4,2,2.9,2c-0.5,0-1.1,0.1-1.7,0.1c0,0.5,0,1.1,0,1.7c0,0.6,0,1.2,0,1.8c0,1.2-0.1,2.5,0,4.1
		l0-0.1C0.7,20,1.1,15.2,0.9,23.5c0,0.1-0.1,0.3-0.1,0.8c0,0,0.1,0.2,0.1,0.5c0,0.2,0,0.4,0,0.6l0.1-0.1c0.1,1.4,0.2,4.2,0.2,6.8
		C1.1,33.9,1,35.9,1,37.8c-0.1-1.9-0.2-4.6-0.2,0.3c0.1,0.4,0.1,3.5,0.2,2.8c0,0,0,0,0,0.1l0.2-2.3c0.2,3.5-0.8,9.7-0.9,13.3
		c-0.1,0.8-0.1-1.2-0.1-2.3c-0.4,9.2,0.4,1.2,0.5,8c-0.2,1.3-0.5-1.6-0.5,3C-0.1,62.9,0.7,74,0.3,80.2c0.2-1.4,0.3-2.8,0.4,0.4
		c0.1,4.9-0.6,13.2-0.1,17.5c0,0.6-0.1,0.9-0.1,0.9c0.1,3.7,0.2,12.1,0.5,14.3c-1,3.4,0.5,23.1-0.4,23l0,11.4l-0.1-0.3
		c-0.1,7.3,0.2,9.9,0.4,12.5c-0.1,1.7-0.1,0.5-0.2,0.3C0.5,171,0.5,172.1,1,181L0.7,182c0.2,2.4-0.5,15.4-0.1,25.9
		c0-0.1-0.1-0.3-0.1-1.2c0.3,11.8-0.8,28.2,0.3,32.5l0.3,7.8c0.1-10.1,0.5,1.5,0.6-2.6c0.1,4-0.3,10.2-0.4,5.4l0.1-0.8
		c-0.6-1.8-0.2,12.5-0.6,12.2c0,6.2,0,12.3-0.1,18.4c0,6.5-0.1,12.9-0.1,19.2c7.6,0,15,0.1,22.3,0.1l-2.1-0.4l5.6,0
		c0.5,0,1,0,1.6,0.1c1.1,0.1,0.9,0.3-3,0.3c1.8,0.2,5.3,0,6.9-0.2c1.1,0,2.2,0,3.4,0c3.7,0.2-5.6,0.4-3.2,0.4l3.8,0l-0.8-0.1
		c3.1-0.2,3.3-0.4,8.9-0.3c3.5,0.1,1.8,0.3,3.2,0.3c0,0,0.1,0,0.4,0c0.3,0,0.9,0,1.7,0l8.2,0l-3.3-0.3c0,0,0,0,0,0
		c8.8,0,14.9,0.2,27,0.3l-1.1-0.3c3.2,0,3.9,0.1,5.5,0.2c2.8-0.3-3.6-0.2-5.7-0.3c1.2,0,2.4,0,3.5,0c7,0.2,19.8-0.1,22.2,0.4
		c5,0-1.5-0.3,3.5-0.3l1.3,0.2l1.3-0.2c3.3,0,4.9,0.3,5.1,0.4c-0.8,0-2.3,0-3.1,0.1c4,0.2,10.9,0,13,0l-4.4-0.1
		c11.9-0.1,26.2,0,38.4-0.2c4.5,0.1,9,0.1,13.6,0.1c0.2-0.1-1.2-0.2-0.3-0.3c0.9,0,1.9,0,3.2,0.1l4.8,0.4c2.6-0.1,2.4-0.6,7.1-0.2
		c-0.7-0.1-1.7-0.2,0.1-0.3c0.6,0,1.2,0,1.8,0c-0.6,0.1,5.4,0.3,2.1,0.4c6.4-0.2,7.2-0.2,8.1-0.3c4.5,0,9,0,13.5,0
		c-0.2,0-0.5,0-0.7,0c11.6,0.5,17.2-0.5,22.5,0.2c1.4-0.2,1.4-0.3,0.6-0.3c2.8,0,5.7,0,8.5,0c1.9,0.1,4.3,0.2,7.5,0.2
		c-0.9,0-1,0-1.9,0c2.7,0.1,5.4-0.1,8.5,0c0.6,0,1.3,0,1.9,0.1c0.2,0,0.5,0,0.7,0c0,0,0,0,0.1,0c0.6,0,1.3,0,1.9,0.1
		c-0.1,0-0.1,0-0.2,0c0.5,0,1.3,0.1,2.1,0c0.5,0,1,0,1.5,0c-0.3,0-0.6,0-0.8-0.1c2.9-0.1,6.3-0.2,4.4,0.1c3.7-0.6,9.2,0.1,15.5-0.4
		l-0.4,0.3c1,0,3.1-0.2,4.9-0.2l-2.3,0.3l-0.4,0l-1.4,0.1l1.1,0l-0.3,0c0.2,0,0.5,0,0.7,0l2.5,0.1l-1.4-0.1c1.1,0,2.3,0,3.4,0
		c0.8,0,1.7,0,2.5,0.1c1.4,0,2.7,0.1,4.1,0.1l0-1.7c0,0,0.1,0,0.1,0.1c0-0.7,0-1.1-0.1-1.4l0-0.9c0-0.8,0-1.6,0-2.4
		c0,1.3,0,2.3,0,3.1c-0.1-0.5-0.2,0.3-0.2,0.2c0,1.1,0.1,1.2,0.2,1.3c0,0.7,0,1.2,0,1.7c-2.1-0.1-1.5-0.1-1.2-0.2
		c0.2-0.1,0.3-0.1-0.9-0.2l0.5-0.1c0.4,0,0.8,0,1.1,0c0-1.7,0-3.1,0-4.2c0-0.9,0-1.6,0.1-2.2c0.1-1.3,0.2-2.1,0.3-3.1
		c0.2-1.9,0.4-4.1,0.4-10.3c0,2.2-0.2,6.3-0.3,3.6c0.1-2.7,0.2-6.2,0.3-7.9c-0.1-9.4-0.3,1.4-0.5-2.6c0.3-3.2-0.1-4.6-0.2-8.7l0.3,0
		c0.1-5.9-0.1-6.1-0.2-6.8c0-1.7-0.1-3.4-0.1-5.2l0.3,3.6l-0.1-5l0.3,1c-0.2-5.5-0.2-7.2-0.1-12.5c-0.2,1.2-0.5-0.7-0.5-5.4
		c0.2-3.2,0.3,1.8,0.2-4.9c0.2,1.5,0.4,3.2,0.1,6.1c0.1,0.3,0.2,1.5,0.3,1.8c0.2-3.5,0-8.7,0-11.2c0,0.9,0,2.1-0.1,2.6l-0.1-1.4
		c0-0.8,0.1-2.7,0.1-5.4c-0.1,1.3-0.1,2.7-0.2,2.9l-0.2-5.9c0-0.3,0-0.5,0.1-0.6l0.1,1.3l-0.1-1.3c0.1-0.4,0.1,0.6,0.2,1.5
		c0-2-0.2-3.3-0.2-6.2c0.1,0.2,0.1,0.3,0.2,0.5l0,1.3c0-0.3,0-0.6,0-1.2c0.1,0.4,0.2,0.9,0.3,2.3c0,0.2,0,0.3,0,0.5l0.1,3.7
		c0.1-0.8,0.1-4.1,0.2-2.9c-0.1-3.4-0.2-3.2-0.3-1.5l-0.2-7.4c0.1-0.6,0.3-4.8,0.4-3.6c0.1-2.7-0.1-5.9-0.2-9.4
		c0-1.1,0.1-2.1,0.2-2.3c-0.1-0.1-0.1,0.4-0.2,0.9c-0.1-2.8-0.1-5.8-0.1-8.6c0-0.3-0.1-1-0.1-2.3c0.1-0.4,0.1-1.2,0.2-2.9l-0.2,1.2
		c0.1-5.7,0.3-11,0-17.8c0-0.2,0-0.3,0-0.6l0.4-4.1c0-0.5,0-0.8,0-1.1c0,0.3,0,0.7,0.1,1c0-1.2-0.1-2.4-0.2-3.7
		C299.5,155.4,299.6,156.1,299.6,156.9z M264.2,2.8L256.4,3c-0.8-0.1-0.3-0.2,0.8-0.3l0.8,0l0-0.1c0.8,0,1.6-0.1,2.5-0.1
		c-0.3,0-0.6-0.1-0.9-0.1c-0.6,0.1-1.1,0.1-1.6,0.2l-0.1-0.3c0.6,0,1.2,0.1,1.8,0.1c0.5-0.1,1.1-0.1,1.6-0.2c0.8,0,1.4,0.1,2,0.1
		c-0.9,0.1-1.8,0.1-2.7,0.2C262,2.7,263.3,2.8,264.2,2.8z M224.4,3.7L213.1,4c-0.1-0.1,0.3-0.2,1.3-0.4c2.2,0,4.3,0.1,6.3,0.1
		C218.8,3.4,221.7,3.6,224.4,3.7z M250.8,1.9c1,0,2.1,0,3.4,0.1c-1.1,0-2.3,0-3.6,0C250.7,2,250.7,2,250.8,1.9z M256.8,2.2
		c0.3,0,0.5,0,0.7,0.1l-0.9,0.5l0.1,0c-0.2,0-0.5,0-0.7,0C253.3,2.6,254.8,2.4,256.8,2.2z M299.1,64.6c0.1-3.2,0.1-2,0,0.2
		C299.1,64.7,299.1,64.6,299.1,64.6z M297.2,24.8c0,0.1,0.1,0.2,0.1,0.3c0,0.3,0,0.7,0,1.1c-0.2,2.9-0.2,0.6-0.2-1.2L297.2,24.8z
		 M297.3,25.5c0,0.4,0.1,0.9,0.1,1.5C297.4,26.5,297.3,26,297.3,25.5z M299,150.7c0-0.3,0-0.4,0.1-0.5c0,0.4,0,0.7,0,1.1
		C299.1,151.1,299,150.9,299,150.7z M299.1,134l0,8.1l0-0.2C299,139.5,299,136.8,299.1,134z M299.1,133.4
		C299.1,133.4,299.1,133.3,299.1,133.4C299.1,133.3,299.1,133.4,299.1,133.4C299.1,133.4,299.1,133.4,299.1,133.4z M221.7,1.8l1.2,0
		c0.3,0,0.5,0,0.8,0c-0.5,0.1-1.1,0.1-1.7,0.2C221.9,1.9,221.8,1.9,221.7,1.8z M161,1.9c-0.1-0.1-0.7-0.1,0.4-0.1
		C161.2,1.9,161.1,1.9,161,1.9z M138,3.3c0.2,0,0.3-0.1,0.4-0.1C138.5,3.3,139.1,3.3,138,3.3z M77.6,3.4l-1.2,0c-0.3,0-0.5,0-0.8,0
		c0.5-0.1,1.1-0.1,1.7-0.2C77.4,3.2,77.6,3.3,77.6,3.4z M86.3,1.1C86.4,1.2,86,1.4,85,1.5c-2.2,0-4.3-0.1-6.3-0.1
		c1.7,0.4-1.1,0.2-3.8,0.1L86.3,1.1z M3.1,133.3C3.1,133.3,3.1,133.4,3.1,133.3C3.1,133.4,3.1,133.4,3.1,133.3
		C3.1,133.4,3.1,133.3,3.1,133.3z M3,151.3c0-0.2-0.1-0.4-0.1-0.6c0-0.3,0-0.4,0.1-0.5C3,150.5,3,150.9,3,151.3z M3,141.9
		c-0.1-2.4-0.1-5.1,0-7.9l0,8.1L3,141.9z M3,64.6c0.1-3.2,0.1-2,0,0.2C3,64.7,3,64.6,3,64.6z M48.8,3.2c-0.1,0-0.1,0.1-0.2,0.1
		c-1,0-2.1,0-3.4-0.1C46.3,3.1,47.5,3.1,48.8,3.2z M42.6,3c-0.3,0-0.5,0-0.7-0.1l0.9-0.5l-0.1,0c0.2,0,0.5,0,0.7,0
		C46.1,2.5,44.6,2.7,42.6,3z M43,2.1c0.8,0.1,0.3,0.2-0.8,0.3l-0.8,0l0,0.1c-0.8,0-1.6,0.1-2.5,0.1c0.3,0,0.6,0.1,0.9,0.1
		c0.6-0.1,1.1-0.1,1.6-0.2l0.1,0.3c-0.6,0-1.2-0.1-1.8-0.1c-0.5,0.1-1.1,0.1-1.6,0.2c-0.8,0-1.4-0.1-2-0.1c0.9-0.1,1.8-0.1,2.7-0.2
		c-1.6-0.1-2.9-0.3-3.8-0.3L43,2.1z M1,25l0.1-0.2c0,0.1,0.1,0.2,0.1,0.3c0,0.3,0,0.7,0,1.1C1,29.2,1,26.8,1,25z M1.3,25.5
		c0,0.4,0.1,0.9,0.1,1.5C1.3,26.5,1.3,26,1.3,25.5z M2.7,296.7c0.1,0,0.3,0,0.4,0c0,0,0,0,0,0C3,296.7,2.8,296.7,2.7,296.7
		C2.7,296.7,2.7,296.7,2.7,296.7z M3.3,296.4c0-0.1,0-0.1,0-0.2C3.5,296.3,3.4,296.3,3.3,296.4z M3.3,296.7
		C3.3,296.7,3.3,296.7,3.3,296.7C3.3,296.7,3.3,296.7,3.3,296.7C3.3,296.7,3.3,296.7,3.3,296.7z M30.8,296.7
		c1.1,0.1-0.4,0.3-0.1,0.4l-2.3-0.1c0,0,0,0,0,0l-6.2-0.2C24.3,296.7,27.6,296.7,30.8,296.7z M47.6,298.9l-1.3-0.1
		C49.2,298.8,48.4,298.8,47.6,298.9z M251.8,296.6l1.3,0.1C250.1,296.8,251,296.7,251.8,296.6z M265.9,299c0.2,0,0.6,0,1.1,0
		C266.6,298.9,266.2,299,265.9,299z M268.6,298.9c-1.1-0.1,0.4-0.3,0.1-0.4l2.3,0.1c0,0,0,0,0,0l6.2,0.2
		C275.1,298.9,271.7,298.9,268.6,298.9z M276.6,296.5l2.1,0.4l-5.6,0c-0.5,0-1,0-1.6-0.1c-1.1-0.1-0.9-0.3,3-0.3
		c-1.8-0.2-5.3,0-6.9,0.2c-1.1,0-2.2,0-3.4,0c-3.7-0.2,5.6-0.4,3.2-0.4l-3.8,0l0.8,0.1c-3.1,0.2-3.3,0.4-8.9,0.3
		c-3.5-0.1-1.8-0.3-3.2-0.3c0,0-0.1,0-0.4,0c-0.3,0-0.9,0-1.7,0l-8.2,0l3.3,0.3c0,0,0,0,0,0c-8.8,0-14.9-0.2-27-0.3l1.1,0.3
		c-3.2,0-3.9-0.1-5.5-0.2c-2.8,0.3,3.6,0.2,5.7,0.3c-1.2,0-2.4,0-3.5,0c-7-0.2-19.8,0.1-22.2-0.4c-5,0,1.5,0.3-3.5,0.3l-1.3-0.2
		l-1.3,0.2c-3.3,0-4.9-0.3-5.1-0.4c0.8,0,2.3,0,3.1-0.1c-4-0.2-10.9,0-13,0l4.4,0.1c-11.9,0.1-26.2,0-38.4,0.2
		c-4.5-0.1-9-0.1-13.6-0.1c-0.2,0.1,1.2,0.2,0.3,0.3c-0.9,0-1.9,0-3.2-0.1l-4.8-0.4c-2.6,0.1-2.4,0.6-7.1,0.2
		c0.7,0.1,1.7,0.2-0.1,0.3c-0.6,0-1.2,0-1.8,0c0.6-0.1-5.4-0.3-2.1-0.4c-6.4,0.2-7.2,0.2-8.1,0.3c-4.5,0-9,0-13.5,0
		c0.2,0,0.5,0,0.7,0c-11.6-0.5-17.2,0.5-22.5-0.2c-1.4,0.2-1.4,0.3-0.6,0.3c-2.8,0-5.7,0-8.5,0c-1.9-0.1-4.3-0.2-7.5-0.2
		c0.9,0,1,0,1.9,0c-2.7-0.1-5.4,0.1-8.5,0c-0.6,0-1.3,0-1.9-0.1c-0.2,0-0.5,0-0.7,0c0,0,0,0-0.1,0c-0.6,0-1.3,0-1.9-0.1
		c0.1,0,0.1,0,0.2,0c-0.5,0-1.3-0.1-2.1,0c-0.5,0-1,0-1.5,0c0.3,0,0.6,0,0.8,0.1c-2.9,0.1-6.3,0.2-4.4-0.1
		c-3.7,0.6-9.2-0.1-15.5,0.4l0.4-0.3c-1,0-3.1,0.2-4.9,0.2l2.3-0.3l0.4,0l1.4-0.1l-1.1,0l0.3,0c-0.2,0-0.5,0-0.7,0l-2.5-0.1l1.4,0.1
		c-1.1,0-2.3,0-3.4,0c-0.8,0-1.7,0-2.5-0.1c-0.3,0-0.2,0-0.3,0l-0.2,0l-0.3,0c0,0,0,0,0,0c0-0.3,0-0.4,0-0.7c0-0.8,0-1.6,0-2.4
		c0,0.6,0,1.2,0,1.7c0,0.3,0,0.6,0,0.9c0,0.2,0,0.3,0,0.4c-0.1-0.2-0.2,0.4-0.1,0.3c0,0.1,0,0.1,0,0.1l-0.4,0.1c0-0.6,0-1,0-2
		c0-0.9,0-1.6,0.1-2.2c0.1-1.3,0.2-2.1,0.3-3.1c0.2-1.9,0.4-4.1,0.4-10.3c0,2.2-0.2,6.3-0.3,3.6c0.1-2.7,0.2-6.2,0.3-7.9
		c-0.1-9.4-0.3,1.4-0.5-2.6c0.3-3.2-0.1-4.6-0.2-8.7l0.3,0c0.1-5.9-0.1-6.1-0.2-6.8c0-1.7-0.1-3.4-0.1-5.2l0.3,3.6l-0.1-5l0.3,1
		c-0.2-5.5-0.2-7.2-0.1-12.5c-0.2,1.2-0.5-0.7-0.5-5.4c0.2-3.2,0.3,1.8,0.2-4.9c0.2,1.5,0.4,3.2,0.1,6.1c0.1,0.3,0.2,1.5,0.3,1.8
		c0.2-3.5,0-8.7,0-11.2c0,0.9,0,2.1-0.1,2.6l-0.1-1.4c0-0.8,0.1-2.7,0.1-5.4c-0.1,1.3-0.1,2.7-0.2,2.9l-0.2-5.9c0-0.3,0-0.5,0.1-0.6
		l0.1,1.3l-0.1-1.3c0.1-0.4,0.1,0.6,0.2,1.5c0-2-0.2-3.3-0.2-6.2c0.1,0.2,0.1,0.3,0.2,0.5l0,1.3c0-0.3,0-0.6,0-1.2
		c0.1,0.4,0.2,0.9,0.3,2.3c0,0.2,0,0.3,0,0.5l0.1,3.7c0.1-0.8,0.1-4.1,0.2-2.9c-0.1-3.4-0.2-3.2-0.3-1.5l-0.2-7.4
		c0.1-0.6,0.3-4.8,0.4-3.6c0.1-2.7-0.1-5.9-0.2-9.4c0-1.1,0.1-2.1,0.2-2.3c-0.1-0.1-0.1,0.4-0.2,0.9c-0.1-2.8-0.1-5.8-0.1-8.6
		c0-0.3-0.1-1-0.1-2.3c0.1-0.4,0.1-1.2,0.2-2.9l-0.2,1.2c0.1-5.7,0.3-11,0-17.8c0-0.2,0-0.3,0-0.6l0.4-4.1c0-0.5,0-0.8,0-1.1
		c0,0.3,0,0.7,0.1,1c0-1.2-0.1-2.4-0.2-3.7c0,0.7,0.1,1.5,0.1,2.2c-0.1-1.2-0.3,2.2-0.5,1.5c0-0.8,0-1.6,0-2.5c0,0.7,0,1.3,0,2
		c0-0.6-0.1-1.7-0.1-3.6c0-0.4,0-0.8,0-1.1c0-0.1,0.1-0.7,0.1-1.9c0,1.7,0.1,3.2,0.1,4.6c0-1.5,0.1-3,0.1-4.4c0,0.1,0,0.1,0,0.2l0,0
		l0,0c0,0.4-0.1,0.5,0,0.1c0,0,0-0.1,0-0.2c0-0.1-0.1-0.2-0.1-0.4c0-0.9,0-1.2,0-1.2c0,0,0,0,0,0c0,0.1,0,1.1,0.1,1.5
		c0,0,0,0.1,0,0.1c0,0,0,0,0,0l0-1.6c0,0,0.1,0,0.1,0c0,0.5,0,0.9-0.1,1.4c0-0.4,0.1-0.9,0.1-1.4c0-0.1,0.1-0.3,0.1-0.8
		c-0.1-1.7-0.3-4-0.3-6.7c0-1.7,0.1-3.1,0.3-5.5c0-0.5,0-0.9-0.1-1.2l0.1-1.7c0.4,5.9,0.2,10.2,0.6,5.6c-0.8-0.7-0.1-19-0.9-19.7
		l0.2-3.2c0,0.9,0,1.1,0,2c0.1-2.3,0.1-3.6,0-4.6c0-0.2,0-0.5,0.1-0.7c0,0.3-0.1,0.4-0.1,0.4c0-0.3-0.1-0.6-0.1-0.9
		c-0.1-2.9,0.1-11.7-0.3-8.3c0,0,0,0,0,0c0.1-0.7,0.1-1.4,0.2-2.1c0,0.1,0,0.3,0,0.6l0-0.9c0.2-2.8,0.1-5.4,0.4-9.3
		c-0.1,0.2-0.2,1.8-0.2-2.7c0-0.2-0.1-0.7-0.1-1c0-0.1,0-0.2,0-0.3c0,0.1,0,0.2,0,0.3c0-0.2,0-0.2,0,0.1c0,1-0.1,1.8-0.2,2.2l0-3.7
		l0,0.1c-0.1-1-0.2-2.8-0.3-4.4c0-0.8,0-1.6-0.1-2.3c0.1-0.7,0.1,1.8,0.1,1.3l-0.1-3.8c0.1,0.2,0.1,1.6,0.2,0.6l-0.2-2.7
		C2.8,76.4,3,80,2.9,83c0.2-0.9,0.2-1.7,0.3-2.3c0.1,0.1,0.1,0.2,0.1,0.6c0.2,0.9,0-2.2-0.1-3.7c-0.1-1.2-0.1-2.8-0.1-5.3
		c0,0.3,0.1,1,0.1,2.6l0-5.7c0-0.1,0-0.2,0-0.3L3.3,73c0.5-3.2,0.3-7.1,0.6-12.8c-0.1,0.9-0.4,5.2-0.6,6.8c0.1-3,0.1-6.4,0-8.7
		c0.1-2.7-0.3-6.8-0.1-4.5l0-1.7l0.3,0.2c-0.1-3.3-0.2-3.7-0.4-5l0-2.4l0.1-0.1c0-0.8,0-1.5,0-2.3c0.1-1.6,0.3-2.3,0.5-3
		c0.1-6.4-0.4,2.3-0.5-1.3c0-0.9,0-1.7,0-2.6c0.1-2.4,0.1-4.5,0-6.7c0.1-2.5,0.1-4.6,0.1-6.3c-0.1,1.4-0.1,2.7-0.2,3.7
		c0-0.8,0-1.7-0.1-2.6c0-2,0.1-4,0.2-6.1c0,0,0-0.1,0-0.2l0-0.1c0-0.3,0-0.6,0-0.9c-0.1-3-0.1-6.1-0.1-11l0.1-0.5
		c0-0.1,0.1-0.1,0.1-0.1c0-0.1,0-0.3,0-0.5c1.5,0,3.4,0.1,5,0.1c2.2,0,4,0,4.7-0.1c4.1,0.6,18.6,0.1,25.3,0.2l0.3-0.3
		c4.6,0,9.1-0.1,14.8-0.2l-0.2-0.1l0,0c1.1-0.1,2.2-0.1,3.2-0.2c2.5,0,5.4,0.1,8.5,0.1c-0.1,0-0.4,0.1-0.6,0.1l1.8-0.1
		c2.4,0,4.9,0.1,7.4,0.1c-0.5,0.1-2.5,0.1-3.9,0c9.4,0.6,19.8-0.4,28.3,0c2.1-0.1,3.7-0.1,5.1,0c-0.2,0-0.4,0-0.5,0
		c0.2,0,0.5,0,0.9,0c0.9,0,1.9,0.1,2.9,0.1c-0.9-0.1-1.7-0.1-2.5-0.1c1.6,0,4.1,0,6.5-0.1l1,0.3c0.2,0,0.4,0,0.6,0
		c2.4,0.1,1.9-0.1,0.6-0.3c1.2,0,2.3-0.1,3.2-0.2c1.9,0.5,6.4-0.2,9,0.3c0.7-0.1,3.3-0.2,5.9-0.2c-0.1,0-0.2,0.1-0.3,0.1l0.7-0.1
		c2.7-0.1,5.5-0.2,6.6-0.4c0.2,0,0.4,0,0.6,0L135.5,4c3-0.3,4.7-0.3,6.9-0.2l-1.2-0.4c1.6,0,3.1,0,4.5-0.1l0.4,0.1
		c-0.5,0.2-1.5,0.3-3.5,0.3c2.1,0.1,4.6,0.1,8.9,0c-0.7,0-1.5-0.2-2-0.3l2.2-0.2c2.1,0.2,2.6,0.2,4.5,0.3c0,0.1-0.7,0.2-2,0.3
		c1.6-0.1,2.8-0.1,3.8-0.2c0.6,0,1.3,0.1,2.1,0.1c-0.6,0-0.8-0.1-0.8-0.2c1.8-0.1,2.8-0.1,4.1-0.1c0,0.1-0.2,0.3-0.7,0.3l5.7-0.5
		l-0.3,0.2c0.6,0,1.3,0,2,0c0.4,0.2,1.3,0.3,2.3,0.4c-0.9-0.1,7.1,0,9.3-0.1l-3.5-0.2c2.3,0,4,0,5.4-0.1c3.7,0,8.3,0,13.2,0
		c0.4,0,1,0.1,1.7,0.1c0.1,0,0.3,0,0.5-0.1c2,0,4.1,0,6.1,0c-0.7,0.1-1.3,0.1-1.9,0.1c3.5,0.2,1,0.2,6.2,0.2
		c1.8,0.2-2.9,0.3-4.4,0.3l12.2,0.1C217,4,224.5,4,226,3.7c1.1,0,2,0,2.1-0.2c0.1,0,0.2,0,0.3,0c-0.4,0.1-0.6,0.2-0.6,0.2
		c0.2,0,0.8-0.1,1.5-0.1c0.6,0.1,0.9,0.1-0.7,0.2c7.7-0.2,11.5,0.3,16.8-0.2c0.9,0.2-1.6,0.2-0.9,0.3c0.6,0,2.4-0.1,3.2,0
		c0.8,0.1-1.1,0.1-2.3,0.2c3.1,0,5.1-0.1,6.5-0.2c0.6,0,1,0,1.1-0.1c-0.1,0-0.2,0-0.3,0c1.3-0.2,1.6-0.4,1.9-0.7
		c3.1,0.2,4.9,0.2,6.9,0.1c-0.4,0.1-0.5,0.2,0.3,0.3c0.1-0.1,1.9-0.2,2.7-0.3c0.3,0,0.5,0,0.6,0.1c0.2,0.1-0.4,0.1-2.9,0.2
		c0.6,0,1.8,0,3.3,0c0.2,0,0.9,0.1,2.6,0c0,0,0,0,0.1,0c4.9,0,10.8,0,11-0.2c0.9,0.1,3.8,0,4.5,0c3.1,0,4.7,0,6.4,0
		c1.5,0,3.1,0,5.9,0l-0.5,0l-0.7,0c0.5-0.1,0.7-0.1,1.1-0.2c0.4,0,0.7-0.1,1.1-0.1c0,0.3,0,0.7,0,1.1c0,0.5,0,0.9,0,1.5
		c0,1.2-0.1,2.5,0,4.1l0-0.1c-0.3,10.4,0.1,5.6-0.2,13.9c0,0.1-0.1,0.3-0.1,0.8c0,0,0.1,0.2,0.1,0.5c0,0.2,0,0.4,0,0.6l0.1-0.1
		c0.1,1.4,0.2,4.2,0.2,6.8c-0.1,1.8-0.2,3.8-0.2,5.7c-0.1-1.9-0.2-4.6-0.2,0.3c0.1,0.4,0.1,3.5,0.2,2.8c0,0,0,0,0,0.1l0.2-2.3
		c0.2,3.5-0.8,9.7-0.9,13.3c-0.1,0.8-0.1-1.2-0.1-2.3c-0.4,9.2,0.4,1.2,0.5,8c-0.2,1.3-0.5-1.6-0.5,3c-0.2,2.3,0.7,13.3,0.3,19.6
		c0.2-1.4,0.3-2.8,0.4,0.4c0.1,4.9-0.6,13.2-0.1,17.5c0,0.6-0.1,0.9-0.1,0.9c0.1,3.7,0.2,12.1,0.5,14.3c-1,3.4,0.5,23.1-0.4,23
		l0,11.4l-0.1-0.3c-0.1,7.3,0.2,9.9,0.4,12.5c-0.1,1.7-0.1,0.5-0.2,0.3c-0.2,10.7-0.1,11.7,0.3,20.7l-0.3,0.9
		c0.2,2.4-0.5,15.4-0.1,25.9c0-0.1-0.1-0.3-0.1-1.2c0.3,11.8-0.8,28.2,0.3,32.5l0.3,7.8c0.1-10.1,0.5,1.5,0.6-2.6
		c0.1,4-0.3,10.2-0.4,5.4l0.1-0.8c-0.6-1.8-0.2,12.5-0.6,12.2c0,6.2,0,12.3-0.1,18.4c0,5.7-0.1,11.3-0.1,16.9
		C289.8,296.6,283.1,296.6,276.6,296.5z M32.4,296.6c0.4,0,0.7,0,1,0C33.3,296.6,32.9,296.6,32.4,296.6z"/>
	<path class="st0" d="M3.1,103.2l0.1,2.1C3.1,104.3,3.1,103.7,3.1,103.2z"/>
	<path class="st0" d="M3.1,88.2L3,87.8C3,88.5,3.1,88.8,3.1,88.2z"/>
	<path class="st0" d="M193,1.1c-3-0.2-6.4-0.6-6-0.3l0.9,0.3C190,1,191.6,1.1,193,1.1z"/>
	<path class="st0" d="M3.3,185.1l0.3,2.4C3.6,183.7,3.5,185.4,3.3,185.1z"/>
	<path class="st0" d="M0.3,97.3c0,1.3,0.1,1.8,0.2,1.8C0.5,97.8,0.4,97,0.3,97.3z"/>
	<path class="st0" d="M299.3,22.5c0.1-2.3,0.2-5,0-7.5c0,0.5,0,0.9-0.1,1.4C299.3,18.3,299.3,20.2,299.3,22.5z"/>
	<path class="st0" d="M186,296.3c0.2,0,0.5,0,0.7,0C186.8,296.3,186.5,296.3,186,296.3z"/>
	<path class="st0" d="M299.3,86C299.3,88,299.4,86.3,299.3,86L299.3,86z"/>
	<path class="st0" d="M299.2,88.9c0-0.4,0-0.9,0-1.4C299.2,87.9,299.2,88.3,299.2,88.9z"/>
	<path class="st0" d="M299.3,87.5c0-0.5,0-0.8,0-1.1C299.3,86.8,299.3,87.2,299.3,87.5z"/>
	<path class="st0" d="M299.3,88.5c0,0.7,0,1.2,0,1.7C299.4,90.5,299.4,90.3,299.3,88.5z"/>
	<path class="st0" d="M299.3,86c0-0.6,0-1.4,0-2.7c0,1.1,0,2.1,0,3.1C299.3,86.1,299.3,85.9,299.3,86z"/>
	<path class="st0" d="M142.7,3.8c-0.1,0-0.2,0-0.3,0l0.1,0C142.5,3.8,142.6,3.8,142.7,3.8z"/>
	<path class="st0" d="M3.3,278.3c0,0.2,0,0.4,0,0.6C3.3,278.7,3.3,278.5,3.3,278.3z"/>
	<path class="st0" d="M173,296.3l-0.4,0C172.7,296.3,172.8,296.3,173,296.3z"/>
	<path class="st0" d="M3.3,184.7l0,0.2c0,0.1,0,0.2,0.1,0.2L3.3,184.7z"/>
	<path class="st0" d="M264.6,3.7c-1.4,0-2.1-0.1-2.6-0.1C261.9,3.7,262.5,3.7,264.6,3.7z"/>
	<path class="st0" d="M299.4,105.7l-0.1-3.8c0,2,0,2.8-0.1,3.8C299.3,105.6,299.4,105,299.4,105.7z"/>
	<path class="st0" d="M299.4,105.7l0,0.4C299.5,105.9,299.5,105.8,299.4,105.7z"/>
	<path class="st0" d="M192.3,3.7c-3.7,0.2-5.6,0.1-3.9,0.5c6.1,0.1,1.4-0.4,7-0.2C196.7,3.8,190.8,3.8,192.3,3.7z"/>
	<path class="st0" d="M192.3,3.7c0.6,0,1.2-0.1,1.9-0.1C193.1,3.7,192.6,3.7,192.3,3.7z"/>
	<path class="st0" d="M3.5,58L3.7,55l-0.1-0.3C3.5,55.3,3.5,56.2,3.5,58z"/>
	<polygon class="st0" points="3.4,108.1 3.4,107.2 3.1,108.9 	"/>
	<path class="st0" d="M3.8,147c0,0.2,0,0.5,0,0.7C3.8,147.5,3.8,147.2,3.8,147z"/>
	<path class="st0" d="M3.9,152.7c0-1.6,0-3.4,0-5.1C3.8,151.2,3.5,153.2,3.9,152.7z"/>
</g>
</svg>
