<?xml version="1.0" encoding="utf-8"?>
<!-- Generator: Adobe Illustrator 25.2.0, SVG Export Plug-In . SVG Version: 6.00 Build 0)  -->
<!DOCTYPE svg PUBLIC "-//W3C//DTD SVG 1.1//EN" "http://www.w3.org/Graphics/SVG/1.1/DTD/svg11.dtd" [
	<!ENTITY ns_extend "http://ns.adobe.com/Extensibility/1.0/">
	<!ENTITY ns_ai "http://ns.adobe.com/AdobeIllustrator/10.0/">
	<!ENTITY ns_graphs "http://ns.adobe.com/Graphs/1.0/">
	<!ENTITY ns_vars "http://ns.adobe.com/Variables/1.0/">
	<!ENTITY ns_imrep "http://ns.adobe.com/ImageReplacement/1.0/">
	<!ENTITY ns_sfw "http://ns.adobe.com/SaveForWeb/1.0/">
	<!ENTITY ns_custom "http://ns.adobe.com/GenericCustomNamespace/1.0/">
	<!ENTITY ns_adobe_xpath "http://ns.adobe.com/XPath/1.0/">
]>
<svg version="1.1" id="Layer_1" xmlns:x="&ns_extend;" xmlns:i="&ns_ai;" xmlns:graph="&ns_graphs;"
	 xmlns="http://www.w3.org/2000/svg" xmlns:xlink="http://www.w3.org/1999/xlink" x="0px" y="0px" width="64px" height="64px"
	 viewBox="0 0 64 64" style="enable-background:new 0 0 64 64;" xml:space="preserve">
<style type="text/css">
	.st0{fill:#dee2e6;}
</style>
<metadata>
	<sfw  xmlns="&ns_sfw;">
		<slices></slices>
		<sliceSourceBounds  bottomLeftOrigin="true" height="64" width="64" x="363.8" y="-339.6"></sliceSourceBounds>
	</sfw>
</metadata>
<g>
	<path class="st0" d="M58.8,15c-0.1,0-0.1,0.3-0.1,0.4l0.3,0.4C59,15.5,58.8,15.1,58.8,15z"/>
	<path class="st0" d="M58.7,15.4l-0.5-0.5C58.6,15.4,58.7,15.5,58.7,15.4z"/>
	<polygon class="st0" points="57.7,13 57,12.6 57.3,12.8 	"/>
	<path class="st0" d="M56.2,11.4c0.3,0.1-0.1-0.5,0.2-0.3c-0.3-0.3-0.7-0.6-1-0.8C55.6,10.6,55.9,10.9,56.2,11.4z"/>
	<path class="st0" d="M57.5,13.3l0,0.3c0,0.1,0.1,0.1,0.2,0.2C57.6,13.8,57.7,13.6,57.5,13.3z"/>
	<path class="st0" d="M56.5,12.3L56.5,12.3C56.4,12.3,56.5,12.3,56.5,12.3z"/>
	<polygon class="st0" points="51.9,7.7 51.9,7.7 51.9,7.7 	"/>
	<path class="st0" d="M54,9.3c0.1,0.1,0.2,0.3,0.3,0.5C54.2,9.6,54,9.3,54,9.3z"/>
	<path class="st0" d="M56.4,12.1L56.4,12.1C56.4,12.1,56.4,12.1,56.4,12.1z"/>
	<path class="st0" d="M56.4,12.1c-0.1-0.1-0.2-0.2-0.3-0.3c0.1,0.1,0.3,0.3,0.4,0.4C56.4,12.2,56.4,12.2,56.4,12.1z"/>
	<path class="st0" d="M52.9,8.7l0.2,0.2c-0.2-0.3-0.4-0.5-0.6-0.9c-0.4-0.3-0.6-0.3-0.6-0.3L52.9,8.7L52.9,8.7z"/>
	<path class="st0" d="M52.1,7.4c-0.2-0.1-0.5-0.1-0.7-0.2l0.5,0.3L52.1,7.4z"/>
	<polygon class="st0" points="50.8,6.5 50.4,6.3 50.6,6.6 	"/>
	<path class="st0" d="M6.2,47.1l0.2,0.3C6.3,47.2,6.2,47.1,6.2,47.1z"/>
	<path class="st0" d="M5.1,45l-0.1,0C5,45.1,5.1,45.1,5.1,45z"/>
	<path class="st0" d="M13.8,5.4l0.2,0.1c0.3-0.2,0.5-0.3,0.8-0.4C14.3,5.2,13.6,5.2,13.8,5.4z"/>
	<path class="st0" d="M3.8,47.3C3.9,47.5,4,47.6,4,47.5C3.9,47.4,3.8,47.3,3.8,47.3z"/>
	<path class="st0" d="M56,48.5L56,48.5C56.1,48.4,56,48.5,56,48.5z"/>
	<path class="st0" d="M48.4,4.8l-0.6-0.3c0.3,0.2,0.4,0.3,0.5,0.4C48.2,4.9,48.2,4.7,48.4,4.8z"/>
	<polygon class="st0" points="6.6,47.8 6.8,47.6 6.7,47.5 	"/>
	<path class="st0" d="M10.7,52.1c0.4,0.4,0.5,0.9,0.6,0.6C11.2,52.5,10.9,52.3,10.7,52.1z"/>
	<path class="st0" d="M4.3,21.6C4.1,22,4.5,21.4,4.3,21.6L4.3,21.6z"/>
	<polygon class="st0" points="8.2,15 8.4,14.4 8.3,14.6 	"/>
	<path class="st0" d="M9.2,13.3c-0.1,0.3,0.4-0.1,0.3,0.1c0.3-0.3,0.4-0.7,0.6-1C9.9,12.8,9.6,13,9.2,13.3z"/>
	<path class="st0" d="M8.5,13.8C8.5,13.7,8.5,13.7,8.5,13.8C8.5,13.7,8.4,13.7,8.5,13.8z"/>
	<path class="st0" d="M8.6,13.7L8.6,13.7C8.7,13.6,8.7,13.6,8.6,13.7z"/>
	<path class="st0" d="M58.9,48.2l-0.1,0.3C58.8,48.4,58.9,48.3,58.9,48.2z"/>
	<path class="st0" d="M60.1,46L60.1,46C60,46,60,46.1,60.1,46z"/>
	<path class="st0" d="M47.7,7.7l0-0.2c-0.3-0.1-0.5-0.3-0.7-0.4C47.4,7.4,47.7,7.9,47.7,7.7z"/>
	<path class="st0" d="M49.6,58.4c-0.1,0.1-0.1,0.3-0.2,0.4C50,58.5,49.7,58.5,49.6,58.4z"/>
	<path class="st0" d="M29.5,2.8c-0.1,0-0.1,0-0.2,0c-0.3,0.1-0.6,0.1-1,0.1C28.7,2.9,29.2,2.9,29.5,2.8z"/>
	<path class="st0" d="M5.2,49.9c0,0,0-0.1,0-0.1C5.1,49.7,5.1,49.8,5.2,49.9z"/>
	<path class="st0" d="M54.7,10.6C54.7,10.6,54.7,10.6,54.7,10.6L54.7,10.6L54.7,10.6z"/>
	<path class="st0" d="M34.7,63.9c0.1,0,0.2,0,0.2,0C34.9,63.9,34.8,63.9,34.7,63.9z"/>
	<path class="st0" d="M49.7,58.4L49.7,58.4C49.6,58.4,49.6,58.4,49.7,58.4L49.7,58.4z"/>
	<polygon class="st0" points="2.1,33.8 2.2,33.1 2.1,33.5 	"/>
	<path class="st0" d="M62.6,40.9L62.6,40.9c-0.2,0-0.2,0.2-0.3,0.5L62.6,40.9z"/>
	<polygon class="st0" points="58.7,49.1 58.8,49 58.4,49.1 	"/>
	<path class="st0" d="M54.2,55.3c0.2-0.2,0.5-0.5,0.7-0.7C54.5,55.1,53.9,55.1,54.2,55.3z"/>
	<path class="st0" d="M46.9,3.9C47.3,4.2,46.7,3.7,46.9,3.9L46.9,3.9z"/>
	<polygon class="st0" points="39.1,0.6 38.3,0.7 38.6,0.7 	"/>
	<path class="st0" d="M36.8,0.1c-0.5,0-0.9,0-1.3,0.1c0.4,0,0.8,0.1,1.3,0.2C37.2,0.3,36.5,0.1,36.8,0.1z"/>
	<path class="st0" d="M37.7,0.9C37.7,0.9,37.6,0.9,37.7,0.9C37.7,0.9,37.7,0.9,37.7,0.9z"/>
	<path class="st0" d="M34.3,0.3C34.3,0.3,34.3,0.3,34.3,0.3c0.2,0,0.4,0,0.7,0c-0.3-0.1-0.6-0.2-0.9-0.1c-0.1,0-0.3-0.1-0.3,0
		c0.1,0,0.1,0,0.2,0.1c-0.1,0-0.2,0-0.3,0c0.1,0,0.2,0,0.2,0.1C34.1,0.3,34.2,0.3,34.3,0.3C34.3,0.3,34.3,0.3,34.3,0.3z"/>
	<path class="st0" d="M37.5,0.8L37.5,0.8C37.5,0.7,37.5,0.7,37.5,0.8z"/>
	<path class="st0" d="M37.5,0.8c-0.2,0-0.3,0-0.4,0C37.3,0.8,37.5,0.9,37.5,0.8C37.6,0.8,37.5,0.8,37.5,0.8z"/>
	<path class="st0" d="M22,60l0.3,0.1C22.2,60,22.1,60,22,60z"/>
	<path class="st0" d="M19.8,59.1L19.8,59.1C19.8,59.2,19.9,59.1,19.8,59.1z"/>
	<path class="st0" d="M0.7,23.2L1,23.2c0.1-0.3,0.2-0.6,0.3-0.8C0.9,22.8,0.5,23.2,0.7,23.2z"/>
	<path class="st0" d="M34.6,61.2c0.1-0.1,0.2-0.2,0.3-0.2C34.4,61,34.7,61.1,34.6,61.2z"/>
	<path class="st0" d="M12.6,6.5c0.1,0,0.1-0.1,0.2-0.1c0.2-0.2,0.5-0.5,0.8-0.7C13.2,5.8,12.8,6.1,12.6,6.5z"/>
	<path class="st0" d="M60.9,28.8l0-0.1C60.9,28.6,60.9,28.7,60.9,28.8z"/>
	<path class="st0" d="M1.9,30.8C1.9,30.8,1.9,30.8,1.9,30.8L1.9,30.8L1.9,30.8z"/>
	<path class="st0" d="M34.6,61.2L34.6,61.2C34.6,61.2,34.6,61.2,34.6,61.2L34.6,61.2z"/>
	<path class="st0" d="M24.9,2.1c0,0,0.1-0.1,0.2-0.1c-0.5,0.1-1,0.2-0.9,0.3L24.9,2.1z"/>
	<polygon class="st0" points="56.9,12.9 56.6,12.3 56.7,12.7 	"/>
	<path class="st0" d="M15.4,56.2c0,0.1,0.1,0.2,0.4,0.4L15.4,56.2L15.4,56.2z"/>
	<polygon class="st0" points="22.7,59.9 22.8,60.2 22.8,59.9 	"/>
	<path class="st0" d="M28.7,60.8c0.6,0,0.9,0.4,0.9,0C29.3,60.8,29,60.9,28.7,60.8z"/>
	<path class="st0" d="M2.8,36.3c-0.1,0-0.2,0.2-0.2,0.3L2.7,37C2.7,36.8,2.7,36.4,2.8,36.3z"/>
	<polygon class="st0" points="2.5,33.9 2.7,34.3 2.4,33.6 	"/>
	<path class="st0" d="M2.4,32.3c0.1,0.3,0.2-0.4,0.3-0.1c0-0.4-0.1-0.8-0.2-1.2C2.6,31.4,2.5,31.8,2.4,32.3z"/>
	<path class="st0" d="M2.4,34.4l-0.2,0.3c0,0.1,0,0.2,0,0.3C2.2,34.8,2.3,34.7,2.4,34.4z"/>
	<path class="st0" d="M2.1,33.1C2.1,33.1,2.1,33.1,2.1,33.1C2.1,33.1,2.1,33.1,2.1,33.1z"/>
	<polygon class="st0" points="2.4,27.1 2.4,27.1 2.4,27.1 	"/>
	<path class="st0" d="M2.3,29.5c-0.1,0.1-0.1,0.3-0.2,0.5C2.2,29.8,2.4,29.5,2.3,29.5z"/>
	<path class="st0" d="M2.1,32.9L2.1,32.9C2.2,32.9,2.2,32.9,2.1,32.9z"/>
	<path class="st0" d="M2.1,32.9c0-0.2-0.1-0.3-0.1-0.4C2,32.7,2,32.9,2.1,33C2.1,33,2.1,33,2.1,32.9z"/>
	<path class="st0" d="M2.4,27.1l-0.2,1.4l0-0.1l0,0.3c0.1-0.3,0.2-0.5,0.4-0.9C2.5,27.3,2.5,27.2,2.4,27.1z"/>
	<path class="st0" d="M2.6,26.9l0.2,0.2c-0.1-0.2-0.1-0.4-0.2-0.7L2.6,26.9z"/>
	<polygon class="st0" points="2.9,25.5 3,25.6 3,25.2 	"/>
	<path class="st0" d="M62.8,26.7L63,27C62.9,26.8,62.9,26.7,62.8,26.7z"/>
	<path class="st0" d="M62.3,24.2l-0.1,0C62.3,24.2,62.4,24.3,62.3,24.2z"/>
	<path class="st0" d="M60.6,26.1c0.1,0.2,0.1,0.3,0.2,0.3C60.7,26.2,60.6,26.1,60.6,26.1z"/>
	<path class="st0" d="M10.9,11.3c0.1,0,0.1-0.1,0.1-0.1C11,11.2,10.9,11.2,10.9,11.3c0.1-0.1,0.1-0.1,0.1-0.2
		C10.9,11.1,10.9,11.1,10.9,11.3c-0.1,0-0.2,0.1-0.3,0.1c0,0,0,0-0.1,0c0,0,0,0,0.1,0c-0.1,0.2-0.3,0.3-0.5,0.5
		C10.4,11.7,10.7,11.5,10.9,11.3z"/>
	<path class="st0" d="M23,62.7c0,0-0.1,0-0.1-0.1C22.9,62.7,23,62.7,23,62.7z"/>
	<path class="st0" d="M63.5,32C63.6,32,63.6,32.1,63.5,32c0.1,0,0-0.1,0-0.1l0-0.1c0.3,1,0.1,1.7,0.4,1c-0.3-0.1-0.3-0.9-0.3-1.7
		c-0.1-0.8-0.1-1.6-0.5-1.6l0.1-0.6c0,0.2,0,0.2,0,0.3c0.2-1.1-0.5-0.7-0.6-2.1c0-0.5,0-0.8,0.1-0.5l-0.3-1c0-0.2,0-0.2,0.1-0.1
		c-0.1-0.5-0.3-0.9-0.4-1.4l0,0c0,0-0.1-0.1-0.1-0.2L62,23.5c-0.2-0.3-0.3-0.5-0.5-0.8c0,0,0,0,0,0c0,0,0,0,0,0c0-0.1,0-0.1-0.1-0.2
		c0-0.1,0.1-0.1,0.2,0.1c0.1,0.2,0.2,0.5,0.3,0.8c0.2-0.5,0.1-0.7,0-0.9c-0.2-0.3-0.4-0.6-0.6-1.5l0.4,0.8c0.2-0.6-0.2-1.2-0.3-2.2
		c0,0.1,0,0.6,0,1c0-0.1-0.1-0.1-0.1-0.2c-0.1,0.2-0.2-0.3,0.1,0.4c0,0.3-0.1,0.5-0.3,0.1c0-0.1,0-0.2-0.1-0.3
		c0.2,0.2,0.1-0.2-0.2-0.9c0.1,0.3,0.1,0.6,0,0.5c-0.1-0.1-0.1-0.2-0.2-0.3c0.2-0.1,0-0.4-0.2-0.9c0,0,0,0,0.1,0
		c-0.1,0,0,0.1,0.2,0.3l-0.4-0.6l0.3-0.1c0,0.1,0,0.1,0,0.2l0.4,0.5c0,0,0-0.1,0-0.1c0,0.1,0,0.1,0.1,0.2l-0.1-0.5l-0.1,0
		c0,0,0,0.1,0,0.1c0-0.1-0.1-0.2,0-0.1c-0.3-0.4-0.3-0.4-0.3-0.3c-0.4-0.6-0.5-0.5-0.8-0.8c-0.3-0.7-0.2-1-0.1-1.2
		c-0.6-1.1,0.1,0.9-0.7-0.3c-0.2-0.5-0.5-0.8-0.7-1.2c-0.3-0.4-0.6-0.8-1-1.2c-0.3-0.6,0.1-0.1,0.1-0.2c0,0.1,0.1,0.1,0.1,0.2l0,0
		c-0.1-0.1-0.1-0.1-0.1-0.2c0,0,0,0,0,0l0,0c-0.1-0.1-0.1-0.2-0.2-0.2c0,0,0.1,0.1,0.2,0.2L56.7,13c-0.1-0.1,0-0.1,0-0.1
		c-0.4-0.4-0.3,0.1-0.8-0.5c-0.1,0-0.2-0.1-0.3-0.3c0.1,0,0.3-0.1,0.4-0.1c-0.1,0-0.1,0-0.2-0.1l0.1-0.2c0,0,0.1,0,0.1,0.1
		c0,0-0.1-0.1-0.1-0.1l0,0l0,0c-0.1-0.1-0.3-0.3-0.4-0.4l0.1,0c0,0,0,0-0.1,0c0,0,0.1,0,0.1,0c0.1,0.1,0.2,0,0.3,0
		c-0.2-0.2-0.3-0.2-0.3-0.1c0,0,0-0.1-0.1-0.1c-0.3-0.2-0.5-0.4-0.8-0.7c0.3,0.3,0.5,0.7,0.8,1c-0.4-0.2-0.6-0.4-0.8-0.7l0,0.1
		c-0.1-0.1-0.3-0.2-0.4-0.3c0,0,0,0,0.1,0c0,0,0.1,0,0.1,0.1c0,0,0,0,0,0c0.1,0,0.2,0.1,0.3,0.2c-0.1-0.1-0.2-0.2-0.3-0.4
		c0,0,0.1,0,0.1,0c-0.1,0-0.1-0.1-0.2-0.1c0,0-0.1-0.1-0.1-0.2c0.2,0.2,0.4,0.4,0.6,0.5c-0.2-0.2-0.3-0.4-0.4-0.6c0,0,0,0,0,0l0,0
		l0,0c0,0.1,0,0.1,0,0c0,0,0,0,0,0c0,0-0.1,0-0.1,0c-0.2-0.3,0-0.1,0.1,0c0,0,0,0,0,0l0,0c-0.3-0.3-0.7-0.6-1.1-0.9
		c0.2,0.2,0.5,0.5,1,0.9c-0.1,0-0.2,0-0.3-0.1c-0.1-0.1-0.2-0.1-0.3-0.2c0,0,0,0,0,0c-0.2-0.2-0.4-0.3-0.7-0.4
		c-0.1-0.1-0.2-0.3-0.4-0.6c0.1,0.2,0,0.3-0.2,0.3L52,8.4c0,0,0-0.1,0-0.1c0.1-0.1,0.1-0.1,0.2-0.1c-0.1,0-0.1-0.1-0.2-0.1
		C52,8,52,7.9,51.9,7.7c-0.1,0-0.1,0.1-0.5-0.1c0,0,0-0.1-0.1-0.1l0.1,0.1c-0.1,0-0.2-0.1-0.3-0.1c0,0,0.1,0.1,0.1,0.1
		c0,0.1,0,0.1,0,0.1c0.1,0,0.1,0,0.1-0.1c0.1,0.1,0.2,0.2,0.3,0.4c-0.1,0-0.1,0-0.2-0.1l-0.1-0.1l0.1,0c-0.1,0-0.2-0.1-0.3-0.1
		c0.1,0,0.2,0,0.2-0.1c0,0-0.1,0-0.1-0.1c0-0.1,0-0.3-0.1-0.5c0,0.1-0.2-0.1-0.4-0.3l0,0l0,0c-0.3-0.2-0.7-0.5-0.9-0.6l0.2,0.2
		l-0.7-0.6c0.3,0.1,0.5,0.3,0.7,0.5c-0.2-0.5-0.2-0.1-0.5-0.8c0.1,0.2-0.1,0.1-0.4,0c0,0,0-0.1,0-0.2c-0.5-0.4-0.5-0.2-0.7-0.2
		C48.2,5.1,48.1,5,48,5c0,0-0.1,0-0.1-0.1c0,0,0,0,0,0c-0.1,0-0.1,0.1,0,0.2c-0.3-0.6-0.8-0.8-1.4-1.3c0.1,0,0.2,0.1,0.4,0.2
		c0,0-0.1-0.1-0.1-0.1c-0.1,0-0.2-0.1-0.4-0.2c0,0,0,0,0,0.1c0,0,0,0-0.1-0.1c0,0,0,0,0,0.1c0,0-0.1,0,0,0c0,0,0,0,0,0l-1.4-0.7
		l0.4,0.1c-0.1-0.1-0.6-0.4-0.4-0.3c-0.5-0.2-0.5-0.1-0.4,0.1l0,0C44.7,3,44.6,3,44.5,3c0.1,0,0.1-0.1,0.1,0
		c0.3-0.1-1.2-0.3-0.6-0.1c0,0,0,0-0.1,0c-0.3,0-0.5-0.1-0.7-0.1c-0.2-0.2-0.4-0.4,0.3-0.2l-0.9-0.3c-0.3-0.2-0.7-0.4-1-0.5
		c-0.2-0.1-0.4-0.2-0.4-0.3c0,0,0,0.1,0.1,0.2c-0.1,0-0.3-0.1-0.4-0.1c-0.4-0.2-1.2-0.1-0.8-0.1l-0.6-0.1c0-0.1-0.1-0.2-0.5-0.3
		l0.2,0.3l0,0c-0.1,0-0.1,0-0.1,0c-0.1,0-0.1,0-0.1,0c-0.1,0-0.2-0.1-0.3-0.1c0,0,0.1,0,0.3,0.1c0,0,0,0,0,0l-0.3,0l0-0.1
		c-0.6-0.2-1.1-0.2-1.7-0.3c0,0,0.1,0,0.1,0c-0.2,0-0.5,0-0.7-0.1l0,0c0,0,0,0-0.1,0c0.1-0.1,0.2-0.1-0.2-0.2c-0.1,0-0.2,0-0.4,0
		c-0.3-0.1-0.5-0.2-0.8-0.2c0.2,0.1,0.3,0.1,0.5,0.2c-0.1,0-0.3,0-0.4,0c0.2,0,0.4,0.1,0.6,0.1c0.1,0.1,0.2,0.1,0.3,0.1
		c0.1,0,0.2,0,0.3,0.1c0,0,0,0-0.1,0c-0.5-0.1-1-0.1-1.5-0.3c0.1,0,0.2,0,0.4,0c-0.3-0.1-0.5-0.1-0.7-0.2l0,0l0,0l0,0
		c0.1,0,0.1,0.1,0,0c0,0,0,0,0,0c0,0,0,0,0,0c-0.1,0-0.1,0-0.2,0c0.1,0,0.1,0,0.2,0c0,0,0,0,0,0l0,0c-0.1,0-0.2,0-0.3,0
		c0,0,0,0-0.1,0c-0.1,0-0.2,0-0.3,0c0,0-0.1,0-0.1,0c-0.2,0-0.5,0-0.8,0c-0.3,0-0.5-0.1-0.9-0.3c0,0,0,0-0.1,0c-0.2,0-0.5,0-0.7,0
		L31.2,0C31.1,0,31,0.1,31,0.1c-0.5,0-1.1,0-1.3,0.1c0,0-0.1,0-0.2-0.1l0,0l0,0c-0.4-0.1-1.1-0.2-1.8,0c-0.8,0.2-1.7,0.4-2.3,0.4
		l0,0.2c-0.1,0-0.3,0.1-0.4,0.1c-0.2,0-0.3,0-0.5,0c0,0,0.1,0,0.1,0.1l-1.9,0.4c0,0.1,0,0.2-0.2,0.2c0-0.1,0-0.1,0.1-0.1
		c0.2-0.3-1.1,0.5-0.5,0.3c0,0,0,0-0.1,0c-0.2,0.1-0.4,0.3-0.5,0.4c-0.3,0-0.6,0,0.1-0.3l-0.9,0.3c-0.6,0.1-1.3,0.3-1.8,0.6
		c-0.4,0.2-0.9,0.7-0.7,0.4l-0.9,0.5c-0.1,0-0.2,0.1-0.2,0.1l-0.2,0.1l0,0c-0.6,0.2-1.1,0.6-1.6,1C15.1,4.9,15,5,14.8,5
		C15,5,15.1,5,15.2,4.9C15.1,5,15.1,5,15,5.1c0,0-0.1,0.1-0.1,0.1c-0.2,0.1-0.4,0.3-0.6,0.4l-0.1,0c0.2-0.1,0.4-0.2,0.4-0.3
		c-0.2,0.1-0.4,0.2-0.5,0.2l0,0c0,0,0,0-0.1,0c-0.1,0.1-0.3,0.1-0.4,0.2c0.1,0,0.1,0,0.2-0.1c0,0,0,0.1,0.1,0.1
		c-0.4,0.2-0.7,0.4-1.1,0.6c-0.4,0.4-0.7,0.7-1.4,1.2l-0.2,0C10.6,7.9,9.5,8.7,9.5,9c-0.4,0.1-1.1,0.6-1.6,1.2
		c-0.5,0.7-1.1,1.4-1.5,1.8l0.2,0.2c-0.5,0.6-0.9,1.3-1.3,2.1l0.2,0.1c-0.4,0.7-1.3,1.7-1.9,2.9c0-0.1,0.2-0.4,0.3-0.6
		c-0.3,0.3-0.5,0.6-0.7,1c-0.2,0.4-0.3,0.8-0.4,1.2c-0.2,0.7-0.4,1.4-0.8,2c0,0,0-0.1,0-0.2c-0.2,0.6-0.4,1.1-0.6,1.5
		c0,0.1-0.1,0.1-0.1,0.2c0,0,0.1-0.1,0.1-0.1c-0.1,0.3-0.2,0.6-0.2,0.9L1,23.2c0,0,0,0,0,0.1c0,0,0,0,0,0c0,0,0,0,0,0c0,0,0,0,0,0
		c-0.1,0.2-0.1,0.3,0,0.3c0,0.1,0,0.2-0.1,0.2c-0.1,0.1-0.1-0.2-0.1-0.4c-0.2,0.9-0.1,1.3,0.1,1.5c0,0.2-0.1,0.5-0.3,0.6
		c0.1,0.2,0,0.7-0.1,1.2c0,0.2,0,0.4,0,0.5c-0.1,0.8-0.3,1.7-0.2,1.9l-0.2,0.1c0,0.2,0.1,0.4,0.2,0.6c0,0.1,0,0.1,0,0.2
		c0,0.3,0,0.5-0.1,0.7c-0.1,0.2-0.2,0.2-0.3-0.2c0.3,1.5,0.1,1.2,0.4,2.4l-0.2-0.1c0,0.3,0.2,0.7,0.2,1c0,0.1,0,0.2,0,0.3
		c0,0,0,0,0,0c-0.2,0.5-0.1,1.6,0.1,2.9c0,0.1,0,0.2,0.1,0.3c0,0.3,0.1,0.5,0.1,0.8c0,0-0.1-0.1-0.1,0c0,0.1,0.1,0.1,0.1,0.2
		C0.8,38.6,0.9,39,1,39.4c-0.1,0.3-0.1,0.6-0.1,0.9c0,0.1-0.1-0.2-0.2-0.3c0.1,1.4,0.3,0.5,0.6,0.9c0,0.1,0,0.3,0.1,0.4
		c-0.1,0.1-0.4-0.1-0.2,0.5c0,0.3,0.5,0.9,0.9,1.7c0.2,0.5,0.3,1,0.5,1.3c0,0,0,0,0,0c0,0,0,0,0,0c0,0.1,0.1,0.1,0.2,0.2
		c0,0,0,0,0,0l0,0c0.1,0.1,0.1,0.1,0.2,0.2c-0.1,0.2-0.3-0.2-0.3,0c0.1,0.1,0.3,0.3,0.3,0.5c0,0.2-0.2-0.1-0.3-0.3
		c0.4,0.7,0.7,1,0.9,1.1c0.2,0.4,0.3,0.8,0.6,1c0,0.1,0,0.2,0,0.2c0.1,0.1,0.2,0.2,0.3,0.4c0.2,0.3,0.2,0.6,0.2,0.8
		C5,49.4,4.6,48.3,5,49l0,0.3l0.3,0.1c0.3,0.5,0.3,0.8,0.2,0.9c-0.1-0.1-0.3-0.3-0.3-0.4c0.3,0.7,1.3,1.6,1.4,1.8L6.1,51
		c1.4,1.8,3.3,3.9,5.1,5.1c0.2,0.2,0.4,0.4,0.6,0.5c0,0,0,0,0,0c0,0,0.1,0,0.1,0c0.2,0.1,0.4,0.2,0.6,0.3c0.1,0.1,0.3,0.2,0.4,0.4
		c0.2,0.3,0.4,0.7,0.6,0.8c0.1,0.1-0.2-0.1-0.4-0.1c1.1,1.1,0.3-0.1,1.3,0.5c0.1,0.2-0.5,0.2,0.2,0.6c0.3,0.3,2.2,0.7,3,1.4
		c0-0.1-0.1-0.1-0.1-0.1c0.1,0.1,0.2,0.1,0.4,0.2l0-0.1c0.6,0.3,1.2,0.7,1.7,1c0.8,0.4,1.5,0.6,1.9,0.6c0.1,0.1,0.1,0.1,0.2,0.2
		c0.8,0.3-0.2-0.3,0.6-0.1l0.2,0.2l0.3-0.1c0.5,0.2,0.7,0.4,0.7,0.5c-0.1,0-0.4-0.1-0.5-0.1c0.7,0.3,2,0.4,2.2,0.5l-0.8-0.3
		c0.5,0.1,1,0.2,1.6,0.3c0.1,0,0.3,0.1,0.5,0.1c0.2,0,0.5,0.1,0.7,0.1c0,0,0,0.1-0.1,0.1c0.1,0,0.2-0.1,0.2-0.1
		c0.8,0.1,1.6,0.2,2.3,0.2l0,0.1c0.1,0,0.2,0,0.3-0.1c0.2,0,0.3,0,0.5,0l-0.5,0.2c0.9-0.2,1.7,0.3,2.5,0.1c-0.9,0.1-1,0-0.9-0.1
		c0-0.1,0.1-0.2-0.1-0.3c0,0,0.1,0,0.1,0c0.5,0,0.9,0,1.4,0c0.4,0.2,0.7,0.4,1.9,0.3c-0.4,0-0.9-0.1-0.5-0.2c0.5,0,1.1,0,1.4,0.1
		c1.6-0.3-0.3-0.2,0.4-0.4c0.3,0.1,0.5,0,0.8-0.1c0.1,0,0.2-0.1,0.3-0.1c0,0,0,0,0,0c-0.3,0.1-0.7,0.3-0.5,0.2l0.6-0.1l-0.1,0
		c0.1-0.1,0.2-0.1,0.3-0.1c0,0,0,0,0.1,0l0,0.1c0.8-0.1,1-0.2,1-0.3c0.1,0,0.1,0,0.2-0.1c0,0,0,0.1-0.2,0.2c0.1-0.1,0.3-0.1,0.4-0.1
		c0,0,0,0,0,0l-0.1,0.1l0.2-0.1c0,0,0.1,0,0.3-0.1l0.2,0l-0.1,0.2c0.8-0.4,1.1-0.4,2-0.6c0,0,0,0,0-0.1c0,0,0.1,0,0.1,0
		c0.1,0,0.3-0.1,0.4-0.1c0,0.1-0.1,0.1-0.1,0.2c0.6-0.1,1.4-0.5,1.8-0.6c-0.2,0-0.3,0.1-0.4,0.1c0.2-0.1,0.5-0.3,0.7-0.4l0.7-0.5
		c0.3,0,0.1,0.1,0,0.3c0.3-0.2,0.5-0.4,0.9-0.6c0,0.2,0.1,0.4-0.5,0.8l1.3-0.9c0.1,0,0.8-0.2,0.7,0c0.8-0.4,1.7-1.4,2.7-1.9
		c0-0.1,0.1-0.2,0.3-0.3c0.4-0.3,0.9-0.6,1.3-0.9c0.2-0.2,0.5-0.3,0.7-0.5c0.1-0.1,0.2-0.2,0.3-0.3c0.2-0.1,0.4-0.3,0.6-0.4l0.5-0.2
		c0.6-0.7-0.7,0.2-0.1-0.6c0.3-0.1,0.5-0.2,1-0.6c0,0,0.1,0,0.1,0c0,0,0.1-0.1,0.1-0.1c0.1-0.1,0.1-0.1,0.2-0.2
		c-0.1,0-0.1,0.1-0.2,0.1c0.1-0.1,0.1-0.2,0.2-0.4c0.2-0.2,0.4-0.3,0.6-0.4c0.5-0.6,0.4-0.6,0.3-0.5l0.6-0.4c-0.4,0.9-1,1.4-0.3,1
		c-0.2-0.3,0.4-0.8,0.8-1.5c0.5-0.7,0.9-1.3,0.7-1.6l0.4-0.4c-0.1,0.1-0.1,0.2-0.2,0.3c0.5-0.4,0.5-0.7,0.5-1
		c0.2-0.3,0.4-0.5,0.6-0.9c-0.1,0-0.2,0-0.2-0.2c0.3-0.3,0.4-0.5,0.4-0.2L59,48c0,0.1,0,0.2,0,0.2c0.4-0.4,0.8-1.3,1-1.6
		c-0.1,0.1-0.2,0.3-0.3,0.4c0.1-0.3,0.2-0.5,0.3-0.8L60,46c0,0,0-0.1,0-0.1l0,0c0-0.1,0-0.1,0-0.2l0.1-0.3c0.2-0.2,0.2,0,0.1,0.2
		c0.1-0.2,0.1-0.3,0.1-0.5c0.2-0.1,0.3-0.2,0.3-0.2c0,0.1,0,0.3-0.1,0.6l0.4-1.5c0.1-0.1,0.5-0.7,0.5-0.4c0-0.1,0.1-0.2,0.1-0.3
		c0.2-0.4,0.4-0.9,0.8-1.4c-0.1,0.1-0.4,0.4-0.6,0.7c0.1-0.7,0.2-1.5,0.5-2.2l0,0c0,0,0,0,0,0l0,0l0.1,0c0,0,0,0-0.1,0
		c0,0.2,0.1,0.3,0.1,0.5c0.1-0.5,0.1-0.4,0-0.4c0.1-0.4,0-0.6,0-0.7c0.1-0.4,0.2-0.8,0.3-1.1c0.1-0.1,0.2-0.2,0.3-0.2
		c0.1-0.7,0-0.4-0.2-0.2c0-0.2,0.1-0.3,0.1-0.5c0-0.3,0-0.6,0-0.9l0.4-0.7c0-0.9-0.4,0.4-0.5-0.2c0-0.1,0-0.3,0-0.4c0,0,0-0.1,0-0.1
		c0-0.5,0.1-0.6,0.2-0.7c0,0.1,0,0.1,0.1,0l0,0c0.1,0,0.2,0.1,0.2-0.1c0-0.2-0.1-0.5-0.2-0.8l0.1-0.4l-0.1,0.3
		c-0.1-0.3-0.1-0.6-0.1-1l0.1,0l-0.1-0.1c0-0.2,0-0.4,0.1-0.7c0,0,0,0.1,0,0.1c0,0,0,0,0,0c0,0,0,0,0,0c0,0.3,0,0.6,0,0.8L63.5,32z
		 M24.2,1c0.1-0.1,0.2-0.1,0.3-0.1C24.6,0.9,24.5,1,24.2,1z M46,3.8C46,3.8,45.9,3.8,46,3.8c-0.1,0-0.1,0-0.2,0c0-0.1,0-0.1,0-0.1
		C45.9,3.7,45.9,3.7,46,3.8z M47,4.8c-0.1,0-0.2,0-0.3,0c-0.1-0.1-0.3-0.2-0.4-0.2c0.1,0,0.2,0.1,0.3,0.2c-0.1,0-0.3,0-0.5,0
		c0,0,0,0,0,0c0,0,0,0,0,0c0,0,0,0-0.1,0c0,0-0.1,0-0.1-0.1c0,0,0.1,0,0.2,0c-0.4-0.2-0.9-0.5-0.9-0.4l0.5,0.3
		c-0.2-0.1-0.5-0.2-0.7-0.3c0.3,0,0.4-0.1,0.4-0.3c0.1,0,0.3,0,0.4,0c0.2,0.1,0.5,0.2,0.8,0.4C46.8,4.7,46.9,4.8,47,4.8z M19.1,5.3
		L19,5.1c0.2-0.1,0.4-0.3,0.6-0.4c0,0,0,0,0.1,0c0,0,0.1-0.1,0.1-0.1c0.1,0,0.2-0.1,0.4-0.1C19.8,4.8,19.5,5,19.1,5.3z M6.1,17.1
		L6.1,17.1C6.4,16.7,6.3,16.8,6.1,17.1z M3,23.9c0-0.3,0-0.5,0-0.8c0-0.1,0-0.3,0-0.5l0.2-0.3c0,0,0,0,0,0C3.1,22.9,3.1,23.4,3,23.9
		z M3.2,21c0.2-0.3,0.3-0.7,0.3-0.8c0.1,0.1,0.2,0.1,0.3,0.1c0,0.1,0,0.2,0,0.4c-0.1,0.2-0.1,0.4-0.2,0.7c0,0,0,0,0,0
		c-0.1,0.2-0.1,0.4-0.2,0.6c0-0.1-0.1-0.2-0.1-0.3c0.1-0.1,0.1-0.3,0.1-0.4c0,0.1,0,0.2-0.1,0.3c0-0.1-0.1-0.3-0.1-0.5
		C3.2,21,3.2,21,3.2,21z M3.2,20.7c0.1-0.2,0.1-0.5,0.2-0.7c0,0.1,0,0.2,0.1,0.2L3.2,20.7z M4.9,18.4C5,18.4,5,18.4,4.9,18.4
		c0.1,0.1,0,0.2-0.1,0.4C4.9,18.7,4.9,18.5,4.9,18.4z M4.3,20.7c0,0,0-0.1,0-0.1c0,0,0,0,0.1,0C4.3,20.6,4.3,20.7,4.3,20.7z
		 M4.3,21.2c0,0,0-0.1,0.1-0.3C4.4,21,4.3,21.1,4.3,21.2z M4.6,20.1c-0.1,0-0.2-0.2-0.2-0.4c0.1-0.3,0.2-0.6,0.2-0.8
		c0.1-0.1,0.1-0.1,0.1-0.1l0,0l-0.2,1.1l0.3-1c0,0,0,0.1,0,0.1c0,0,0,0,0,0.1c0,0,0-0.1,0.1-0.1c0,0,0,0,0,0c0,0,0,0,0,0
		C4.9,18.9,5,18.8,5,18.7C4.8,19.2,4.7,19.7,4.6,20.1z M5.1,18.4C5.1,18.4,5.1,18.4,5.1,18.4c0,0,0,0.1,0,0.2
		C5.1,18.5,5.1,18.4,5.1,18.4z M6.5,15.9c0,0.1,0,0.1-0.1,0.2C6.4,16.1,6.4,16,6.5,15.9z M7.6,14.9C7.6,14.9,7.6,14.9,7.6,14.9
		C7.6,14.9,7.6,14.9,7.6,14.9L7.6,14.9z M17.1,5.3l0.1,0.1L17.1,5.3c0.5-0.3,1-0.4,0.9-0.5l-0.7,0.3C17.3,5.1,17.2,5.2,17.1,5.3
		L17.1,5.3c0.1-0.1,0.1-0.2,0.1-0.3c0.2-0.3,0.4-0.6,0.6-0.8C18,4.5,18.2,4.7,18.2,5c-0.1,0.1-0.2,0.2-0.3,0.3
		c-0.2,0-0.4,0.1-0.7,0.2c0,0,0,0,0,0c0,0,0,0,0-0.1c0,0,0,0.1,0,0.1c-0.1,0-0.2,0-0.3,0.1C17,5.5,17,5.4,17.1,5.3z M17.9,6.1
		c0,0,0-0.1,0.3-0.2C18.1,6,18,6.1,17.9,6.1z M25.3,1.7c-0.1,0.1-0.1,0.1-0.2,0.2l0-0.1l0,0.2c0,0,0,0,0,0c0,0,0,0,0,0l0,0
		C25,2,25,2,24.9,2.1c-0.2,0.2-0.5,0.5-0.8,0.7C24,2.5,23.9,2.2,23.9,2c0.1-0.1,0.2-0.2,0.4-0.3c0.2,0,0.4,0,0.7,0c0,0,0,0,0,0.1
		c0,0,0,0,0-0.1C25.1,1.7,25.2,1.7,25.3,1.7z M1.9,32.3l-0.2-0.3c0,0.1,0,0.3,0,0.4c-0.1-0.1-0.1-0.2-0.2-0.3c0-0.1,0-0.2,0.1-0.3
		c0-0.1,0-0.2,0.1-0.3l0.2,0.2c0,0,0,0,0,0.1C1.9,32.1,1.9,32.2,1.9,32.3z M3.1,39.7L3.1,39.7C3.1,39.7,3.1,39.7,3.1,39.7
		C3.1,39.7,3.1,39.7,3.1,39.7z M3.6,41.8C3.7,42,4,42.4,3.9,42.6C3.6,42.4,3.7,42.2,3.6,41.8z M26.6,61.1c0.3,0,0.6,0,0.9,0.1
		c0.1,0.1,0.2,0.1,0.2,0.2c-0.1,0-0.2,0-0.3,0c-0.1-0.1-0.2-0.1-0.4-0.1c0,0-0.1,0-0.1,0c0.1,0,0.1,0,0,0l-0.2,0
		C26.6,61.2,26.6,61.1,26.6,61.1z M29.2,61.5C29.2,61.4,29.2,61.4,29.2,61.5C29.2,61.4,29.3,61.4,29.2,61.5z M31,61.4
		c0.2,0,0.3,0,0.4,0c-0.1,0-0.2,0-0.3,0L31,61.4z M21,59.8c-0.1,0-0.1-0.1-0.1-0.1C20.9,59.7,21,59.7,21,59.8
		c0.1-0.1,0.1-0.1,0.1-0.1C21.1,59.7,21.1,59.7,21,59.8c0.2-0.1,0.4,0,0.6,0.1L21,59.8z M18.6,58.7c0.1,0,0.2,0.1,0.2,0.1
		C18.7,58.8,18.6,58.7,18.6,58.7z M52.9,11c0.2,0.2,0.4,0.4,0.5,0.6c0,0.2-0.1,0.2-0.4,0.1c1.2,0.8,0.8,0.7,1.9,1.4L54.7,13
		c0.2,0.2,0.5,0.4,0.7,0.7c0.1,0.1,0.2,0.3,0.2,0.4c0.2,0.4,0.7,1.3,1.4,2.3c0.1,0.1,0.1,0.2,0.2,0.3c0.1,0.2,0.2,0.4,0.4,0.6
		c0,0,0,0,0,0c0,0,0.1,0.1,0.1,0.1c0.2,0.4,0.4,0.7,0.5,1.1c0,0.3,0,0.7,0.1,0.9c0,0.1-0.1-0.1-0.2-0.3c0.3,1.2,0.3,0.3,0.7,0.7
		c0,0.1,0.1,0.2,0.1,0.3c-0.1,0.1-0.4,0-0.2,0.5c0,0.2,0.4,0.8,0.8,1.5c0.2,0.5,0.3,0.9,0.4,1.3c0,0,0,0,0,0.1c0,0,0,0,0,0
		c0,0.1,0.1,0.1,0.1,0.2c0,0,0,0.1,0,0.1l0,0c0,0.1,0.1,0.1,0.1,0.2c-0.1,0.2-0.2-0.2-0.3-0.1c0.1,0.1,0.2,0.3,0.2,0.5
		c0,0.1-0.1-0.1-0.3-0.3c0.2,0.7,0.4,1,0.7,1.1c0.1,0.4,0.2,0.8,0.4,1c0,0.1,0,0.1-0.1,0.2c0,0.1,0.1,0.3,0.1,0.4
		c0,0.3,0,0.6-0.1,0.7c0.1,0.8,0.2-0.3,0.3,0.5L61,28.2l0.2,0.2c0,0,0,0,0,0.1c0,0.5-0.1,0.8-0.2,0.8c0-0.1-0.1-0.4-0.1-0.5
		c-0.1,0.7,0.2,1.9,0.1,2.1l0-0.8c0.1,0.5,0.1,1.1,0.1,1.7c0,0.6,0,1.2,0,1.8c0,0.3,0,0.6,0,0.9c0,0.3-0.1,0.6-0.1,0.9
		c0,0.6-0.1,1.1-0.1,1.6c-0.1,0.3-0.1,0.6-0.1,0.8c0,0,0,0,0,0c0,0,0,0,0,0c0,0.2,0,0.4,0,0.7c-0.1,0.1-0.1,0.3-0.2,0.5
		c-0.2,0.3-0.5,0.5-0.5,0.7c-0.1,0.1,0-0.2,0-0.4c-0.6,1.3,0.2,0.3,0,1.3c-0.2,0.1-0.3-0.4-0.6,0.3c-0.3,0.3-0.2,2.2-0.9,2.9
		c0,0,0.1-0.1,0.1-0.1c-0.1,0.1-0.1,0.2-0.2,0.3l0.1,0c-0.3,0.6-0.6,1.1-0.9,1.6c-0.4,0.6-0.8,1.2-0.8,1.7c-0.1,0.1-0.2,0.1-0.2,0.1
		c-0.4,0.7,0.3-0.1-0.1,0.6l-0.2,0.1l0,0.3c-0.3,0.4-0.6,0.5-0.7,0.5c0.1-0.1,0.2-0.3,0.3-0.4c-0.5,0.4-1.1,1.5-1.3,1.7l0.5-0.6
		c-0.3,0.4-0.5,0.8-0.8,1.2c0,0,0,0,0,0c-0.2,0.1-0.3,0.3-0.5,0.6c-0.1,0.1-0.2,0.2-0.3,0.3c0,0,0,0-0.1-0.1c0,0.1,0,0.2,0,0.2
		c-0.2,0.2-0.3,0.3-0.5,0.5L52.5,53c-0.1,0.1-0.3,0.3-0.4,0.4l0-0.1c0,0.1-0.1,0.2-0.2,0.3c-0.1,0.1-0.2,0.2-0.3,0.3l0.2-0.5
		c-0.4,0.7-1.2,0.9-1.8,1.5c0.6-0.5,0.7-0.5,0.8-0.4c0,0.1,0,0.1,0.1,0.2c-0.3,0.3-0.7,0.5-1,0.8c-0.4,0.1-0.8,0-1.7,0.8
		c0.2-0.2,1-0.6,0.7-0.2c-0.4,0.2-0.9,0.5-1.2,0.5c-1.2,0.8,0.3,0.1-0.1,0.5c-0.3,0-0.5,0.2-0.6,0.4c-0.1,0.1-0.2,0.1-0.3,0.2
		c0,0,0,0,0,0c0.2-0.2,0.5-0.5,0.3-0.4l-0.5,0.3l0.1,0c-0.1,0.1-0.1,0.2-0.2,0.2c0,0,0,0,0,0l0-0.1c-0.7,0.3-0.8,0.5-0.8,0.6
		c-0.1,0-0.1,0.1-0.2,0.1c0,0,0-0.1,0.1-0.2c-0.1,0.1-0.2,0.1-0.4,0.2c0,0,0,0,0,0l0.1-0.1l-0.2,0.1c0,0-0.1,0-0.3,0.1l-0.2,0.1
		l0-0.2c-0.7,0.5-0.9,0.7-1.7,0.9c0,0,0,0,0,0.1c0,0-0.1,0-0.1,0c-0.1,0-0.3,0.1-0.4,0.1c0-0.1,0.1-0.1,0.1-0.2
		c-0.6,0-1.3,0.4-1.6,0.6c0.1,0,0.3-0.1,0.4-0.1c-0.2,0.1-0.4,0.3-0.7,0.4l-0.7,0.3c-0.3,0-0.1-0.1,0.1-0.2
		c-0.3,0.1-0.5,0.3-0.9,0.4c0.1-0.2,0-0.4,0.6-0.6l-1.3,0.6c-0.1,0-0.8,0-0.6-0.1c-0.8,0-1.9,0.7-2.9,0.7c-0.1,0-0.2,0.1-0.4,0.1
		c-0.5,0-1,0-1.5,0c-0.2,0-0.5,0-0.8,0c-0.1,0-0.3,0-0.5,0c-0.2,0-0.4,0-0.5-0.1l-0.5-0.3c-0.8,0,0.6,0.4-0.3,0.5
		c-0.2-0.1-0.5-0.3-1.1-0.4c0,0,0,0,0,0c0,0-0.1,0-0.1,0c-0.2,0-0.3,0-0.5,0c0.1,0,0.2,0,0.4,0.1c-0.1,0-0.3,0-0.5,0.1
		c-0.2-0.1-0.4-0.1-0.5-0.2c-0.7-0.1-0.7,0-0.5,0.1l-0.6-0.2c1-0.2,1.6,0,0.9-0.3c-0.1,0.3-0.8,0.3-1.6,0.1c-0.7-0.1-1.4-0.3-1.6,0
		l-0.3-0.2l0,0c0,0,0,0,0,0l-0.1-0.1c0.1,0,0.2,0,0.3,0c-0.5-0.3-0.7-0.1-1.1-0.1c-0.3-0.1-0.6-0.2-1-0.4c0.1,0.1,0,0.1-0.1,0.2
		c-0.4-0.2-0.6-0.3-0.3-0.3l-0.2,0c0.1,0,0.2,0,0.2-0.1c-0.5-0.3-1.3-0.5-1.6-0.6c0.1,0.1,0.3,0.1,0.4,0.2c-0.2,0-0.5-0.1-0.7-0.1
		c-0.1,0-0.2-0.1-0.3-0.1l0,0c-0.1,0-0.2,0-0.4,0l-0.1,0c-0.2-0.2,0-0.2,0.2-0.1c-0.2-0.1-0.3-0.1-0.5-0.1c-0.1-0.2-0.2-0.3-0.2-0.3
		c0.1,0,0.3,0,0.6,0.1L18,58.1c0-0.1-0.2-0.2-0.3-0.3c0,0-0.1-0.1-0.1-0.1c0,0,0,0,0,0c0,0-0.1-0.1-0.1-0.1c-0.3-0.3-0.8-0.5-1.2-1
		c0,0.1,0.3,0.4,0.5,0.6c-0.6-0.2-1.3-0.5-1.8-0.9l0,0c0,0,0,0,0,0l0,0l0.1-0.1c0,0,0,0.1,0,0.1c0.1,0,0.3,0,0.4,0
		c-0.3-0.2-0.3-0.2-0.4-0.1c-0.3-0.2-0.5-0.2-0.7-0.2c-0.3-0.3-0.6-0.5-0.9-0.8c0-0.1,0-0.2,0-0.2c-0.4-0.4-0.3-0.2-0.3,0
		c-0.1-0.1-0.2-0.2-0.4-0.3c-0.2-0.2-0.4-0.3-0.7-0.5l-0.3-0.7c-0.7-0.6,0.4,0.9-0.8,0c-0.4-0.3-0.5-0.4-0.4-0.5c0.1,0,0.1,0,0.1,0
		l0,0c0.1-0.1,0.1-0.1,0-0.2c-0.2-0.1-0.4-0.2-0.6-0.4l-0.2-0.4l0.1,0.3c-0.2-0.2-0.5-0.4-0.7-0.6l0-0.1l-0.1,0
		c-0.1-0.2-0.3-0.3-0.4-0.5c0,0,0,0,0.1,0.1c0,0,0,0,0,0c0,0.1,0.1,0.1,0.1,0.1c0.2,0.2,0.3,0.3,0.4,0.5l-0.3-0.5c0,0,0,0,0,0
		c0,0,0,0-0.1-0.1l-0.1-0.1c0.9,0.5,1.2,1,0.9,0.3c-0.3,0.2-0.8-0.3-1.3-0.9c-0.5-0.6-0.9-1.2-1.2-1l-0.2-0.5
		c0.1,0.1,0.1,0.1,0.2,0.2c-0.3-1-0.8-0.3-1.4-1.5c-0.2-0.4-0.3-0.7,0-0.5l-0.7-0.8c-0.1-0.3,0-0.2,0.1,0c-0.3-0.4-0.5-0.9-0.7-1.3
		l0,0c0,0-0.1-0.1-0.2-0.1l-0.1-0.4c-0.2-0.2-0.3-0.3-0.5-0.5C4.1,43.8,4,43.6,4,43.5c0,0,0.1,0,0.2,0.1c0.1,0.2,0.3,0.4,0.4,0.7
		c0.1-0.5,0-0.6-0.2-0.8c-0.2-0.2-0.4-0.6-0.5-1.4l0.3,0.7c0.2-0.6-0.2-1.1-0.3-2c0,0.1,0,0.6,0,0.9c0-0.1,0-0.1-0.1-0.2
		c-0.1,0.2-0.2-0.3,0.1,0.3c0,0.3-0.1,0.4-0.3,0.1c0-0.1,0-0.2-0.1-0.3c0.1,0.1,0.1-0.2-0.2-0.9c0,0.2,0.1,0.5,0,0.5
		c-0.1-0.1-0.1-0.2-0.2-0.3c0.2-0.1,0.1-0.4-0.1-0.9c0,0,0,0,0.1,0c-0.1,0,0,0.1,0.2,0.3l-0.3-0.6l0.3,0c0,0.1,0,0.1,0,0.2l0.3,0.5
		c0,0,0,0,0,0c0,0.1,0,0.1,0,0.2l0-0.5l-0.1,0c0,0,0,0,0,0.1c0-0.1,0-0.2,0-0.1c-0.2-0.4-0.2-0.4-0.3-0.3c-0.2-0.6-0.4-0.5-0.6-0.8
		c-0.2-0.7,0-0.9,0.2-1.1c-0.1-1.1-0.2,0.9-0.5-0.5c0-0.3,0-0.5-0.1-0.8c0,0.1,0.1,0.2,0.1,0.1L2.3,36c0,0,0,0,0,0
		c-0.1-0.4-0.3-0.9-0.4-1.4c0.1-0.6,0.2,0,0.3-0.1c0,0.1,0,0.1,0,0.2l0,0c0-0.1,0-0.2,0-0.2c0,0,0,0,0,0l0,0c0-0.1,0-0.2,0-0.3
		c0,0,0,0.1,0,0.3l-0.3-0.5c0-0.1,0.1-0.1,0.1-0.1c-0.1-0.5-0.3,0-0.4-0.8c-0.1-0.1-0.1-0.2-0.1-0.4c0.1,0.1,0.3,0.1,0.3,0.2
		c0,0,0-0.1-0.1-0.1L2,32.5c0,0,0,0.1,0,0.1c0,0,0-0.1,0-0.1l0,0l0,0c0-0.2,0-0.3,0-0.5l0,0c0,0,0,0,0-0.1c0,0,0,0,0.1,0.1
		c0,0.2,0.2,0.1,0.2,0.2c0-0.2-0.1-0.3-0.1-0.3c0,0,0-0.1,0-0.2c-0.1-0.3-0.1-0.6-0.1-1C2,31,2,31.4,2,31.8c-0.2-0.4-0.2-0.7-0.1-1
		l-0.1,0c0-0.2,0-0.3,0-0.5c0,0,0,0,0,0c0,0,0,0.1,0,0.1c0,0,0,0,0-0.1c0,0.1,0.1,0.2,0.1,0.4c0-0.1,0.1-0.3,0.1-0.5
		c0,0,0.1,0.1,0.1,0c0-0.1,0-0.2,0-0.3c0,0,0-0.1,0-0.1c0,0.3,0,0.5,0,0.7c0-0.2,0.1-0.5,0.1-0.7l0,0l0,0l0,0c0,0.1,0,0.1,0,0
		c0,0,0,0,0,0c0,0-0.1,0-0.1-0.1c0.1-0.4,0.1-0.1,0.1,0.1c0,0,0,0,0,0l0,0c0-0.4,0-0.9,0-1.3c-0.1,0.3-0.1,0.6-0.1,1.2
		c0,0-0.1-0.1-0.1-0.1c0-0.1,0-0.1,0-0.2c0-0.1,0-0.2,0-0.3c0,0,0,0,0,0c0-0.3-0.1-0.4-0.1-0.7C1.9,28.6,2,28.4,2.1,28
		c-0.1,0.2-0.2,0.1-0.4,0l0.2-0.5c0,0,0,0,0,0c0.1,0,0.2,0.1,0.2,0.1c0-0.1,0-0.1-0.1-0.2c0.1-0.1,0.2-0.2,0.3-0.3
		c-0.1,0-0.1,0-0.1-0.4c0-0.1,0-0.1,0.1-0.2l-0.1,0.1c0-0.1,0-0.2,0-0.3c0,0-0.1,0.1-0.1,0.1c0,0-0.1,0-0.1,0c0,0,0,0.1,0.1,0.1
		c0,0.1-0.1,0.2-0.1,0.3l0-0.3l0,0.2c0-0.2-0.1-0.3-0.1-0.5C2,26.5,2,26.6,2.1,26.6c0,0,0-0.1,0-0.2c0.1,0,0.3-0.1,0.4-0.3
		c-0.1,0.1,0.3-1.1,0.3-1.4l-0.1,0.1L3,24.2c0,0.2-0.1,0.5-0.2,0.7c0.4-0.3,0-0.2,0.5-0.7c-0.2,0.1-0.2-0.1-0.1-0.3c0,0,0.1,0,0.2,0
		c0.3-0.6,0.1-0.5,0.1-0.6c0-0.1,0.1-0.2,0.1-0.3c0,0,0-0.1,0-0.1c0,0,0,0,0,0c0-0.1-0.1,0-0.2,0.1c0.5-0.4,0.5-0.9,1-1.5
		c0,0.1-0.1,0.2-0.1,0.4c0,0,0-0.1,0.1-0.1c0-0.1,0.1-0.2,0.2-0.4c0,0,0,0-0.1,0c0,0,0,0,0.1-0.1c0,0,0,0-0.1,0c0,0,0,0,0,0
		c0,0,0,0,0,0l0.6-1.2l-0.1,0.4C5,20.2,5.2,19.8,5.2,20c0.2-0.5,0.1-0.5-0.1-0.3l0,0C5,19.6,5,19.5,5,19.3c0,0.1,0.1,0.1,0,0.1
		c0.1,0.3,0.3-1.2,0-0.5c0,0,0-0.1,0-0.1c0.1-0.2,0.1-0.4,0.2-0.6c0.2-0.2,0.4-0.3,0.2,0.3l0.4-0.8c0.2-0.2,0.4-0.4,0.5-0.7
		c0.2-0.2,0.4-0.4,0.5-0.4c0,0-0.1,0-0.2,0c0.1-0.1,0.1-0.2,0.2-0.4c0.3-0.3,0.4-1,0.3-0.6l0.3-0.5c0.1,0,0.2-0.1,0.4-0.3L7.6,15
		l0-0.1c0,0,0,0,0.1-0.1c0,0,0-0.1,0.1-0.1c0.1-0.1,0.1-0.2,0.2-0.2c0,0-0.1,0.1-0.2,0.2c0,0,0,0,0,0l0.1-0.2l0.1,0
		c0.2-0.4,0.5-0.7,0.8-1.1c-0.1,0.1-0.1,0.2-0.2,0.3c0,0,0.1,0,0.1,0c0.1-0.1,0.1-0.2,0.1-0.3C8.8,13.2,9,13,9.1,12.9
		c0,0,0.1-0.1,0.1-0.1l0,0.1c0,0,0,0,0-0.1c0,0.1,0,0.2,0.3-0.1c0.1-0.1,0.1-0.2,0.2-0.3c0.2-0.2,0.4-0.3,0.5-0.5
		C10.1,12,10,12,9.9,12.1C9.9,12,10,12,10,11.9c-0.1,0.1-0.2,0.2-0.3,0.3c-0.1,0.1-0.2,0.2-0.3,0.3c-0.1,0.1-0.2,0.1-0.2,0.2
		c0,0,0,0,0,0c0.3-0.4,0.7-0.9,1.1-1.2c-0.1,0.1-0.2,0.3-0.3,0.4c0.2-0.2,0.4-0.3,0.5-0.4l0,0l0,0l0,0c-0.1,0-0.1,0,0,0c0,0,0,0,0,0
		c0,0,0,0,0,0c0,0,0,0,0.1,0c0,0,0,0.1,0,0.1c0,0,0,0,0,0l0,0c0-0.1,0.1-0.1,0.2-0.2c0,0,0.1-0.1,0.1-0.1c0.2-0.3,0.4-0.5,0.8-0.8
		c0.2-0.1,0.4-0.2,0.7-0.4c0-0.1,0.1-0.1,0.1-0.2c0.1-0.1,0.3-0.2,0.4-0.3l0,0.1c0-0.1,0.1-0.1,0.1-0.2c0.4-0.3,0.9-0.6,0.9-0.8
		c0.4,0,1-0.5,1.6-0.9c0.6-0.4,1.3-0.9,1.8-1.2l-0.1-0.2c0.1-0.1,0.3-0.1,0.4-0.2c0.1,0,0.3-0.1,0.4-0.1c0,0-0.1,0-0.1-0.1l1.6-0.7
		c-0.1-0.1,0-0.2,0.1-0.3c0,0.1,0,0.1-0.1,0.1c-0.1,0.3,1-0.7,0.4-0.4c0,0,0.1,0,0.1-0.1c0.2-0.1,0.4-0.2,0.5-0.3c0.3,0,0.5,0,0,0.3
		l0.8-0.3c0.5-0.1,1.2-0.3,1.6-0.5c0.4-0.1,1-0.5,0.7-0.2l0.9-0.3c0.1,0,0.2,0,0.2-0.1l0.2-0.1l0,0c0.6-0.2,1.1-0.3,1.7-0.4
		c0.1,0,0.3,0,0.4,0c-0.1,0-0.3,0-0.4,0c0.1,0,0.2,0,0.3-0.1c0.2,0,0.5-0.1,0.7-0.1l0.1,0.1c-0.2,0-0.4,0-0.5,0.1c0.2,0,0.3,0,0.5,0
		C27.5,3,27.3,3,27.1,3c0.5,0.1,1,0.3,1,0.1l-0.2-0.2c0.2,0,0.3,0,0.5,0c-0.1,0-0.1,0-0.2,0c0.1,0,0.1-0.1,0-0.2
		c0.4,0,0.8,0,1.1,0.1c0.5-0.1,0.9-0.2,1.7-0.1l0.2,0.2c0.6-0.1,1.8,0.3,2,0.1c0.3,0.3,1,0.3,1.8,0.4c0.8,0.1,1.6,0.1,2.1,0.3
		l0.1-0.2c0.7,0.1,1.4,0.3,2.3,0.4l0-0.2c0.8,0,1.9,0.8,3,1.1c-0.1,0-0.4-0.1-0.6-0.2c0.3,0.2,0.6,0.4,1,0.5
		c0.3,0.1,0.7,0.3,1.1,0.4c0.7,0.2,1.4,0.4,1.8,0.8c0,0-0.1,0-0.2,0c0.5,0.2,0.8,0.4,1.1,0.6C46.9,6.8,47,6.9,47.1,7
		c-0.1-0.1-0.1-0.2-0.2-0.2c0.3,0.2,0.6,0.4,0.9,0.5l0,0.2c0,0,0,0,0,0c0,0,0,0,0,0c0,0,0,0,0.1,0C47.9,7.6,48,7.6,48,7.6
		c0.1,0,0.2,0.1,0.2,0.2c0.1,0.1-0.2,0-0.4-0.1c0.7,0.5,1.1,0.5,1.3,0.4c0.2,0.1,0.4,0.3,0.4,0.5c0.2,0,0.6,0.3,1,0.5
		c0.1,0.1,0.2,0.1,0.3,0.2c0.5,0.5,1.2,1.1,1.5,1.2l0,0.2c0.2,0.1,0.3,0.1,0.5,0.2C52.8,10.9,52.9,11,52.9,11z M46.1,3.7
		c0.1,0,0.2,0.1,0.4,0.1C46.4,3.8,46.4,3.8,46.1,3.7z M43.5,3C43.5,3,43.5,3,43.5,3c0.1,0,0.2,0,0.3,0C43.7,3.1,43.6,3.1,43.5,3z
		 M43.4,2.9c0.1,0,0.1,0,0.2,0.1C43.6,2.9,43.5,2.9,43.4,2.9C43.5,2.9,43.4,2.9,43.4,2.9z M40.7,2c0.1,0,0.1,0,0.2,0
		C40.8,2,40.7,2,40.7,2z M61.5,21.4c-0.3-0.2-0.3-0.4-0.4-0.8C61.2,20.8,61.5,21.2,61.5,21.4z M60.3,18.5
		C60.3,18.5,60.3,18.4,60.3,18.5L60.3,18.5C60.3,18.4,60.3,18.4,60.3,18.5z M55.5,11.4C55.5,11.4,55.5,11.4,55.5,11.4
		c0.2,0.2,0.3,0.3,0.4,0.4l-0.3-0.1c0.1,0.1,0.2,0.2,0.3,0.4c-0.1,0-0.2-0.1-0.3-0.1c-0.1-0.1-0.1-0.2-0.2-0.3
		c0-0.1-0.1-0.2-0.1-0.2L55.5,11.4z M49.2,5.8c-0.3-0.1-0.6-0.2-0.9-0.3c-0.2,0-0.4-0.1-0.5-0.1l-0.2-0.2
		C48.1,5.4,48.6,5.5,49.2,5.8z M45.3,3.4c0,0.1-0.2,0.2-0.4,0.2c-0.3-0.1-0.6-0.2-0.8-0.3c0,0,0,0-0.1,0l1.1,0.2L44,3.3
		c0,0,0.1,0,0.1,0c0,0,0.1,0,0.1,0.1c0,0-0.1,0-0.1-0.1c0,0,0,0,0-0.1c0,0-0.1,0-0.1,0C43.9,3,43.8,3,43.7,3
		C44.2,3.1,44.8,3.3,45.3,3.4z M41.9,2.1C41.4,1.8,41.6,1.9,41.9,2.1L41.9,2.1z M39.1,1.2C39.2,1.2,39.2,1.2,39.1,1.2L39.1,1.2
		C39.2,1.2,39.1,1.2,39.1,1.2z M23,1.5l0.1,0.2c-0.2,0.1-0.4,0.2-0.7,0.2c0,0,0,0-0.1,0c0,0-0.1,0.1-0.1,0.1C22.1,2,22,2,21.9,2.1
		C22.3,1.9,22.6,1.7,23,1.5z M52.3,56.3c0.1-0.1,0.2-0.2,0.3-0.3l0.2-0.1C52.5,56.1,52.4,56.2,52.3,56.3z M54,54.5
		C54.1,54.5,54.1,54.5,54,54.5C54,54.6,54,54.6,54,54.5z M55.4,53.1c-0.1,0.1-0.2,0.1-0.2,0.1c0.1-0.1,0.1-0.2,0.2-0.3
		c0.1,0,0.1-0.1,0.2-0.2c0,0,0.1-0.1,0.1-0.1c0,0,0,0,0,0l0,0c0.1-0.1,0.2-0.2,0.3-0.2C55.8,52.7,55.6,52.9,55.4,53.1z M59.3,47.2
		C59.3,47.2,59.3,47.2,59.3,47.2c0,0.1,0,0.3-0.2,0.5L59.3,47.2z M60.4,45.1c0-0.1,0.1-0.3,0.1-0.5c0,0,0,0,0,0
		C60.5,44.8,60.5,44.9,60.4,45.1z"/>
	<path class="st0" d="M62.6,25.5c0,0.1,0,0.1,0.1,0.2C62.6,25.6,62.6,25.5,62.6,25.5z"/>
	<path class="st0" d="M54.8,54.1c-0.1,0.1-0.1,0.1-0.2,0.2C54.7,54.2,54.7,54.1,54.8,54.1z"/>
	<path class="st0" d="M3.7,23.1l0.1-0.6c-0.1,0.3-0.2,0.4-0.3,0.5C3.7,23,3.8,22.9,3.7,23.1z"/>
	<polygon class="st0" points="63.3,27.3 63,27.6 63.3,27.4 	"/>
	<path class="st0" d="M63.8,35c0.1-0.3,0-0.7,0-1C63.9,34.7,63.5,35.1,63.8,35z"/>
</g>
</svg>
