<?xml version="1.0" encoding="utf-8"?>
<!-- Generator: Adobe Illustrator 25.2.0, SVG Export Plug-In . SVG Version: 6.00 Build 0)  -->
<!DOCTYPE svg PUBLIC "-//W3C//DTD SVG 1.1//EN" "http://www.w3.org/Graphics/SVG/1.1/DTD/svg11.dtd" [
	<!ENTITY ns_extend "http://ns.adobe.com/Extensibility/1.0/">
	<!ENTITY ns_ai "http://ns.adobe.com/AdobeIllustrator/10.0/">
	<!ENTITY ns_graphs "http://ns.adobe.com/Graphs/1.0/">
	<!ENTITY ns_vars "http://ns.adobe.com/Variables/1.0/">
	<!ENTITY ns_imrep "http://ns.adobe.com/ImageReplacement/1.0/">
	<!ENTITY ns_sfw "http://ns.adobe.com/SaveForWeb/1.0/">
	<!ENTITY ns_custom "http://ns.adobe.com/GenericCustomNamespace/1.0/">
	<!ENTITY ns_adobe_xpath "http://ns.adobe.com/XPath/1.0/">
]>
<svg version="1.1" id="Layer_1" xmlns:x="&ns_extend;" xmlns:i="&ns_ai;" xmlns:graph="&ns_graphs;"
	 xmlns="http://www.w3.org/2000/svg" xmlns:xlink="http://www.w3.org/1999/xlink" x="0px" y="0px" width="20px" height="20px"
	 viewBox="0 0 20 20" style="enable-background:new 0 0 20 20;" xml:space="preserve">
<style type="text/css">
	.st0{fill:#dee2e6;}
</style>
<metadata>
	<sfw  xmlns="&ns_sfw;">
		<slices></slices>
		<sliceSourceBounds  bottomLeftOrigin="true" height="20" width="20" x="385.9" y="-317.5"></sliceSourceBounds>
	</sfw>
</metadata>
<g>
	<path class="st0" d="M19.4,6.5C19.4,6.6,19.4,6.4,19.4,6.5L19.4,6.5z"/>
	<path class="st0" d="M18.6,4.7c-0.1,0-0.1,0.1-0.1,0.2L18.6,5C18.6,4.9,18.5,4.8,18.6,4.7z"/>
	<polygon class="st0" points="18.3,4 18,4 18.1,4 	"/>
	<path class="st0" d="M17.8,3.6C17.8,3.6,17.8,3.6,17.8,3.6c0.1-0.1,0.1-0.1,0.2-0.1c0,0,0,0,0,0c0,0,0,0,0,0c0,0-0.1-0.1-0.1-0.1
		c0,0-0.1,0-0.1-0.1c0,0,0,0,0,0c-0.1,0-0.2,0-0.2-0.1C17.6,3.3,17.7,3.4,17.8,3.6z"/>
	<path class="st0" d="M17.7,3.9L17.7,3.9C17.7,3.9,17.7,3.9,17.7,3.9z"/>
	<path class="st0" d="M17.7,3.9c0,0-0.1,0-0.2,0C17.6,3.9,17.7,3.9,17.7,3.9C17.7,3.9,17.7,3.9,17.7,3.9z"/>
	<polygon class="st0" points="15.9,2.2 15.9,2.2 15.9,2.2 15.9,2.2 16,2.1 16,2.1 16,2 16,2 15.9,2.1 15.9,2.1 	"/>
	<path class="st0" d="M4.6,1.7l0.1,0.1c0.1-0.1,0.2-0.1,0.2-0.1C4.7,1.7,4.5,1.6,4.6,1.7z"/>
	<path class="st0" d="M5.6,16.6l0.2-0.1C5.7,16.4,5.7,16.5,5.6,16.6z"/>
	<polygon class="st0" points="4.1,4.5 4.1,4.5 4.1,4.5 	"/>
	<path class="st0" d="M5.6,16.6L5.6,16.6C5.6,16.6,5.6,16.6,5.6,16.6L5.6,16.6z"/>
	<path class="st0" d="M15.2,1.7C15.2,1.6,15.2,1.5,15.2,1.7l-0.1-0.2C15.2,1.5,15.2,1.6,15.2,1.7z"/>
	<polygon class="st0" points="19.8,10.6 19.9,10.4 19.8,10.6 	"/>
	<path class="st0" d="M2.6,12.3l0.1-0.2l-0.1,0C2.6,12.2,2.6,12.3,2.6,12.3z"/>
	<polygon class="st0" points="3.5,14.2 3.4,14.2 3.4,14.3 3.3,14.3 3.3,14.3 3.3,14.4 3.3,14.4 3.3,14.4 3.5,14.3 3.4,14.3 	"/>
	<path class="st0" d="M2.8,7.3C2.8,7.3,2.8,7.3,2.8,7.3c0,0,0.1-0.1,0.1-0.1C2.7,7.2,2.8,7,2.8,7.3z"/>
	<path class="st0" d="M2.8,7.3C2.8,7.4,2.9,7.2,2.8,7.3L2.8,7.3z"/>
	<path class="st0" d="M2.9,6.7l0,0.2c0.1,0,0.1-0.1,0.2-0.1C3.1,6.7,3.1,6.7,2.9,6.7z"/>
	<path class="st0" d="M2.8,6.7c-0.1,0,0,0,0,0.1L2.8,6.7C2.8,6.6,2.7,6.6,2.8,6.7z"/>
	<path class="st0" d="M2.8,6.9C2.7,6.9,2.6,7,2.6,6.9C2.5,7.2,2.7,7.2,2.8,6.9z"/>
	<path class="st0" d="M3.3,6C3.4,6,3.4,5.9,3.5,6c0,0-0.1,0-0.2-0.1L3.3,6z"/>
	<path class="st0" d="M3.3,5.9l0-0.2C3.2,5.8,3.2,5.9,3.3,5.9z"/>
	<polygon class="st0" points="3.9,5.4 3.9,5.6 3.9,5.3 	"/>
	<path class="st0" d="M4.1,5.1c0,0.1,0.2,0,0.2,0.1C4.4,5.1,4.4,5,4.4,4.9C4.4,5,4.3,5,4.1,5.1z"/>
	<path class="st0" d="M3.7,5.4l-0.2,0c0,0,0,0,0,0.1C3.5,5.5,3.6,5.5,3.7,5.4z"/>
	<polygon class="st0" points="4.9,3.9 4.9,3.9 4.9,3.9 	"/>
	<path class="st0" d="M4.4,4.5c0.1,0,0.2,0,0.2,0C4.5,4.4,4.4,4.4,4.4,4.5z"/>
	<path class="st0" d="M3.9,5.1C3.9,5.1,3.9,5.1,3.9,5.1C3.9,5.1,3.9,5.1,3.9,5.1z"/>
	<path class="st0" d="M3.9,5.1c0,0,0-0.1,0-0.1C3.8,5,3.8,5,3.9,5.1C3.8,5.1,3.8,5.1,3.9,5.1z"/>
	<path class="st0" d="M4.9,4.1c0-0.1,0-0.2,0-0.2L4.6,4.1l0,0l0,0.1C4.7,4.1,4.7,4.1,4.9,4.1z"/>
	<path class="st0" d="M5.1,3.8L5,3.9l0.1,0.2C5.1,4,5.1,3.9,5.1,3.8z"/>
	<polygon class="st0" points="5.4,3.6 5.3,3.7 5.4,3.8 	"/>
	<path class="st0" d="M14.4,3.5l0.1-0.2c-0.1,0-0.1-0.1-0.2-0.1C14.3,3.4,14.3,3.7,14.4,3.5z"/>
	<path class="st0" d="M15.7,18.3l0,0.2C15.8,18.4,15.7,18.3,15.7,18.3z"/>
	<path class="st0" d="M8.9,2.1c0.1,0,0.2,0.1,0.3,0.1C9.1,2.1,8.9,2,8.9,2.1z"/>
	<path class="st0" d="M9.5,2.1C9.5,2.1,9.5,2.1,9.5,2.1c-0.1,0-0.2,0-0.3,0C9.3,2.2,9.4,2.2,9.5,2.1z"/>
	<path class="st0" d="M18.6,14.7C18.6,14.7,18.6,14.8,18.6,14.7C18.6,14.8,18.6,14.7,18.6,14.7z"/>
	<path class="st0" d="M15.7,18.2L15.7,18.2C15.7,18.3,15.7,18.3,15.7,18.2L15.7,18.2z"/>
	<path class="st0" d="M6,3.4l0.1-0.1C6,3.3,6,3.3,6,3.4C6,3.3,6,3.3,6,3.4z"/>
	<path class="st0" d="M2,10.5L2,10.5c0,0.1-0.1,0.1,0,0.1C2.1,10.6,2.1,10.6,2,10.5L2,10.5l0.1-0.1L2,10.5c0.1-0.1,0.1-0.1,0.1-0.1
		C2.1,10.4,2.1,10.4,2,10.5L2,10.5z"/>
	<path class="st0" d="M19.7,13l0.2-0.1l0,0C19.7,12.9,19.7,12.9,19.7,13z"/>
	<polygon class="st0" points="18.5,15.4 18.5,15.4 18.3,15.3 	"/>
	<path class="st0" d="M17.2,17.4c0.1-0.1,0.1-0.2,0.2-0.2C17.3,17.4,17,17.3,17.2,17.4z"/>
	<path class="st0" d="M7.3,0.5C7.3,0.5,7.2,0.5,7.3,0.5c-0.1,0-0.1,0-0.2,0C7.2,0.6,7,0.6,7.3,0.5z"/>
	<path class="st0" d="M7.2,0.5C7.4,0.4,7.1,0.4,7.2,0.5L7.2,0.5z"/>
	<path class="st0" d="M6.7,0.6c-0.1,0-0.2,0-0.2-0.1c-0.2,0.1-0.1,0.2,0,0.2L6.7,0.6z"/>
	<path class="st0" d="M6.7,0.9C6.7,0.9,6.7,0.9,6.7,0.9L6.7,0.9C6.6,1,6.6,1,6.7,0.9z"/>
	<path class="st0" d="M7,0.9c0.3-0.1,0.2-0.3-0.1-0.2C7,0.8,7.1,0.8,7,0.9z"/>
	<path class="st0" d="M5.6,1.3l0.1-0.1c-0.1,0-0.2,0-0.3,0C5.4,1.2,5.5,1.2,5.6,1.3z"/>
	<path class="st0" d="M5.6,1.3L5.4,1.5C5.6,1.4,5.6,1.3,5.6,1.3z"/>
	<polygon class="st0" points="4.7,1.4 4.6,1.7 4.7,1.6 	"/>
	<path class="st0" d="M4.1,1.7C4,1.8,3.9,2,3.9,2.1C3.9,2,4,1.9,4.2,1.9C4.2,1.7,4,1.8,4.1,1.7z"/>
	<path class="st0" d="M4.9,1.6L5,1.7c0,0,0,0,0.1,0C5.1,1.6,5,1.6,4.9,1.6z"/>
	<polygon class="st0" points="3.1,3.3 3.1,3.3 3.1,3.2 	"/>
	<path class="st0" d="M3.6,2.6c0.1,0,0.1,0,0.2,0C3.7,2.5,3.6,2.5,3.6,2.6z"/>
	<path class="st0" d="M4.5,1.9L4.5,1.9C4.5,1.9,4.5,1.9,4.5,1.9z"/>
	<path class="st0" d="M4.5,1.9c0,0,0,0.1-0.1,0.1C4.5,2,4.6,2,4.5,1.9C4.6,2,4.5,1.9,4.5,1.9z"/>
	<path class="st0" d="M3.4,3L3.4,3c0,0-0.1,0-0.3,0c-0.1,0.2,0,0.2,0,0.3L3.4,3L3.4,3z"/>
	<path class="st0" d="M3,3.2L2.9,3.1c0,0.1,0,0.2,0,0.3L3,3.2z"/>
	<polygon class="st0" points="2.6,3.5 2.6,3.6 2.7,3.6 	"/>
	<path class="st0" d="M1.4,15l0.1-0.1c-0.1-0.1-0.1-0.2-0.1-0.2C1.3,14.8,1.2,15,1.4,15z"/>
	<path class="st0" d="M16.2,15l-0.1-0.2C16.1,15,16.2,15,16.2,15z"/>
	<path class="st0" d="M0.6,7.9C0.5,8.1,0.4,8.2,0.4,8.3C0.5,8.1,0.7,8,0.6,7.9z"/>
	<path class="st0" d="M0.4,8.3C0.3,8.4,0.3,8.5,0.4,8.6c0,0,0,0,0-0.1C0.4,8.5,0.4,8.4,0.4,8.3z"/>
	<path class="st0" d="M16.2,15.1L16.2,15.1C16.2,15,16.2,15,16.2,15.1L16.2,15.1z"/>
	<path class="st0" d="M2.1,4.3C2.1,4.3,2,4.3,2.1,4.3L1.9,4.4C2,4.3,2.1,4.3,2.1,4.3z"/>
	<path class="st0" d="M11.3,0.4L11.3,0.4c0.1,0,0.1,0.1,0.2,0c-0.1-0.1-0.2-0.1-0.2-0.1l-0.1,0l0,0c0,0,0,0-0.1,0
		C11.2,0.3,11.2,0.3,11.3,0.4L11.3,0.4z"/>
	<path class="st0" d="M11.6,17.6L11.6,17.6c0,0.1,0.1,0.1,0.2,0.1L11.6,17.6z"/>
	<polygon class="st0" points="13.7,17 13.7,17 13.8,17.2 	"/>
	<path class="st0" d="M15.1,15.8c-0.1,0-0.1,0.1-0.2,0.2C15,15.8,15.2,15.9,15.1,15.8z"/>
	<path class="st0" d="M6.7,17.2C6.8,17.2,6.7,17,6.7,17.2L6.7,17.2z"/>
	<path class="st0" d="M5.5,16.3c0,0,0,0.1-0.1,0.2l0.1,0C5.5,16.5,5.4,16.4,5.5,16.3z"/>
	<polygon class="st0" points="5,15.9 5.1,15.9 4.9,15.9 	"/>
	<path class="st0" d="M4.8,15.4c0,0-0.1,0-0.1-0.1c0,0,0,0,0,0c0,0,0,0,0,0c-0.1,0-0.1,0-0.2,0c0.1,0,0.2,0.1,0.2,0.3
		c0,0,0.1,0,0.1-0.1C4.7,15.6,4.8,15.5,4.8,15.4C4.8,15.5,4.8,15.5,4.8,15.4C4.8,15.4,4.8,15.4,4.8,15.4z"/>
	<path class="st0" d="M4.6,15.9C4.6,15.9,4.6,15.9,4.6,15.9C4.6,15.9,4.6,15.9,4.6,15.9z"/>
	<path class="st0" d="M4.6,15.9c0,0-0.1,0-0.1,0C4.5,15.9,4.6,15.9,4.6,15.9C4.6,15.9,4.6,15.9,4.6,15.9z"/>
	<path class="st0" d="M3.9,5.2L3.8,5.2c0,0.1-0.1,0.1-0.1,0.2C3.8,5.3,4,5.3,3.9,5.2z"/>
	<path class="st0" d="M18.6,5.1l0.2,0C18.7,4.9,18.7,5.1,18.6,5.1z"/>
	<polygon class="st0" points="4.1,2.5 4.1,2.5 4.1,2.5 	"/>
	<path class="st0" d="M19.9,10.6c0,0.2,0,0.3-0.1,0.3l-0.2-0.2c0,0,0.1,0,0.1,0c0,0,0-0.1-0.1-0.1c0,0,0-0.1,0-0.1
		c0.1-0.1,0.2-0.2,0.3-0.3c0,0,0,0,0,0c0,0,0,0,0,0c0-0.1,0-0.1,0-0.2c0,0.1,0,0.1-0.1,0.2c-0.1,0-0.1,0-0.1,0c0,0,0,0,0,0
		c0,0,0,0-0.1,0c0-0.1,0.1-0.3,0.2-0.4c-0.1-0.4-0.1-0.1-0.2-0.1c0,0,0-0.1,0-0.1c0.1-0.1,0-0.2-0.1-0.3c0,0,0,0,0-0.1
		c0.1,0,0.2,0.3,0.2,0.2l0-0.2l0,0c0,0-0.1-0.1-0.1-0.1l0.1,0c0-0.3-0.1-0.3-0.2-0.3c0-0.1,0.1-0.1,0.1-0.1l0.1,0l0-0.1
		c0,0,0,0,0-0.1l0-0.1l0.2,0c-0.2-0.3-0.2-0.3-0.2-0.6c0,0-0.1,0-0.2,0l0-0.3c0,0-0.1-0.1-0.1-0.1c0,0,0-0.1,0-0.1
		c0.1,0,0.3,0.1,0.2,0.3c0.1,0,0.1,0,0.2,0c0.1-0.2-0.1-0.5-0.1-0.6c0,0,0,0.1,0,0.1c-0.1-0.1-0.2-0.2-0.3-0.3c0,0,0,0,0,0l-0.1-0.1
		c0,0,0.1,0,0.2,0c-0.1-0.1-0.2-0.1-0.2-0.3c0.1,0,0.3-0.1,0.4,0.1l-0.1-0.1c0,0,0,0,0,0c0,0,0-0.1,0-0.1c-0.1,0.1-0.1-0.1,0,0.2
		l-0.3-0.3c0,0,0-0.2,0.1-0.2l0,0c0-0.1,0-0.2,0-0.2c-0.1-0.1-0.1-0.1-0.1-0.1c-0.2-0.2-0.5-0.4-0.5-0.6c0,0-0.1,0-0.1-0.1
		c0,0,0-0.1,0-0.1c0,0,0,0,0,0l0,0c-0.1-0.2-0.1-0.4-0.3-0.6c0,0,0,0,0-0.1l0,0.1c0,0-0.1-0.1-0.2-0.1L18,3.8
		c-0.2-0.2-0.1,0.4-0.5,0.1c-0.1-0.1-0.1-0.1-0.1-0.1c0,0.1,0.1,0.1,0.2,0.1c0,0-0.1-0.1-0.1-0.1c0-0.1,0.2-0.1,0.1-0.2
		c-0.1,0-0.2-0.1-0.4-0.1c0,0,0,0-0.1-0.1c0,0,0,0,0,0c-0.1,0-0.1-0.1-0.2-0.1c0,0,0,0,0-0.1c0.1,0,0.1,0.1,0.2,0.1
		c0-0.1,0-0.1-0.1-0.2l0-0.1c0,0,0-0.1,0-0.1l0,0c0.4,0.1,0.5,0.3,0.5,0c-0.3,0.3-0.7-0.5-1-0.4c0,0-0.1,0-0.1,0l0-0.1l0,0l0,0
		c0,0,0,0,0,0c0,0,0,0,0,0l0.1-0.1c0,0-0.1,0-0.1,0c-0.1-0.2-0.3,0-0.5,0c-0.1-0.1-0.2-0.2-0.2-0.2c0,0,0-0.1,0-0.1
		c0,0,0.1,0,0.1,0.1c0-0.3-0.1,0-0.1-0.3c0,0.1-0.1,0.1-0.2,0.1c0,0,0-0.1,0-0.1c-0.2-0.2-0.2,0-0.2,0c0,0-0.1,0-0.1,0c0,0,0,0,0,0
		c0,0,0,0,0,0c0,0,0,0,0,0c0,0,0,0,0,0c0,0,0,0,0-0.1c0,0,0,0,0,0l0,0c-0.1-0.1-0.2-0.2-0.3-0.4c0,0,0,0,0,0.1l-0.3-0.2
		c-0.1-0.3-0.3-0.3-0.5-0.5c0,0.1,0.1,0.3,0.2,0.4C14,1,13.8,1,13.9,1.1c0,0,0,0-0.1,0c-0.1,0-0.1,0-0.2,0c0,0,0,0,0,0
		c0,0,0,0,0-0.1c0,0,0.1,0,0.2,0l-0.3-0.1c0,0-0.1-0.1-0.1-0.1l0-0.1c-0.1,0-0.1,0-0.1,0c-0.1,0-0.2-0.1-0.3-0.1c0,0-0.1,0-0.2,0
		c0-0.1,0-0.1,0-0.2c-0.3-0.1-0.1,0.1-0.1,0.2l-0.3,0c0,0,0,0,0,0l0,0c0,0,0,0-0.1,0l0,0c-0.2-0.1-0.5,0-0.7,0c0,0,0.1-0.1,0-0.1
		l-0.1,0.1c0,0-0.1,0-0.1,0c0,0,0,0,0,0c0,0,0,0,0,0c-0.2,0-0.4-0.1-0.5-0.2c0,0,0,0,0,0c0,0,0,0,0,0c0,0,0,0,0,0c0.1,0,0.2,0,0.3,0
		c-0.1-0.1-0.2-0.1-0.3-0.1c0,0,0,0,0-0.1c-0.1,0-0.1,0.1-0.1,0.1c-0.1,0-0.3,0.1-0.5,0l0-0.1c-0.2,0-0.6-0.1-0.7,0
		c-0.2-0.4-1,0-1.3,0l0,0.2c-0.2,0-0.5,0.2-0.7,0.3l0,0.1L7.4,0.9c-0.1,0-0.2,0.1-0.3,0.1c-0.1,0-0.1,0-0.2,0c0,0,0,0,0,0
		c0,0,0,0-0.1,0l0,0l0,0C6.7,1,6.6,1,6.5,1C6.5,1,6.6,1,6.7,1c0,0-0.1,0-0.1,0l0,0c0,0,0,0-0.1,0c-0.4,0-0.7,0.5-1,0.6c0,0,0,0,0,0
		c0,0,0,0,0,0c0,0-0.1,0-0.1,0C5.3,1.7,5.2,1.7,5.1,1.7c0,0,0,0,0,0c0,0,0,0,0,0c0,0-0.1,0-0.1,0c0,0,0,0,0.1,0l0,0c0,0-0.1,0-0.1,0
		c0,0,0,0,0,0c0,0,0,0,0,0c0,0-0.1,0-0.1,0c0,0,0,0,0.1,0c0.1,0,0.1,0,0.1,0C5,1.8,4.9,1.9,4.8,2L4.7,1.8c0,0,0,0,0,0
		c-0.1,0,0,0.1,0.1,0.2c0,0.1-0.1,0.1-0.1,0.2c0,0-0.1,0-0.1,0c0,0,0,0,0,0c0,0,0,0,0,0c-0.1,0-0.1,0.1-0.2,0.2l0-0.1c0,0,0,0,0,0
		c0.1,0,0.1-0.1,0.1-0.2c0,0.1-0.1,0.1-0.2,0.2l0,0c0,0,0,0,0,0c0-0.1,0-0.1-0.1-0.1c0,0.1-0.1,0.2-0.2,0.3c0.1-0.1,0.2-0.1,0.3-0.2
		c0,0.1,0,0.1,0,0.1c0,0-0.1,0-0.1,0c0,0,0,0.1-0.1,0.2c0,0,0,0,0,0l0,0c0,0,0,0,0,0c0,0,0,0,0,0C4,2.6,4,2.6,3.9,2.6c0,0,0,0-0.1,0
		C3.9,2.6,3.9,2.5,4,2.5c-0.1,0-0.1,0.1-0.2,0.1l0,0l0,0l0,0c0,0,0,0,0,0l0,0c0,0,0,0,0,0.1c-0.1,0.1,0,0,0-0.1l0,0l0,0
		C3.7,2.7,3.6,2.8,3.5,2.9c0.1,0,0.2-0.1,0.3-0.3c0,0,0,0.1,0,0.1c0,0,0,0.1-0.1,0.1c0,0,0,0,0.1,0c0,0.1,0,0.1,0.1,0.2
		c0,0,0,0,0,0.1c0,0,0,0,0,0c0,0,0,0,0,0c0,0,0,0,0,0c-0.1,0-0.1,0-0.4,0.1c0.1,0,0.1,0.1,0.2,0.2L3.4,3.2c0,0.1,0,0.1,0,0.2
		c0,0,0,0,0,0c0-0.1-0.1-0.1-0.1-0.1c0,0,0,0.1,0,0.1c-0.1,0-0.1-0.1-0.2-0.1c0,0,0.1,0.1,0,0.2c0,0,0-0.1,0-0.1c0,0.1,0,0.1,0,0.2
		c0,0-0.1,0-0.1,0c0.1,0-0.2,0.3-0.3,0.4l0.2-0.1C2.7,4,2.7,4.1,2.7,4.2c-0.1,0-0.1,0.1-0.1,0.2c0,0,0.1,0,0.1,0c0,0,0,0.1-0.1,0.1
		c-0.1,0-0.1,0.1-0.2,0.1c0-0.2,0-0.6,0.2-0.7c-0.3,0,0,0.1-0.4,0.1c0.1,0,0.1,0.1,0.1,0.2c0,0,0,0-0.1,0c-0.2,0.1-0.1,0.2,0,0.2
		c0,0,0,0.1-0.1,0.1c0,0,0,0,0,0c0,0,0,0,0,0c0,0,0,0,0.1,0C1.9,4.5,2,4.7,1.6,4.8c0,0,0,0,0.1,0L1.3,5.3c0,0,0,0,0.1,0.1
		c-0.1-0.1,0,0.4,0,0.2c0,0.1,0,0.2,0,0.3c-0.1,0-0.2,0.1-0.2-0.1L1.2,5.9C1,6.1,0.9,6.3,0.9,6.4c-0.1,0.1,0.1,0.4,0,0.2l0,0.3
		c0,0,0,0,0,0l0,0.1l0,0c0,0.1,0,0.1,0,0.2c0,0,0,0-0.1,0c0,0,0.1,0.1,0,0.2c-0.1,0-0.1-0.1-0.1-0.2c0,0.2,0,0.3,0.1,0.4
		c0,0.3-0.1,0.5-0.3,0.8c0,0.2,0,0.3,0,0.6l-0.1,0c0,0.2-0.2,0.6,0,0.7c-0.4,0.2-0.1,1-0.1,1.3l0.2,0c0,0.2,0.1,0.5,0.2,0.7l0.2,0
		c0.1,0.1,0.1,0.3,0.1,0.5c-0.1,0.1-0.1,0.2-0.1,0.2c0,0-0.1,0-0.1-0.1c-0.1,0.4,0.1,0.2,0.2,0.2c0,0.1,0,0.1,0,0.2c0,0,0,0,0,0
		c0,0,0-0.1,0-0.1c0,0,0,0.1,0,0.1c-0.1,0-0.1,0.1-0.1,0.2c0,0.1,0.2,0.3,0.4,0.5c0,0,0,0,0,0c0.1,0.1,0.2,0.3,0.1,0.4
		c0,0,0-0.1,0-0.1c0,0,0,0.1,0,0.1l0,0c0,0,0,0.1,0,0.1c0.1,0.1,0.1,0.2,0.1,0.2c0,0,0,0,0,0c0,0,0,0,0,0c0,0.1,0,0.1,0,0.2
		c0-0.1,0-0.1,0-0.2c0,0.1,0.1,0.2,0.2,0.3l-0.1,0.1c0,0,0,0,0,0c0,0.1,0.1,0.1,0.2-0.1c0,0,0,0,0,0c0,0,0,0,0,0c0,0,0,0,0,0
		c0,0,0,0,0,0c0,0,0,0,0,0c0,0,0.1,0.1,0.1,0.1c0,0,0,0.1,0,0.1c0,0,0,0,0,0c0,0.1,0,0.1,0,0.2c0.1,0.2,0.1,0,0.2,0c0,0,0,0.1,0,0.2
		c0.1,0,0.1,0.1,0.2,0.1c0,0.1,0,0.1-0.1,0.2c0,0-0.1-0.1-0.1-0.1c0,0.3,0.4,0.5,0.4,0.6l-0.1-0.2c0.5,0.5,1,1.2,1.6,1.5
		c0.1,0.1,0.2,0.2,0.4,0.2c0.1,0.1,0.1,0.1,0.2,0.2c0,0,0.1,0,0.1,0.1c0,0,0.1,0.1,0.1,0.1l0,0c0,0,0,0,0,0c0,0,0,0,0.1,0.1
		c0.1,0.1,0.2,0.2,0.3,0.3c0,0,0,0.1-0.1,0.1c0.1,0,0.2,0,0.2,0.1c0.1,0.1,0.2,0.1,0.3,0.2c0,0,0.1,0.1,0.1,0.1c0,0,0,0,0-0.1
		c0,0,0,0,0.1,0c0,0,0,0-0.1,0c0.2,0,0.3,0.1,0.4,0.2c0,0,0,0.1-0.1,0.1c0.3,0.1,0.4,0.3,0.6,0.3c0,0,0.1,0.1,0.1,0.1c0,0,0,0,0,0.1
		c0,0,0.1,0,0.2,0c0,0.1-0.1,0.1-0.2,0.1c0.3,0.1,0.5-0.1,0.6-0.3c0.1,0,0.1,0,0.2,0c0,0,0,0,0,0c0.1,0.1,0.2,0.3,0.4,0.3
		c0,0-0.1,0-0.1,0c0.2,0.1,0.4,0,0.5,0.2c0.1-0.2,0.2,0,0.3-0.1c0.2,0,0.4,0.1,0.5,0.1c-0.1,0.1-0.5-0.1-0.8,0.1
		c0.1,0.1,0.5-0.1,0.4,0.2c0.2-0.3,0.5,0.1,0.8-0.2c0,0,0,0,0,0l0,0.2c0.1,0,0.2-0.1,0.3-0.1l-0.2,0.2c0.3-0.2,0.5,0.2,0.8,0.1
		c-0.5,0-0.2-0.2-0.3-0.3c0.1,0,0.3,0,0.4,0c0.1,0.1,0.2,0.3,0.6,0.3c-0.1,0-0.4-0.1-0.2-0.2c0.1,0,0.3,0.1,0.4,0.1
		c0.5-0.1-0.1-0.2,0.1-0.3c0.1,0.1,0.2,0,0.3-0.1c0,0,0,0,0,0c-0.1,0.1-0.2,0.1-0.1,0.1l0.2,0l0,0c0,0,0,0,0,0c0,0,0.1,0.1,0.1,0.1
		c0,0-0.1,0.1-0.1,0.1c0.4,0.1,0.2-0.1,0.2-0.2c0.1,0,0.1-0.1,0.1-0.1c0,0.1,0,0.3,0.2,0.2c0.1,0,0.3-0.2,0.5-0.3c0.1,0,0.2,0,0.3,0
		c0,0,0-0.1,0-0.1c0.1,0,0.1,0,0.2,0c0,0,0,0-0.1,0c0,0,0.1,0,0.1,0c0,0.1,0,0.1,0,0.2c0.2,0,0.4-0.1,0.6-0.2c0,0-0.1,0-0.1,0
		c0.1-0.1,0.2-0.2,0.3-0.3c0,0,0.1-0.1,0.1-0.1c0,0,0,0,0,0c0,0,0,0,0,0.1c0,0,0,0.1,0,0.1c0,0,0,0,0,0c0,0,0,0,0,0.1
		c0.1-0.1,0.1-0.2,0.2-0.2c0,0.1,0.1,0.3-0.1,0.4l0.4-0.4c0.1,0,0.3,0,0.3,0.1c0.3-0.1,0.4-0.6,0.8-0.7c0,0,0-0.1,0.1-0.1
		c0.3-0.2,0.6-0.2,0.8-0.6l0.3,0c0.2-0.3-0.4,0-0.1-0.4c0.2-0.3,0.3,0.1,0.4,0c0-0.2,0.1-0.6,0.4-0.7c0,0.1-0.1,0.2-0.2,0.2l0.3-0.1
		c0,0.4-0.3,0.5,0.1,0.5c-0.3-0.3,0.6-0.8,0.2-1.2l0.2-0.1c0,0,0,0.1,0,0.1c0.4-0.1-0.1-0.4,0.1-0.6c0,0,0,0,0,0.1
		c0-0.1,0-0.1,0.1-0.2c0.1-0.1,0.2-0.1,0.2,0l0.1-0.3c0,0,0,0,0,0c0,0,0.1,0,0.1,0c0-0.1,0.1-0.1,0.1-0.2c0,0,0.1-0.1,0.1-0.1
		c0,0,0,0,0,0c0,0,0,0,0,0l0,0c0.1-0.1,0.1-0.2,0.1-0.3c0.4-0.1-0.1-0.3,0.3-0.7l0,0.3c0.3-0.1,0.3-0.3,0.6-0.5
		c-0.1,0-0.6,0.4-0.6,0.1c0.1-0.1,0.1-0.2,0.1-0.3c0.2,0.1,0.2-0.1,0.2-0.3l0.2,0.1c0-0.2-0.1-0.2-0.2-0.4c0-0.1,0.1-0.1,0.1-0.1
		c0,0,0,0,0,0c0,0,0,0,0,0c0.1-0.1,0.2-0.1,0.3-0.1c0.1-0.4-0.3,0.2-0.3-0.2c0.1-0.2,0.1-0.4,0.1-0.6l0.1,0.1
		C19.6,11,20,10.8,19.9,10.6z M19.9,10C19.9,10,19.9,10,19.9,10C19.9,10,19.9,10,19.9,10z M19.7,10.8c0,0-0.1,0-0.1,0
		C19.7,10.8,19.7,10.8,19.7,10.8z M6.5,1.4c0,0-0.1,0.1-0.1,0.1c0,0,0,0,0,0C6.4,1.4,6.5,1.4,6.5,1.4C6.5,1.3,6.5,1.4,6.5,1.4z
		 M14.4,1.3C14.4,1.3,14.4,1.3,14.4,1.3C14.4,1.3,14.4,1.3,14.4,1.3C14.4,1.3,14.4,1.3,14.4,1.3z M8.2,18.1
		C8.1,18.1,8.1,18.1,8.2,18.1L8.2,18.1L8.2,18.1z M9,18.1C9,18.1,9,18.1,9,18.1C9,18.1,9,18.1,9,18.1z M17.6,13.4
		C17.6,13.5,17.6,13.5,17.6,13.4c-0.1,0.1-0.1,0.1-0.1,0.1c0,0,0,0-0.1,0c0,0,0,0,0,0c0,0,0,0,0,0c-0.1-0.1-0.2-0.2,0-0.3
		c0,0,0,0,0,0L17.6,13.4z M6.8,2.8C6.8,2.8,6.8,2.8,6.8,2.8C6.9,2.8,6.9,2.8,6.8,2.8z M6.6,2.8c0-0.1,0-0.2,0-0.3c0,0,0,0,0,0
		c0.1,0,0.1,0,0.2-0.1c0,0,0,0.1,0,0.1c0,0,0-0.1,0.1-0.1c0,0,0.1,0,0.1,0c0,0,0,0,0,0C6.8,2.5,6.7,2.7,6.6,2.8z M6.5,2.8
		C6.5,2.8,6.5,2.9,6.5,2.8C6.5,2.9,6.4,2.9,6.5,2.8C6.4,2.8,6.4,2.8,6.5,2.8z M6.5,3C6.4,3,6.4,3,6.5,3C6.4,3,6.4,3,6.5,3z M7.4,2.4
		C7.6,2.4,7.5,2.4,7.4,2.4L7.4,2.4z M7.7,2.1C7.7,2.1,7.7,2.1,7.7,2.1C7.7,2.1,7.7,2.1,7.7,2.1C7.7,2.1,7.7,2.1,7.7,2.1z M17.7,13.4
		C17.7,13.5,17.7,13.5,17.7,13.4C17.6,13.5,17.6,13.5,17.7,13.4C17.6,13.5,17.7,13.5,17.7,13.4z M17.9,12.1L17.9,12.1
		C17.9,12.1,17.9,12.1,17.9,12.1C17.9,12.1,17.9,12.1,17.9,12.1z M12.2,17.9c0.1-0.1,0.1-0.2,0.2-0.1C12.3,18,12.3,18,12.2,17.9z
		 M10.1,18.3c0,0,0-0.1,0-0.1C10.1,18.2,10.1,18.2,10.1,18.3z M14.3,1.2C14.3,1.2,14.3,1.2,14.3,1.2C14.3,1.2,14.3,1.2,14.3,1.2
		C14.3,1.2,14.3,1.2,14.3,1.2z M14.2,1.2C14.2,1.2,14.2,1.2,14.2,1.2c-0.1,0.2-0.2,0.1-0.2,0C14.1,1.2,14.1,1.2,14.2,1.2z M5.1,3.6
		C5,3.6,5.3,3.5,5.4,3.4l-0.2,0c0.1-0.1,0.1-0.1,0.2-0.2c0,0,0.1-0.1,0.2-0.2c0,0,0,0-0.1,0c0,0,0.1,0,0.1,0c0.1,0,0.1,0,0.2,0
		C5.7,3.1,5.6,3.4,5.4,3.4c0.2,0.1,0-0.1,0.3,0.1c-0.1-0.1-0.1-0.1,0-0.2c0,0,0,0,0.1,0.1c0.2,0,0.1-0.1,0.1-0.2c0,0,0.1,0,0.1-0.1
		c0,0,0,0,0,0c0,0,0,0,0,0c0,0,0-0.1-0.1-0.1C6.1,3.2,6.1,3,6.4,3.1c0,0,0,0,0-0.1l0.5-0.1c0,0,0-0.1,0-0.1c0,0.2,0.2-0.3,0.1-0.2
		C7,2.6,7,2.5,7,2.4c0.1,0.1,0.2,0.1,0,0.2l0.2-0.1c0.2,0,0.4,0,0.4-0.1c0.1,0,0.2-0.2,0.2-0.1l0.2-0.1c0,0,0,0,0,0l0.1,0l0,0
		c0.1,0,0.1,0,0.2,0c0,0,0,0,0,0c0,0,0.1-0.1,0.1-0.1c0,0.1,0,0.1-0.1,0.1c0.2,0,0.2-0.1,0.3-0.3C9,2,9.2,1.9,9.5,2.1
		C9.6,2,9.7,2,9.9,2l0,0.1c0.2-0.1,0.5,0.2,0.6,0c0.1,0.4,0.8,0.2,1,0.3l0-0.2c0.2,0,0.4,0.1,0.6,0l0-0.2c0.1,0,0.2,0,0.4,0.1
		c0,0.1,0.1,0.2,0.1,0.2c0,0-0.1,0-0.1,0c0.2,0.2,0.2,0,0.3-0.1c0,0,0.1,0,0.1,0.1c0,0,0,0,0,0c0,0-0.1,0-0.1-0.1c0,0,0,0.1,0.1,0.1
		c0,0.1,0,0.1,0.1,0.2c0,0.1,0.3,0,0.5,0c0,0,0,0,0,0c0.1,0,0.2,0.1,0.3,0.2c0,0,0,0,0-0.1c0,0,0.1,0,0.1,0.1l0,0
		C14,2.9,14,2.9,14,3c0.1,0,0.2,0,0.2,0.1c0,0,0,0,0,0c0,0,0,0,0,0c0,0,0,0.1,0.1,0.1c0-0.1,0-0.1,0-0.1c0.1,0,0.2,0.1,0.3,0.1
		l-0.1,0.2c0,0,0,0,0,0c0.1,0.1,0.1,0,0.1-0.2c0,0,0,0,0,0c0,0,0,0,0,0c0,0,0.1,0,0.1,0c0.1,0.1,0.1,0.2,0.1,0.3
		c0.1,0.1,0.1,0,0.1-0.1c0,0,0.1,0.1,0,0.2c0.1,0,0.1,0,0.2,0c0,0.1,0,0.1,0,0.2c0,0-0.1,0-0.1-0.1c0.1,0.2,0.4,0.3,0.4,0.4L15.4,4
		c0.5,0.3,0.9,0.9,1.4,1.3c0.1,0.1,0.1,0.2,0.3,0.3c0,0,0,0.1,0.1,0.1c0,0,0,0.1,0.1,0.1c0,0,0,0.1,0.1,0.1l0,0c0,0,0,0,0,0
		c0,0,0,0.1,0.1,0.1c0,0.1,0,0.2,0.1,0.3c0,0,0,0.1-0.1,0c0.1,0.1,0.1,0.1,0.1,0.1c0,0.1,0.1,0.2,0.1,0.2c0,0,0,0.1,0,0.1
		c0,0,0,0,0,0c0,0,0,0,0,0.1c0,0-0.1,0-0.1,0c0.1,0.1,0.1,0.2,0.2,0.4c0,0-0.1,0-0.1,0c0.1,0.2,0.1,0.4,0.2,0.5c0,0.1,0,0.1,0,0.2
		c0,0,0,0-0.1,0c0,0,0.1,0.1,0.1,0.1c0,0-0.1,0-0.1-0.1c0.1,0.3,0.3,0.3,0.5,0.3c0,0,0.1,0.1,0.1,0.1c0,0,0,0,0,0
		c-0.1,0.1-0.2,0.3-0.1,0.5c0,0,0,0,0-0.1c-0.1,0.2,0.2,0.3,0,0.5c0.2,0.1,0.1,0.2,0.2,0.2c0,0.2,0,0.3,0,0.4
		c-0.1-0.1,0-0.4-0.2-0.6c-0.1,0.1,0.2,0.4-0.1,0.3c0.4,0.1,0,0.4,0.2,0.6c0,0,0,0,0,0l-0.2,0c0,0,0.1,0.1,0.1,0.2L18,10.3
		c0.2,0.2-0.2,0.4-0.1,0.6c0-0.4,0.2-0.2,0.3-0.2c0,0.1,0,0.2-0.1,0.4c-0.1,0.1-0.4,0.1-0.3,0.5c0-0.1,0.1-0.3,0.2-0.1
		c0,0.1-0.1,0.2-0.2,0.3c-0.1,0.4,0.2,0,0.2,0.2c-0.2,0.1-0.1,0.1,0,0.2c0,0,0,0,0,0c0-0.1-0.1-0.2-0.1-0.1l0,0.2c0,0,0,0-0.1,0
		c0,0,0-0.1,0-0.1c-0.2,0.2,0,0.2,0.1,0.3c0,0.1,0,0.1,0,0.1c-0.1,0-0.2-0.1-0.3,0c-0.1,0,0,0.3,0,0.5c0,0.1-0.1,0.1-0.1,0.2
		c0,0,0.1,0,0.1,0c0,0.1-0.1,0.1-0.1,0.1c0,0,0,0,0.1,0c0,0,0,0,0,0.1c0,0-0.1-0.1-0.1-0.1c-0.2,0.1-0.2,0.3-0.2,0.4
		c0,0,0-0.1,0.1-0.1c0,0.1,0,0.3,0,0.4c0,0,0,0,0,0c0,0,0,0,0,0c-0.1,0-0.1,0-0.1-0.1c0,0.1,0,0.2,0,0.3c-0.1-0.1-0.2-0.2-0.2-0.3
		l-0.1,0.4c-0.1,0-0.2,0.1-0.3,0c-0.2,0.1-0.1,0.6-0.3,0.8c0,0,0,0.1,0,0.1c-0.2,0.2-0.5,0.3-0.6,0.6l-0.3-0.1
		c-0.1,0.2,0.4,0.1,0.2,0.4c-0.2,0.3-0.2-0.1-0.3-0.1c0,0.2-0.1,0.6-0.4,0.6c0-0.1,0.1-0.1,0.2-0.2l-0.2,0c0.1-0.3,0.2-0.4,0-0.4
		c0.3,0.4-0.6,0.5-0.4,0.9l-0.2,0c0,0,0,0,0.1-0.1c-0.3-0.1,0,0.3-0.3,0.5c0,0,0,0,0-0.1c0,0-0.1,0.1-0.1,0.1c-0.1,0-0.2,0-0.1-0.1
		l-0.2,0.2c0,0,0,0,0,0c0,0-0.1-0.1,0-0.1c-0.1,0-0.1,0.1-0.2,0.1c0,0-0.1,0-0.1,0c0,0,0,0,0,0c0,0,0,0,0,0l0,0
		c-0.1,0-0.2,0-0.2,0.1c-0.3-0.2-0.1,0.2-0.6,0.1l0.2-0.1c-0.2-0.2-0.3-0.1-0.6-0.2c0.1,0.1,0.6,0.3,0.4,0.5c-0.1,0-0.2,0-0.3,0.1
		c0-0.2-0.2-0.1-0.3-0.1l0-0.2c-0.2,0.1-0.1,0.2-0.2,0.3c-0.1,0-0.1,0-0.1,0c0,0,0,0,0,0c0,0,0,0,0,0C11.1,18,11,17.9,11,17.8
		c-0.3,0,0.2,0.3-0.1,0.3c-0.2-0.1-0.3,0-0.5,0.1l0.1-0.1c-0.2,0.2-0.4-0.1-0.6-0.1c0.2,0,0.2,0,0.2,0.1l-0.2,0.2c0,0,0,0,0,0
		c0,0,0-0.1,0-0.1c0,0-0.1,0-0.1,0.1c0,0-0.1,0-0.1,0C9.7,18.1,9.6,18,9.5,18c0,0,0,0,0,0c0,0,0,0,0,0c-0.1,0-0.1,0-0.2,0
		c0,0,0.1,0,0.2,0.1c0,0.1,0,0.1,0,0.1c0,0,0,0,0,0c0,0,0,0,0,0c-0.1,0-0.3-0.1-0.3-0.2C8.8,17.9,9,18,9,18.1c0,0-0.1,0-0.1,0
		c-0.1-0.1-0.2,0-0.3,0.1c0-0.1,0.3-0.2,0.2-0.2l-0.2,0l0,0c0,0-0.1,0-0.1,0.1l0-0.1c-0.3-0.1-0.3,0-0.3,0.1
		c-0.1-0.1-0.1-0.1-0.1-0.2l0.1,0l-0.1,0c0,0,0,0-0.1,0l0,0l0.1-0.1c-0.3,0.1-0.3,0-0.5-0.1c0,0.1,0,0.1-0.1,0.2l-0.2-0.2
		c0,0-0.1,0-0.1,0c0,0,0,0-0.1,0c0.1-0.1,0.2-0.2,0.3,0c0,0,0.1-0.1,0.1-0.1c-0.1-0.2-0.3-0.2-0.4-0.2c0,0,0.1,0,0.1,0.1
		c-0.1,0-0.2,0-0.3,0c0,0,0,0,0,0H6.7c0-0.1,0-0.1,0.1-0.1c-0.1,0-0.2,0-0.3,0c0.1-0.1,0.1-0.2,0.3-0.2l-0.1,0c0,0,0,0,0,0
		c0,0-0.1,0-0.1-0.1c0,0.1-0.1,0,0.1,0.1l-0.3,0c0,0,0-0.1-0.1-0.2l0.1,0c0-0.1-0.1-0.1,0-0.2c-0.1,0-0.1,0-0.1,0
		c-0.2,0-0.5,0-0.6-0.2c0,0-0.1,0-0.1,0c0,0,0-0.1-0.1-0.1c0,0,0,0,0,0l0,0c-0.1-0.1-0.2-0.3-0.4-0.4c0,0,0,0,0-0.1l0,0.1
		c0,0-0.1,0-0.2-0.1l0-0.3c-0.2-0.1,0,0.4-0.4,0.2c-0.1,0-0.1-0.1-0.1-0.1c0,0.1,0.1,0.1,0.1,0.1c0,0-0.1-0.1-0.1-0.1
		c0-0.1,0.2-0.1,0.1-0.2c-0.1,0-0.2,0-0.3-0.1c0,0,0,0,0,0c0,0,0,0,0,0c-0.1,0-0.1-0.1-0.2-0.1c0,0,0,0,0,0c0.1,0,0.1,0.1,0.2,0.1
		c0,0,0-0.1-0.1-0.1c0,0,0,0,0,0l0-0.2c0.3,0,0.4,0.2,0.4-0.1c-0.4,0.3-0.5-0.4-0.8-0.3c0,0-0.1,0-0.1,0l0-0.1l0,0l0,0c0,0,0,0,0,0
		c0,0,0,0,0,0l0.1,0c0,0-0.1,0-0.1,0c0-0.2-0.2,0-0.4-0.1c0-0.1-0.1-0.2-0.1-0.2c0,0,0-0.1,0-0.1c0,0,0,0,0,0.1
		c0.1-0.2-0.1,0,0.1-0.3C3.1,14.1,3.1,14,3,14c0,0,0,0,0.1-0.1c0-0.2-0.1-0.1-0.2-0.1c0,0,0-0.1-0.1-0.1c0,0,0,0,0,0c0,0,0,0,0,0
		c0,0,0,0,0,0c0,0,0,0,0,0c0,0,0,0,0-0.1c0,0,0,0,0,0l0,0c0-0.1-0.1-0.2,0-0.4c0,0,0,0-0.1,0l-0.1-0.3c0.1-0.2,0-0.3,0.1-0.6
		c0,0-0.1,0.2-0.2,0.3c-0.1-0.1-0.3-0.1-0.2,0c0,0,0,0,0,0c0,0-0.1-0.1-0.1-0.1c0,0,0,0,0,0c0,0,0,0,0,0c0,0,0.1,0,0.1,0.1l-0.1-0.2
		c0,0,0-0.1,0-0.1l0.1,0c0,0-0.1-0.1-0.1-0.1c0-0.1,0-0.2-0.1-0.2c0,0,0-0.1-0.1-0.1c0.1,0,0.1-0.1,0.2-0.1c0-0.2-0.1,0-0.2,0
		l-0.1-0.2c0,0,0,0,0,0l0,0c0,0,0,0,0-0.1l0,0c0-0.2-0.1-0.4-0.2-0.6c0,0,0.1,0.1,0.1,0L2,10.6c0,0,0-0.1,0-0.1c0,0,0,0,0,0
		c0,0,0,0,0,0c0-0.1,0-0.3,0.1-0.4c0,0,0,0,0,0c0,0,0,0,0,0c0,0,0,0,0,0c0,0.1,0,0.2,0,0.3c0-0.1,0.1-0.2,0-0.3c0,0,0,0,0,0
		C2.2,10,2.1,10,2.1,10c0-0.1-0.1-0.2,0-0.4l0.1,0c0-0.2,0.2-0.5,0.1-0.6c0.4-0.1,0.2-0.7,0.3-1L2.4,7.9c0.1-0.2,0.1-0.4,0.1-0.6
		l-0.1,0l0-0.2C2.4,7,2.5,7,2.5,6.9c0,0,0.1-0.1,0.1-0.1c0,0,0,0,0,0c0.1-0.1,0.1-0.2,0.2-0.3c0,0,0,0.1-0.1,0.2c0,0,0.1,0,0.1-0.1
		l0,0c0,0,0,0,0-0.1C3.1,6.3,3,5.8,3.2,5.6c0,0,0,0,0,0c0,0,0,0,0-0.1c0,0,0,0,0.1,0c0-0.1,0.1-0.2,0.1-0.2c0,0,0,0,0,0c0,0,0,0,0,0
		c0,0,0.1,0,0.1,0c0,0,0,0-0.1,0.1l0,0c0,0,0,0,0.1-0.1c0,0,0,0,0,0c0,0,0,0,0,0c0,0,0,0,0-0.1c0,0,0,0,0,0.1c0,0-0.1,0-0.1,0
		c0-0.1,0.1-0.2,0.1-0.3l0.2,0.1c0,0,0,0,0,0c0.1,0,0-0.1-0.2-0.2c0-0.1,0-0.1,0-0.2c0,0,0.1,0,0.1,0c0,0,0,0,0,0c0,0,0,0,0,0
		c0.1,0,0.1-0.1,0.2-0.2l0,0.1c0,0,0,0,0,0c-0.1,0-0.1,0.1-0.1,0.2c0-0.1,0.1-0.1,0.1-0.2l0,0c0,0,0,0,0,0c0,0,0.1,0.1,0.1,0
		c0-0.1,0.1-0.2,0.1-0.3C4.1,4.6,4,4.7,4,4.8c0,0,0-0.1,0-0.1c0,0,0,0,0.1,0c0,0,0-0.1,0-0.2c0,0,0,0,0,0l0,0c0,0,0,0,0-0.1
		c0,0,0,0,0,0.1c0,0,0.1,0,0.1-0.1c0,0,0,0,0.1,0c0,0.1-0.1,0.1-0.1,0.2c0.1,0,0.1-0.1,0.2-0.1c0,0,0,0,0,0l0,0l0,0c0,0,0,0,0,0l0,0
		c0,0,0,0,0-0.1c0.1-0.1,0,0,0,0.1l0,0l0,0c0.1-0.1,0.1-0.2,0.2-0.3c-0.1,0-0.1,0.1-0.3,0.2c0,0,0-0.1,0-0.1c0,0,0,0,0-0.1
		c0,0,0,0-0.1,0c0-0.1,0-0.1-0.1-0.2c0,0,0,0,0-0.1c0,0,0,0,0,0c0,0,0,0,0,0c0,0,0,0,0,0c0.1,0,0.1,0,0.4,0C4.6,4,4.5,3.9,4.5,3.8
		l0.2,0.1c0-0.1,0-0.1,0-0.2c0,0,0,0,0,0c0,0.1,0.1,0.1,0.1,0.1c0,0,0-0.1,0-0.1c0.1,0,0.1,0.1,0.2,0.1c0,0-0.1-0.1,0-0.2
		c0,0,0,0.1,0,0.1c0-0.1,0-0.1,0.1-0.1C5,3.6,5,3.6,5.1,3.6z M2.1,7.4C2.1,7.4,2.1,7.4,2.1,7.4C2.1,7.4,2,7.4,2.1,7.4
		C2.1,7.4,2.1,7.4,2.1,7.4z M2.7,13.1C2.7,13.1,2.7,13.1,2.7,13.1C2.7,13.1,2.7,13.1,2.7,13.1C2.7,13.1,2.7,13.1,2.7,13.1z M2.6,13
		C2.6,13,2.6,13,2.6,13C2.6,13,2.6,13,2.6,13C2.6,13,2.6,13,2.6,13z M4,15.4L4,15.4C4.1,15.4,4.1,15.4,4,15.4
		C4.1,15.4,4.1,15.4,4,15.4L4,15.4C4,15.4,4,15.4,4,15.4C3.9,15.3,4,15.3,4,15.4z M4,15.4C4,15.4,4,15.4,4,15.4
		C4,15.4,4,15.4,4,15.4C4,15.4,4,15.4,4,15.4z M2.8,13.2C2.8,13.2,2.8,13.2,2.8,13.2C2.8,13.2,2.8,13.2,2.8,13.2z M2.6,12.7
		C2.6,12.7,2.6,12.7,2.6,12.7C2.6,12.7,2.6,12.7,2.6,12.7C2.6,12.7,2.6,12.7,2.6,12.7z M2.6,12.9C2.6,12.9,2.6,12.9,2.6,12.9
		c-0.2,0-0.2,0-0.1-0.1C2.5,12.8,2.5,12.9,2.6,12.9z M2.6,6.3C2.6,6.3,2.6,6.3,2.6,6.3c0-0.1,0-0.1,0-0.2c0,0,0,0,0,0
		C2.6,6.2,2.6,6.3,2.6,6.3z M2.7,6L2.7,6c-0.1,0-0.1-0.1,0-0.1C2.7,5.9,2.7,5.9,2.7,6C2.7,5.9,2.7,5.9,2.7,6C2.7,6,2.7,6,2.7,6
		C2.7,6,2.7,6,2.7,6z M4.7,3.5c0.1,0,0.1,0,0.2,0.1c0,0-0.1,0-0.2,0C4.7,3.6,4.7,3.5,4.7,3.5z M1.2,6.6C1.2,6.6,1.2,6.6,1.2,6.6
		C1.2,6.6,1.2,6.6,1.2,6.6C1.2,6.6,1.2,6.6,1.2,6.6z M13.3,19C13.3,19,13.3,19,13.3,19C13.3,19,13.3,19,13.3,19
		C13.2,19,13.3,19,13.3,19z M19.7,9.5C19.7,9.5,19.7,9.5,19.7,9.5C19.7,9.5,19.7,9.5,19.7,9.5z M19.5,8.6
		C19.5,8.5,19.5,8.5,19.5,8.6L19.5,8.6L19.5,8.6z M17,3.2C17,3.2,16.9,3.2,17,3.2C17,3.2,17,3.2,17,3.2C17,3.2,17,3.2,17,3.2z
		 M17.1,3.2L17.1,3.2C17,3.2,17,3.2,17.1,3.2C16.9,3.1,17,3.2,17.1,3.2L17.1,3.2C17.1,3.2,17.1,3.2,17.1,3.2
		C17.1,3.2,17.1,3.2,17.1,3.2z M16.9,3.1C16.9,3.1,16.9,3.1,16.9,3.1C16.9,3.1,16.9,3.1,16.9,3.1C16.9,3.1,16.9,3.1,16.9,3.1z
		 M16.4,2.6C16.4,2.6,16.3,2.6,16.4,2.6L16.4,2.6L16.4,2.6z M14.6,1.3C14.6,1.3,14.6,1.3,14.6,1.3C14.6,1.3,14.6,1.3,14.6,1.3
		C14.6,1.3,14.6,1.3,14.6,1.3C14.7,1.3,14.7,1.3,14.6,1.3z M14.1,1C14.1,1,14.1,1,14.1,1C14.1,1,14.1,1.1,14.1,1
		C14.1,1,14.1,1,14.1,1z M7.8,1C7.8,1,7.8,1,7.8,1C7.8,1,7.8,1,7.8,1C7.8,0.9,7.8,1,7.8,1z M6.2,1.5c0,0-0.1,0.1-0.2,0.1
		c0,0,0,0,0,0C6.1,1.6,6.1,1.6,6.2,1.5C6.2,1.5,6.2,1.5,6.2,1.5L6.2,1.5z M3.3,3.5c0,0,0,0.1,0,0.1c-0.1,0-0.2,0-0.2-0.1
		C3.2,3.5,3.3,3.5,3.3,3.5z M1.8,5C1.8,5,1.8,5,1.8,5C1.7,5,1.7,5,1.8,5C1.7,5,1.8,5,1.8,5z M1.7,4.9c0,0,0-0.1,0-0.1
		C1.7,4.8,1.7,4.8,1.7,4.9z M1.4,5.3C1.4,5.4,1.4,5.4,1.4,5.3C1.4,5.4,1.4,5.4,1.4,5.3z M1.6,5.2c0.1,0,0.1,0.1,0.2,0.2
		c0,0,0,0,0,0.1c0,0.1-0.1,0.1-0.1,0.2c0,0,0-0.1-0.1-0.1c0,0,0,0.1,0,0.1c0,0,0,0,0,0.1c0,0,0,0,0,0C1.6,5.6,1.6,5.4,1.6,5.2z
		 M1.2,6.2C1.2,6.2,1.2,6.2,1.2,6.2C1,6.3,1.1,6.3,1.2,6.2z M13.3,19.2C13.3,19.2,13.3,19.2,13.3,19.2l-0.1-0.1c0.1,0,0.1,0,0.1,0
		c0,0,0,0,0.1,0c0,0,0.1,0,0.1,0c0,0,0,0,0-0.1c0,0,0,0,0,0C13.5,19.1,13.5,19.3,13.3,19.2z M19.1,13.5c-0.2-0.1,0-0.2,0.1-0.3
		C19.2,13.4,19.3,13.5,19.1,13.5z"/>
	<path class="st0" d="M18.6,5.1L18.6,5.1C18.6,5.1,18.6,5.1,18.6,5.1L18.6,5.1z"/>
	<path class="st0" d="M3,13.7C3,13.7,3.1,13.6,3,13.7l0-0.2C3,13.6,3,13.7,3,13.7z"/>
	<polygon class="st0" points="9.9,18.1 9.8,18 9.9,18.2 	"/>
	<path class="st0" d="M13.7,0.7l-0.1-0.2l0,0C13.6,0.6,13.6,0.7,13.7,0.7z"/>
</g>
</svg>
